<mxfile host="app.diagrams.net" modified="2024-04-11T08:16:06.271Z" agent="Mozilla/5.0 (Macintosh; Intel Mac OS X 10_15_7) AppleWebKit/537.36 (KHTML, like Gecko) Chrome/123.0.0.0 Safari/537.36 Edg/123.0.0.0" etag="EhbymEk36UWjB83XG1Sr" version="24.2.1" type="github">
  <diagram name="Page-1" id="TdTgZtzt4XeByxRPY-d2">
    <mxGraphModel dx="2779" dy="1330" grid="1" gridSize="10" guides="1" tooltips="1" connect="1" arrows="1" fold="1" page="1" pageScale="1" pageWidth="827" pageHeight="1169" math="0" shadow="0">
      <root>
        <mxCell id="0" />
        <mxCell id="1" parent="0" />
        <mxCell id="cJpC4bxOb8W68x44Jm_f-41" style="edgeStyle=orthogonalEdgeStyle;rounded=0;orthogonalLoop=1;jettySize=auto;html=1;exitX=0;exitY=0.5;exitDx=0;exitDy=0;entryX=1;entryY=0.5;entryDx=0;entryDy=0;" edge="1" parent="1" source="cJpC4bxOb8W68x44Jm_f-19" target="cJpC4bxOb8W68x44Jm_f-40">
          <mxGeometry relative="1" as="geometry" />
        </mxCell>
        <mxCell id="cJpC4bxOb8W68x44Jm_f-45" value="Generated&lt;div&gt;answer&lt;/div&gt;" style="edgeLabel;html=1;align=center;verticalAlign=middle;resizable=0;points=[];" vertex="1" connectable="0" parent="cJpC4bxOb8W68x44Jm_f-41">
          <mxGeometry x="-0.3143" relative="1" as="geometry">
            <mxPoint as="offset" />
          </mxGeometry>
        </mxCell>
        <mxCell id="cJpC4bxOb8W68x44Jm_f-19" value="" style="rounded=1;whiteSpace=wrap;html=1;" vertex="1" parent="1">
          <mxGeometry x="280" y="440" width="280" height="210" as="geometry" />
        </mxCell>
        <mxCell id="cJpC4bxOb8W68x44Jm_f-1" value="" style="image;sketch=0;aspect=fixed;html=1;points=[];align=center;fontSize=12;image=img/lib/mscae/CosmosDB.svg;" vertex="1" parent="1">
          <mxGeometry x="414" y="750" width="50" height="50" as="geometry" />
        </mxCell>
        <mxCell id="cJpC4bxOb8W68x44Jm_f-2" value="" style="aspect=fixed;sketch=0;html=1;dashed=0;whitespace=wrap;fillColor=#2875E2;strokeColor=#ffffff;points=[[0.005,0.63,0],[0.1,0.2,0],[0.9,0.2,0],[0.5,0,0],[0.995,0.63,0],[0.72,0.99,0],[0.5,1,0],[0.28,0.99,0]];shape=mxgraph.kubernetes.icon2;kubernetesLabel=1;prIcon=api" vertex="1" parent="1">
          <mxGeometry x="389" y="410" width="50" height="48" as="geometry" />
        </mxCell>
        <mxCell id="cJpC4bxOb8W68x44Jm_f-3" value="" style="image;sketch=0;aspect=fixed;html=1;points=[];align=center;fontSize=12;image=img/lib/mscae/Docker.svg;" vertex="1" parent="1">
          <mxGeometry x="530" y="609" width="50" height="41" as="geometry" />
        </mxCell>
        <mxCell id="cJpC4bxOb8W68x44Jm_f-4" value="ChatBot based on langchain&lt;div&gt;chains&lt;/div&gt;" style="verticalLabelPosition=bottom;aspect=fixed;html=1;shape=mxgraph.salesforce.bots2;" vertex="1" parent="1">
          <mxGeometry x="384" y="490" width="60" height="60" as="geometry" />
        </mxCell>
        <mxCell id="cJpC4bxOb8W68x44Jm_f-48" style="edgeStyle=orthogonalEdgeStyle;rounded=0;orthogonalLoop=1;jettySize=auto;html=1;exitX=0.87;exitY=0.65;exitDx=0;exitDy=0;exitPerimeter=0;" edge="1" parent="1" source="cJpC4bxOb8W68x44Jm_f-6" target="cJpC4bxOb8W68x44Jm_f-9">
          <mxGeometry relative="1" as="geometry" />
        </mxCell>
        <mxCell id="cJpC4bxOb8W68x44Jm_f-49" style="edgeStyle=orthogonalEdgeStyle;rounded=0;orthogonalLoop=1;jettySize=auto;html=1;" edge="1" parent="1" source="cJpC4bxOb8W68x44Jm_f-6" target="cJpC4bxOb8W68x44Jm_f-47">
          <mxGeometry relative="1" as="geometry" />
        </mxCell>
        <mxCell id="cJpC4bxOb8W68x44Jm_f-6" value="" style="verticalLabelPosition=bottom;html=1;verticalAlign=top;align=center;strokeColor=none;fillColor=#00BEF2;shape=mxgraph.azure.user;" vertex="1" parent="1">
          <mxGeometry x="-285" y="311.6" width="47.5" height="50" as="geometry" />
        </mxCell>
        <mxCell id="cJpC4bxOb8W68x44Jm_f-15" style="edgeStyle=orthogonalEdgeStyle;rounded=0;orthogonalLoop=1;jettySize=auto;html=1;exitX=1;exitY=0.5;exitDx=0;exitDy=0;" edge="1" parent="1" source="cJpC4bxOb8W68x44Jm_f-9" target="cJpC4bxOb8W68x44Jm_f-14">
          <mxGeometry relative="1" as="geometry" />
        </mxCell>
        <mxCell id="cJpC4bxOb8W68x44Jm_f-9" value="Question" style="strokeColor=#82b366;shadow=1;strokeWidth=1;rounded=1;absoluteArcSize=1;arcSize=2;fontStyle=0;fillColor=#d5e8d4;" vertex="1" parent="1">
          <mxGeometry x="-165" y="329.6" width="130" height="30" as="geometry" />
        </mxCell>
        <mxCell id="cJpC4bxOb8W68x44Jm_f-14" value="" style="shape=image;verticalLabelPosition=bottom;labelBackgroundColor=default;verticalAlign=top;aspect=fixed;imageAspect=0;image=data:image/webp,UklGRmw1AABXRUJQVlA4TGA1AAAvhMg+EQflNpIkRcrZg2cQX33/PTzYfnACQiNJjqToOX9PwgJ5/hAeyZnSFKRIkhxJnr3yuTSWPztxFw5qaw+StwT7SMBMIBGoQAKNYERpQANGAh4JVgfw/nrPfd8LRJuhoaO2AZLKBCGOqGmwl80OrCIDpBVlt9GBSo3Q2SBTb+vsujNloYVsBqq0QIXd1crr//Wd3Vtzgo61bMZUJkRvjlgQVEzRiIKlDKQsOGCZuFbfDLl8BEkkyDsESSRIQiDR30hCIEgCEpAwg6PCJNRMV/hXac0sA2nEPqTt+tPSLH/oIfbldASOPCxJJPEHPZBEEgkESUQGCgsidL3GQzeutFFMvTO4999xdFPaLEZt0F2tvWcHzdaP7XR0tW6P69v+b62nLe/f5vH0+Qcf9zb9np8xXz6fG2Ilxm3bSKL6b3vn3N1/REyAfptDPrPXNG/33MuR2SdkNjQDldlQM7ONDTo13di4kqhoquhXaRgASm0jSfNRX4557pb93eJsz/T3HWNnZg8/pmNmpqFjZmbm+62J47ZfvfeqJKvcFUsVlaPZjiRLUUkuSxH9lwBJkpVKNRiM7cjFU9QV2OW34AU1WdvjxNW/rGPa/yqTO4LwV49EHnc1Cu47CocqGXCbiP7DgmTbSdQEiVc3G4iXxY/ZdhB76j/6T//pP/2n//Sf/nvqP/pP/+k//af/9J/+03/6T//pP/2n//Sf/tN/+k//6T/9p//0n/7Tf/pP/+k//af/9J/+03/6T//pP/2n//Sf/tN/+k//6T/9p//0n/7Tf/pP/+k//af/9J/+03/6T//pP/2n//Sf/tN/+k//6T/9p//0n/7Tf/pP/+k//af/9J/+03/6T//pP/2n//Sf/tN/+k//6T/9p/+e+o/+03/6T//pP/2n//Sf/tN/+k//6T/9p//0n/7Tf/pP/+k//af/9N93dPzId33rN35D+23+h7d58KPH9qp98/W2Dv75O9vl5n98O8fl29sn2WkrR+PbJ9t3bOHg+9tV7Pu2bvATx5U43m/b4LZdzW63cWirSVs4tBWlrRva1g+pb9ex792moa1l/7I9Q1uP05YMfqC9sK0f0n17aVs/pD0Ap20Z2vrSdgxt+4e0B+K0DUPb+iHdt3D2I1stNED2d9ssNEj7oe0WGqS01UIDlbZYaLDS9goNWtpaoYFLWyo0eGk7hSZC2kqhCZG2UGhipO0Tmihp64QmTNoyoYmTtktoIqWtEppQaYuEJlbaHqFt/ZC6BW3rh/SD7YVt/ZCOLQ47boXQUEhbIDQc0vYHDYu09UFDI2150PBI2x20rR/S/YKmitLfaBw8evnx+XUbPij33QehhNI//e5v/vL19T/82T9qGTx86fyKfdmLkt6dVC0+a2Tt/eovL9qv/aWOcXl8vsz+872UNYR8452kvWX259oFL37l+XIbUhlrGO075ewt5Vf+Wrfg5vyJNgQZa8on/clv/PIT7Td1i/b5KjYE+WqKJ/3R7noVq/QKvuDcrehIVlM7yf7m9Wr2h3oFn3e+qr38gkw1rJJEvRX5fd2DZfmE5akpnHR74ekhhHO3liNJTd2k29++Xsf+WLsIWdORoYZZkmBu4LXQLYqNf/l8TfuSe/lpmKV7iXvXv+40C75oXdyQSk3Dbt8hOW9NDroF//74fH3nkQJpst1fqodFTye57tx/OXcQjsQ0FZP+YncNYL/ttAu+8NzBOLLS8EtyK5Bk/XtrF8FAzgtS0ihI8vIgovWLYCj78hclpJGQpOMB8TuXaB3BaxdXIhuNhiSlMtFAonUM++pzB+lIRVMrqfq7Xwa033QXaBnBsI5ENDKSNAokgeTg9Ax7CbYZ0hdlodGRpOLBR2sXs/AFdh7JQVMo6U8vPFh+W9fg388dvCMDjZQkiUVGhI/WMoooEeGwr9GSpJAbGDxa2wgW4dzxrlGTJOABR+sb9vhciL38IucaOUmi3vWv/NMFGkiw/PIJ37YXpkLSP/799RUTEq1xBEvT+f6Wpn0fy2WiieKv3IVpHMEiHY5rxg5JifUCSQQUTqJzBAu0x+mL7Go0JZ49cdF6SLCQfMLMalQlrj1BhZPoHcGCHVY1shK3ZaKJi9Y8eHjuhDt8anQlXldnV3C05hGMwGFSoyxxWiCJyGjtg+Icgb38kEWNtMSmhyha91iwM1nlE/7mlrrdMrk6u+iidYx1jpCc8wMtffs+3hYZEQW/5TQQvvDcyc35iZYBjvec5wYGXMMIzSf4CZv9ji+NvsSchyRaBwnGY0PKlcaBxJ6HoXASLSQYk/NIwhrPtdLtcNVDFK2HBMvL2bPBtzFaJpqoRTnTRIKl5ZiWD/tetgokQVM4iSYSjM3aO1Y0PiR+PJTR+sjc8ySTT/ibWeHEjYctWhsJRulwoXEiMVEmGkL+2ukj9qFzh9NhQeNF4mCRETHyD+4C7SeYt81+983scOKiQBLk0VrJgp2hKjWNvMaNxIeHrnASrSQYrfOItsaPRH91dmlEax7rHCEdZ88S+x9naJERsSzKmUZSRAluh6bGk/0Q/dzAOAsn0UyCcTsvENS4sh8h7GGO1oKCATf7HUWNKYmqhztaXwnGWlwJOY0riebq7CKP1k6CKTi0NL4kgmWioY/WToJpOJQ0xiRqBZIgj9ZQ+AISuCG9J6NxJpHxKPA7Ogr143MiziMiGm8SIY9atD6yYGdkHBIacxLlMtFQLsqZhlJECSEHvyZx6Y/+4XqpUSicRHsJZrvUtOM3cGhHCgWS0IjWVCjEwcpmv+sWNAYlEh6Rwkl0l2C+8wn/YMujfRj56uySitZVgsk5SDUeJcyLjEgrWlsJJuig1JiU0OYGphatGQUL3ux3+DQuJVY8gRttV18JpmjD52PT+JQwegSjNZZgms4jXJp0pQOIR2UNI/SSdY6g6iDSOJUwrs4uucJJtJZgxp0fbbm1I6oCSRiL1l92hRk7K877EwsasxIGjy5/o7nwectgN5+wb/m1D2PxOIjWUhbsjLgjWuNXwlomGqFFOdNaiigh74jVpCn9U3Z9xUhHa0rBmDb7nUCNY0l0gSSUo/UXe0y/GVJhGs+SUI98tP4SzIDzSJAmR+lPRXuYNtquBhPMgyNC41oitsiIqDbargYTzIUDq3FujZDcwCxE6zDBXNhLL7Cioa6VboI8+oWT6DXBTOYT9i3v9p3gHhfRekwwJw6YxrskfHV2+VqUMw1kV5jx4gBpzEvQq7PLQ+EkmkwwNw6Exr0EViAJG9HaDAUzuCH94Noa/xKMx1W05rJgZ+w4j9bVJCABeLxF6yzrHMGQs5YmAwlpmWioN9quNlNECUvO6pocpPVWZ5ehaI0mmCfnhVU1OUj3PBVIsnINpNaSgqmtOO+TNXnYd6zusRSt5wRzlk/4R1uZ2PfBrc4uB4typtcEM+Y8SZOItPIiIzJUOIlmE8yas1STifTk3MBcRmtK6xxBZrPfXdXkIq3isVY4iT4z9zzenEdXNMlIyzzWorWbYO6cf2vlYz991WMvWrMpooQ9+9r/JZ/mZxfgLlrDCWbQ+d+y4ad+kTl+Z6bj2ONzDu3r/59kmld+mcFoDSeYR/tvuTpLvznTcqjPnYI76YG9wkm0nGAVdzruovWcYEbtf+QKLN3PdB17zGnztf9TIhJv0fpPsDoXV/IKa9HaTrCSOz1n0dpOML+Oukq/MtN4GM/5tez/qKp0r/NQLw3mNJ+w9CQeNtqufrNgZzw7Cir9w0zrwZ47NXc6pqK1nmCubcoVU/obzYeCbdzXTtxLHEXrQsFqnU/4FY4W5Uz3CVZ0p+dnnnnaT7CiO+kvsBOt/QQzb183sN38DDvR+lCwaucTfoMPfmt2gQYUrOzOpcTsRtvVXXaFmao7P8NKtBYULAlH3aT7mR5kXyGJppv+v6pJf6MJ8XnLUO58wiVHi3Km9SzYmbo7bzBSOIkWVESJwjs/z0S0NhQsFWfglZ/8JY6idah1jlDPFed9nYdo/ShYwfMJ33AQrREFK7wTBgaiNaJgKTlKJP3KP2lFWBnhuilnU2IiWjeae56C5xMOA/VFOdOLglXeKRgsnESj2RVmSu/c0I7WmIJlU2qawkh/ox3xRU9CuUtNe51ytL4UrOT5hG/YiNaB1jlC6Z0wUI7WjYooUXunILvRdjWkYOnZ10w5bxLVaH0s+LCm/U4ppP3sAs0pWMmLK3mdZuEkelKw4js/TzFaUwqWpqMG0v1MV7KXhBHHtN8VZKP1pbnnqXo+4Rty0dpSsFwdniR60bpSESWq7xTEorWz4ECm/e6GULTOZI+l23STtKXdJTpUsLLnE36N7kbb1YzWOUL9nZ8jFK01Bau/81MDmcJJNKpgNS817VUy0bpUsHTzCUtVOl6iOwVL3JGn9Osz7YkXz10EcEYa0dpTsNTtv+dylP5Gg+ILxBHKtN+lA5mNtqtHzT1P4fMJv0Jqo+3qSwt2FgWcnkK0/lRESRRw0l9EzO/NLkwvC1bZFed9hVa07rXOEUq74rw97kU5066CFb64kvSAunASXSo4Ejgd5mhtKjgaOD3ieeZpbsFDlfY7yhLeaP0qWO3zCb+CNlqjCo4ITk85WhfaFWbK4ZCVcG60XX0xWF1q3d0r2KM1qAU7UxDLchlIR82Kz1uGWuQTZl/69ZlmRX3uooLToYzWqoooiQxOj69wEs0qWF1syslJ2KI1ueCApv3uFWzROlew4hdX0uOK1rCCFcfhWPqD2YVpWMHK4/Ar/Y2WxXiuPJYNzErlTMuiXhqs/PmE0wOewkn0rODo4HSkojWkXWEWIZweS+EkGliw4pealn4YQbS2RSGOkKb97mdwLMqZ/hUcAfIJv4EwWqda54go4XwYT7SONfe8KOGUCKK1yWD+a90dY9LuEh0sOBLkE/6w6I22q3UFRwqnFB2tdwWrmMOR9DcXaF7B0cL5efTR2tmuMBv+tN8xs/MhjtoXn7eMaJBP+HUUhZNoWgt2FjGcG5HRmlcRJSrnIJWERet6wWFN+12BI1rLWucIpbMs50D640t0smBVyyeMUBISrYUFRw2nEFI9Q7Sw4Mjh3IiI1vmCg5H2O2QS/KKc6WbBUSGfcAFfOIkuFhw5nBux0RrXOkcoo4NJAi6cRPMLjmza7wrAaI2M8VwhLfu/aCRB0frYgp1FhnzCYRATrX8t2Fn0cArYjbarjxVREkGcG7horSxYOW3KaUhHzYwvUk9cNyGQoAon0daCo0NxJTdA0bpZsJo62KW/uUQ3C44iTgESrQkGBzftdzcQ0fpasILmExYqrR+toQVHEuc1HNG61a4wiyTOz60drWMGK1m9VfmpAWyj7WpqC3YWHUpNexVsDSN0tAU7ixb5hH8OMFobW+cIFXYQSfczXc1ePo8ozrhOtO4XrNgrzjutvihn2lqwItt/zTFIh0t0uOBIUVzJK6tGa2zBUcXpV4zW2ILV2hG6N4h2WhtfAIkirjivOOkfZlob9dLgqJFPuF8lWm8LVm5HkPRPmhv23EUW55UnR2t0wcpcahq8dNTe+KJzJbevz4GlMLtAnwuOHPmEX1krWkdb5whldwClv7lEfwtWeAdAWhat8QYrwGFj1i2L1umCI0g+4f5qtBYXrPjO+tJppsfZV5+7COO8ciVajwuOMk7/mzNdzl4Shhpv9rv0b7U5Pm8ZESSf8LfMLtDmgiOM82OzBdPlOhxZnO+d6XT28nlUsCl/sqbV8RBSUusV5/2mBU3Lk6JFPuEfnel29lXnkcJZEqTf2ZeeRw/ne2Zuy0fjsqH97pmeZ198Hi3sX2e6nhWRgmKm79mLXxkZGL5wpvVZERGc2w/OND+7nyIALy+o2p+j+gHPHs10QbOTsguPv2wxQh8UivZavZUPPdrNNER7+AWfd3PzobZRXJpn4ebmpno0/sdMd7TejkV10z5TyWEy1017c1sEu2qKR59MBqlekmc300WttzZUtx9SoXTQ9eWInupReLhykkcvTQdVN23bXKvFFCa31aPxMsWj41r/0IbicsiMhKejbZr25qYq1k3w6LopoTEU1c1N2zaNnMbvXCZ3qhBs38/0aesfWhtCtZAYetY0DKd1mvZKYme0fb+baePW9w/twjCa6vYyQdQ2bKSImqZ51rY3lymd4jKp87DvZ9q99X1vLyyEUFSXyaILay+tubRrLImbxeTNQgLn5rZaSOOE0V6mcvrZFgXrr9hDC2P9VdvNtoPYU/956j/6T//pP/2n//Sf/tN/+k//6T/9p//0n/7Tf/pP/+k//af/9J/+03/6T//pP/2n//Sf/tN/+k//6T/9p//0n/7Tf/pP/+k//af/9J/+03/6T//pP/2n//Sf/tN/+k//6T/9p//0n/7Tf/pP/+k//af/9J/+038bAD7q4z7psz8jf2+ef1r20ds6ONv9p3cttfkHPj5s37j/20a/iuUPtnF4Wz6cM+vXsVP8zkcutSQtO7+m2VhcbMdi2uXmPXaFIZGj7U2zG4qzNCRaeWfv1zb7sbF297Ipb6wHsrlpEqu51SqYd/53xNSxxc6MXoT1+XSWRL3E8U0YTxexYs3sspAg/Seth7JYeej3xW0eifW7MUmHBbGPEMVn+iXE5B0LRT73qGxsijIphwcxUXwy6HDvWFiZjEdppiiTgwgLgrQp/r3/FQWrEBKcPAMe4h1i3vkxzT12y8+SmlQe2IZ4d/QPCbNFmfxDVDsWb4XT6MnYmJdJP8S1Y++bzxpPzPIyacknCJjsL471FrpNz0lW0nh4C8w20XSSlMwFkMG6IoSF7tB1EpOkXgBvoXUyWNp2SkqSieB5UN2MnrzZIhnJIIJ3Y+pjjGfB8gcJVSymY3kubDwlIHlrbM3eekbMlolHnouruaLyIU5a/pXKeHYsL5ONTELmlM6nbPQMmS11+w7tPFM2JRkJ8fO7eDCeLTslGYuL/1wBdHDGsJ4xM2Vykedi5sj90m5IuROfYiFsSiTRCchggIHJQthb4hluvfdSafZ0aUNDMmmJzkaK1weYNFZMUyoJfzamSUUG+OtkiGkuLDYJRQJ0q6BDPHNhskkm4j4ROpoOscyFzSaZiOtBKQkRx1wYbZKJ7CGlT3WxJTe4UifWmDzPj8OF5XneGGNHbP9O8g3kknGxJRmSRE+fT/V+5ZRJ2WVDbkY0TSIRd4B7044tqcQnSmwzQW3hkNBNDYbCYPuQSMR9FtgXx7iSygq+La9L8L8za4XflCfdwOza0sWW9ELnIzOVwhJcteA59E1lG8yNCS625CRSufJaIin0MpHb2/W/MsaW1MImfz2UKEZA1VZgB8pELhzX+q66d/SIu7pgMofGukbY4J9CkXPVyv+Y6ZyLMVl3EAiNF1LVioopFTlXrZLdYLz04kxO4jwGnK0Va3AM1h6WFgXVH7PgXKxJJczjwRlLPlBFQXV1XXeLBUrGnFhGVj0mtSKkYg02o01MpR2Dw2yHUYBUPoulumg7AnvHANqux+GeQSc1gsNvB/ii0opnMdR9JpZWAHw8BmcEhTET9ffxt5rGOuiiX4OgevzNQtKXjpIdgFvH3mrohRdiq6nH3gzwhbGmH3c7gxzIEZzjrBmPhQ3TYdI6graOuVWQM8llbyTVW3RuBva2vniwkDsNReMGLm1x4HB+OpO+zRmHmxLnEwGD9W2eQa+zMXcxd9o2c1CNQWnQtclAt+sah5LRtXkGOm9cFqWgaWO53ObRHdyd9WzOALf0K5etXM9mgtv482y25no2Bu52Plt3WjZwmzya0VaRWCYGuiVntSCVXMdmgiqkldUZ/L1bx6ZhdWd5VlBXdWx6XvddtIEK1LBhdnfgDFCB+jUpYJEfnN550K/JAHdTI6d3zvVrJkKDNBK6R+KNfs0RqGJvcJtWs/o1DVSlzGP2hlGl+MhLC/oPBqjAD7zs7dGGVR/abNo1T64co9ba3hiT5wO9EvFCm54VRTENlzYVRTaObZAXbTsue5CHqSiKcUxbGbLYb119sAn3WaEds6V/fzam7SaQz4W5J7uPk79TGdpi149sZAQPabHLe7v6eo6afMjOgiwIl+nNfL3de2JNs5vOUinl+yuGVXuueW9201kg1I8PubGrP+X302vWM2e3cpE03CCp6pnY8VJZR0ezy1Le75sWuwZ2WxusUzNaJZXS9n1TpOgrZueUW6jq19lyHX4rkkCdg1gJkQyAsPfBbKyrAt5Of/by8QsA22OsF3AdQ5V1dDTDGdsf/qI2D7kZzgJB9iB9OWjvtbOgOyUjQ/swL/bkwA/AQKgKEIOigLAGhPcVAiwyE2RdkQQqynuRd/8yRTFA1kw8Fmgnkfv4yEwpr7dNjfAdlkMwwTcgGuQYRhEPuikCFxWzc/y7DYEzTNPsecKmKsg6FZBHPqrd3HsWONtZ8c9aTruzaIY+QA8QYAfc1YFxxNVXhdGITHxeT8UloDp5xgHjaY4mPZAyWCk4R2QVTjDjFsH7TKdHM+g/FV8tKuuPVpIajfccECYjzfooOT5JQZPeK/kkIEji2oKPujB3biUljNWPpuOwto7mZ7KtlqSmYJLFoWzkndpiqis3OZGJbISd94LgsYoG9oVs66KgLRhktHge41Ksh6x+mLR86BDVyOaeA2qDutLBybYe6NmCOSrDQn09OrMIn+xsyEYzKuM9CnAMkUftyLYqCtqCM25GdA8xH1Vh7tqoxu88YEIUI5t7kXBaVzZtwYlHxSEPpbqP9ekB/unf4a3MYTkHqj47jWDsvKfP3pCp4lYseKQsL1niZuSgjzqzqJ/r3AXoXauIXFS9p0/YSbO+n51ZenVjYWIIvIM+Cj7689oylzeBKgpp1GJvPX3quSyrxWZliFamJ2aoeg4qL1bV409x5i0GqFMRi9u5Fw7DSQJTSrZCTtqCMOTqPtY1FLcU0trvWcs9VGCk4sZ78XBcZVjHieq96No1XejVSsqckXpm8p6zPAdEEaU4efIEI82aoLijXqevqIKn/oWh2ob3oSHTZ2csE9TrPkJx8ihgerCE7aj1ur331BuiUKwDan3gowc45ysZWO3Kj0ycPHlO0qyDgbcjAzXIJ+OAisajnzNSHfdeQCTpZMAUlbj1SOC7kijmQbIVcnIiCc2ER85IlSB8z1XcHAgTkdh76lSWgco5KtkKOXmiCNHe7MRIn/7MVcDex7tIRGXRwHmdYbWlZCvk5Ik4lJKAt4z0AT1TOUJhIhHWE+eGibr2lUm2Qk7ekuZEqwaF8ZEK3VqeUnuwVgRi54lz4iM9QKH7rFhGmJrYyzWsNjaOZsao25qlBDBM9KH2xMmlWVFpb/mpZXHUoDv0o1n7kL0g1fEcAnMNqp2iDpXFhKiLJJtbjmoiKVXoTRM8MTLIr2cpR8BdXhZxeOZpk0uz6jjfeoasJ0rNwEQgGeG3jjVH6TycFG2oPW1yz43dyrWC1l7TgvKkqIaRrFEv2QPyakM6RRosbXLPj2VIyTxTlqXoGQPD1Whnz+4ZiZCxyl2E4eRJk/NUKzalWlmex5aelIGH90R8+p8cpQZ9l40sVJY0JynWHGdcT+5oTZ4Pw1Rf2jAcc2OE/0Xj3hAxvI9uByvyEzuFWTxx1dsyqvDMI4PYZezz41R3Zbk4nWFZ7rtsOjY9gskW0e+PV1FHIWtWrvp47LtJ6EP9TE0Nt00DFmpAZ7nwrJX7rhZf5Tk7MZpt8qHurvz5rsTx9y/bmp+4e9C37yCL9F4HYQ0In9XB29t+qkQNCFg04dyI/Qwxx7U2Rcc+O4oNbdDRCD/UNqd9gHg5CHuktzUxFmbVfety5b6p7REMaTrB9defmoU1nuNBaO7m+6DqIKwF4f2dAIvWdF4+DWsbZ2Y/naAHeAx194ThAGFxmIcZhbAXOe5iAvn7QtZaxMWUEBrQZA4d+sqveE5LDVH7BjusFXyxgF1LoyPEk921VlxrGFDbODOxUo3H7MsogoXrZ451ue4QgOx4cdeOwvQZpg6Q6aujsD+uQ9Z1SjVyshLykdyTAdEejx3iCr5og1sy1hPqjwcRRLUylAn6WAaJHtRA3xlzuPRGFUCnz6CSHOjaUczX5JKBLoyHlMoq840pOVv3gQ6410x0AMoTZLIA20/VdTcX+UmYQzeRAwP0hRSn7cSMsVj2EOD/hDKIMAvxwjZ6EBGnJ8Ss6QGnaY2gNEePsPrtzXUXF/mJG8CPAZJIwdxaXONcHI4uAH060viEmmgHmY5W1QIb01Hh6qlqK6JPqtd+tslUarkMJYC/9K/VHcRDPAQNFRHmkXJSLA+wII/cuKeehj7Pe2wrnXOA31A1uUW6yhmXP//qesDEIy3oqMiEiOQGaBDFtYE4EC2lxNJd/5oDsdZAcCmW8BXw1wRKaytoNlAEARMcnhQZNCsBw0NQ/4QhQXS+KA9YxnbRrQ6LnSU1SGCguu59ocVTnvxEa4iXDxsOdnbeKQgQow+mQ/6YkF01u9qKk+gMIrAd0TLqDWkmjMPVSL4RhgY4Xb1ZYoeroTipMJytkWVl6a6kbtVTm1D0mYBawUn2+U3pMnYsTHPVBHoVOWwTRSfoKMFUXzhbN+1npLNxHWj9zamQhADVZiCLLVmYMfKRZEUO20DhWkHve2NkYcL/iBBfMcxsDlucFa1Bkz3puQaPgSh9cI6B5kAyYT1sogii3n5MqbYIXx9cJrrYl9RHQg2knvo24BzjNlIZJDAIvhC/8UCzIofZzQEszJajGRUZZuYrdIIePk+8mZeE2gfqo2gNSfqAZ5J8sReqc/C620ThjiI3MW3EoA0OPRW59IDolV3J6TzzB/LvCPNAkD5w8LbnW7Lp6mkjRbBijzz/CMHREbAGdpoYDppOaFvkheRQgYIeNuDqkQQuNxPdRQ7fQJD8VGljnkYFDrwsiGTtHAuNIfLEHzjIM2dEQ76MomoUlimI8NqXhI0U7hOFb2HsMgpw4KUsm5qNIYYdifaBhVG080CMseThba+g3EN3myncUXxJRZnyc3Qk2kIu1DtmKDzvBybyzHU4oDyOz7Ax1rODe+A3VLgGxX5hUXoaR4HKCh4YRHTEQYq/feRi1pZvQQHpx7oTF0Q2FWY2VYTeexRCUHVsIMGJlRFSNRilqEJaR9h1wOSh9W5SWJyJDhEa8XqDtPkg9TV6m+KBGsLUpokRM0KK7UyzdQP4hHPRCpQocfbU8OTk6w3S5oP0tyui343KTeFotIUNk0D9KSW8D8GwROodI9sOI8MA8QFsBpySfL1BUiv4KYXuOUqV5kilrwRewAQ+Ykaxf9pkeagNiwb/DYMIjf7NOflEdalWgFd6b5vigSJjHQ1qD8Sen+zsmeiSe1oLuh9ySKcLDB0y51holeTXfOB5tQKuEmaROLOgwJREsAzVlE0jbHlGEK3uRMnKnC1HMuRMrPZITn8CZKtW0FVCffoMo+KSU2mDbkITbqQ7FA96Qzyhdw/08FKhZGIm4iUDaeqwOSKhXLjNmyJVVyyZNktbjWAAYkCS0KoN5Z3CVqOfRHOATmlzcNVw8JpP1Qx2ltmKZ2dbl2pK4WgwMrU+PNaTqnMT1WTJ7vSCADSJJhEeYGZi47UWoP70DQh7uNW7mDINKxMi7sPCwiQamotESSv/7r61RB/kHvskmgMToxwD8GuN/tVp04XLLPJN3zWlSgQ77UpEtchjK9csosljH7AzVNRih8SD/SYbU18NQH+7esFQeHyZhpURy8pUHwcma1cPjsljr7ylM3PDSALDxWZa6VjomZ9XLTAaCmWmYaWBm7azfK0HjyH6YVnV1JbstgK6IwUyJl5scx4m/Xm3asHRUEgzDSsf85IIZ2B7J4ut1lskuSswUgJYh5wUjKO7MPrjo+xGDFe1VDYhWV48UDpyTqKtI2qGcp00YiewEAloX85CYMHDO4/fcJDuIU4XfJjrqhspJ1lTC6pMiDe9J7+vhUkkoH05C4EpE1Ne3akVKHXEnWc4VQ2Yia5Zq88BYU64N2Hnjm/BjyUxYRETw9NqBYXAjmBvrbtUwSg5GdVS8JYuMPwzIf+QGdjoy+8Bb2FhophOxUBn9hxawgN1gJfrFXMVW6Kju1+B+emUwU9HopBoJganVUoKZiPhWSA0RYDf64W7MM6CC/YZkWdWHdgY/TKgy5+MPHlSbFg4vMc8PR/ViZyR1MU8UGaQYkdT5EnhgY3RLxMfgx3fVFOouw6xq5OnSBRU7i3yDU42Y6nYe2zn6Jm4mBDVuygGSA30wmUPK7dkUJXpm7urQYZ49HRcYNnokyelAtwGW6gPc0ZKSDs42gwyvCGwgOMCwwaDUoFSgyHolIqDYWR+NQVxOineAJT1CDkHNjhu+HGua+k5n/NAaXgLI9NiPmBwji4HKXKHnCMb5DTeejZtiNj0+ARrxIXCUBBh4rAMsgbmBvVjYIMhyoHuRCmnUlno+JjctGCxHNOUe5kDssQLInb5ArXOnFSFOz7GsZTOMXjDxP3dOCBlgykpgHOB3MSxtlATHA1GFqfzCBJ8Cx45ILBBEcUAq6g+1RJzStnCSLcmHnO89PILnDjAJVgQv2qOxKaMVQ4sHxObdjzO63DOPA0D2AQPMPuwjdSdVIMDH7dwOYDijvlbGOCQzAF0D8n1hGbtW6oFho3SSQwHZNI7zTrWHGCSNAg8m7jQqc1j6k3G5OKSVbK7Y2WTgUDtulIqompz5HLBUWX3Htz4uBfWiv1kaHRSsTFcloH6ptzuePIs8HwMBMxhT2rNnMvsLkZmizIScs8DeQwEzWFtqdBUbC688r3E5lozWh8bg3NYm6ozI5sz539OWp0ajffxMUCHnZSZic3cLoOcOvWRJ+t9nAzRYU+qzD2ba1VXwy7UGasHAkK8DNJhc0XGsDl2pabWr1A5ElFiZ5gO2wf5w0hh8VwW1ZpzeQAULb5EY2mgDtsHBSbwOUO6M94PUJbQZssPRqH4GqrD9mHocbEQI4xyYCjNMxZD3iw70b7F3pAYtjbImoHHxNgVwyiWkSOAq5h2zdLDYGkzAaqbHXBbo2uCqTZBPBjQDKQZ+GUmeNKhtxXbQ/SUKdfoes7LxQLhI59r+S8zQSwPmEVVNx6FvQRXIxnuSP4uJCybzjXWh80i4BDeY8vIBmr3vTq1yWYAvjv8FVpvSoaOzLHft7t6380QlG4O2scPkeUlQ0bp2O/biEHjTm3WNa6CbChwM1497Ow2bnCYaoCXuKqUiXQyC7dtNgB88GdYjUpEyHYLtyWFIX3KG/zYCEC0ZwmL3d18gGshzBmjKpMOSH8REjYjUN7wDKpaaRgv7785gfKGj2tMTepCOF0qCWqE1cNBER2MqUE64Po1Jth8Al36mjsiEHkbGSAfaQypo3RA4yXoceEI34qoe+mAxNvQwHnHETB7433yHlf10C26hB3t6mmf4MW5A3ALLqP1lLH7mBfWy06WkHvSdgwu2YurQTnzgWl1fiyd21xB1P+/27Zi5eSRmMDabR7/Ant5h0po6N5/sX69x8Og3nNkSkU1zBy7ywGKyWHcJ0IGE2VP8TJvpsXbksW4I+BVoOzJ7cOC5uphJpIUhWY1ca10rDiPt8vY51eHuyQ1YaWKF8KBq4ttjtPV04pwfA3swzzhwE3X5pfdW1K/jZKn0K6VlCxtVmJl8SZ68mHZ+Xg+UU0HV05avPUDo9aBg+4y9s1xWproSWLjGrCOxnsr342Tl+1QTWyy/HjnSnRTgeW8iKVR7tRISho51ksOd65YH9x7j/He/cx3yy0jGJYDyyxRTgf1mRNvVl5TYIue2UznLi15Cx8b6eP/cKckYq4eml2c2UxinQFq43fEOzkzstKsMGXxgLPbPMD7wM9Y6mEGecmH1Q+zSLBD3GwjAfCt51hqpP3zq1mJ+zVISMJzhOFLKCTyJcjk1BZ1ZDUl46mBpgaIpQHmw0hKbTHeRgPie8RSDfMUKEDbZs4l6HFQq54USinMe5v828fgkvX0MLwOKWUtqnWAP+F1JOy5B5p13oDiYpjXKCEs9EFNlLhnAHpzjKVeyqeqlxH08qnOJe+ZFIw0vgapzKNrl8SnVnAGKR83tHPQi77APZZqGZ9EiUbQSzKfUTlQ1DseIe+hCaKod+zhiiVxSX0yFaeXb2AFu35fuqzsjvINzBbgp06bVZoftXzf3Y5wGjX0vkLSXOqle4OB0kpqpAkzcgtkA1ffjlUcN5fuDSMQBb1JwRNm3Hsgyzlf8apTNBnZ3hCYarssYcYAxbs5z7XZo2mQ7YpXjVx9N5gSZkwsZHxE/q6xvEZTB3R6z1Lf83v1MWFG5qEssEQK9YhFU/CSXbTEgavhkyZhRgq3lWMYT7hN0eSMZN/f7j1Tc+mZJ8wIYEyML+V7PA2SvWpg6Ci+WyTNyieZg92R78gxnjov1/WN4KruZZwlzujBAvmem0iLJzeX653fZOpBHhJn3INdvWOIWj1WP5OXPjVIA65uMYkzJsZvaIDoAVXDMEiVieIEZAkekn+fDmB7Ut5UQQkwzKVKRjA/f3kmgDEPTF8fnUzhJqeKLF6VTD3E/5Vn3JtgTcH1ZqpSUiYv0eCKqbJ7aoHmnuurlYe6p5ISPFBLotwRXOTnAk3tmS4x/hkUGRVyueIMUEth+Y9eJp5Yp344Bp4fraCmTOy1wujwGEtclhKNexMwmOP2wakpYeSuVS8caqPyYi7T3AO2OG6/hQzPSxbXcNfqrx4EvZKi4su6mOIGjlvPwMjIYGRL53lrnaH6L9LFmwwl8ualTBM8w60McCJeMlgeYGh2ixkPKeM+F9vZNxnKNF/55eOKDcPNcMsCZmcmwyhdBrDfJTM2RhGaKZXHorzOC8BCPMFE9xRJRWB/2BaUZhQnWwJr/ekzXGeP+Ht+ZpxXCZbGPVd9xwN7D8cDQqQswNMeJmFmWmkzpfwfZqHzQrAs7rnqbeB102IbR4hCunSMnfzmniE7GIsnbmYSeKkIm1xccZVXqfGA1ykxsABPCeZrljKNG9A8wzU3w7X/WxCWu5ji6pxV6eTJTb97hOF5+dKx1Z9aqF7yGtcCaE+UNhQNnupY539MDs95Rs/3izcekJzUt4qRBbhaHsmSqd4yB5xOi5clSKkQ8yGmoPOezZjRQ5LSGkl2J19quAmCmJpOqUM2M4VAZ4s28ykDy1YR+wR735BmP4fkQOxTfmICnjKpXrP0+rHYpkSayAx8BNQY7/xfHiPzoHbN5MUXxJ4TI2Fqjk6zZieMZQ5PjIxdv2yEqsAGysYVBvzGeuLxYqm9oMfAAWy1/C1DG7/9Ab5zNwWRnV5FqAD2iogrGDyHzS1wCq0g94IuJEwHmZWL84JrAh/fKW8LWeh9iR5iopNn2TXVfwi2TW9BTwwDsDazo5RIPiGkCWPDRfLuvECqh3ofcvFQyzeBvR2DXRD8jO8kTOd5aXLIhDHKeQQS2C3elLoHGyQbf5xH3Jgqd6LqPd22O0KRSxjXsHJOfz6BJoxRpvAG9A8qpiYfuYNTf8fWshkpxrkHb5PMftIxAz8ZRSZGLjbgnFY8RX4rpzofO7SEVMYGxJ0nV7P5LM1tR2IkjBv46E1PmPdDyD39wgPX8wKqADkH1hijuFamokbr4cmI5pueJIyzXJz40neoXy0d+cIDL7eFLyQX1/zaxRjFtbIkhmdegOVUn5B5KWE6HhLLwXjMbRdG4i/Ct7qw6t7HPVI1Z+k8eyim1iWPJdmRHTbwAzcVVHacOCg+zAYRDy3p5se2wKqGPLfExhZ3YeigFc5E1ZFuwoMZ+iBfgqXfl95CJw8K1L3dCWc3aBV8/NP0HpdDt8LhWtKF6fclZZichMkW1CeWtshfjtfoXnh14ZUz8U+zn3thDiuHEcRY0h7XYUvSkJWg7d0l7eRBin2J5/oSW7qOWAPsYVwZN51d/vLF/piHGrg+UR/KME7SJfSE08pVI+BPxl+AoM1QdZMzhHeh9Cmu6KDQ89tgwPS9uhH5xp8zMHNje0YVViekvi6pJpBtSWFeCnmJZxQoaCh/dNkinuig0LHf8/yMg59dJVuyMEcfU9CE2eF2eUlzGF1B5GxOXCCpft3cmuAnTosjykvrqP/uS40n6wVb6XCSingCsrDOMWb5drwQjhHjjARHE+ZkEr/2DEENMCdXmAv40lyUax2Pm/HMKddm3hSl4B9ELcFMrIwe65vp45b/pq+16ZJjzDLIBtdTO4d4nDXkhs6FuaczDG79evefXe4o6D16yMbl79FtVuwaG+GXvOizcFSjNfh1bEuLHMd7/oGnAVMrnbfBO5zwPPbQFCWl0YR7oeMBxaTs8P4scNXW2JRie48u4p2TiBvY7/rbR44TosNCq+HzqGebpIPbj0TOlFVh3FmiKeMwp5CyC9l5+/OmqKEJc+/ReWTvALKKTbgbipV+afDadoQ8FCtZmCVkh4zn5YOrRdfAtgGiBra12c4IThnTfFzNdAb4U+QGWc4bT5h7j7YuqjdzrLW8comt9XcJ7zqbrREn7J++kUazm7I0rPwDomdG8iljIzZll677A2UH/aj+TRTmWiHCl9iK3DBf+GzdoUQaJ5Em2xuTX7HG9BZPX0n9G0Hf7KbsLG3DkhRdO2bFkDdWxGBxQFXIyFx0b7i+MNoqZIQ7eNZsj+JctcqFNUK553DxFhefNvYBsyPHcinhPoszaokckZk/J0QFXO/RxkX5Rj4XZr6CW5yoTHOgnvpF9knAKJchm3Av0jccX1iVAkoUpjlI5NB3q40p7B1Ntmm0n30No/Qlw7mVMqwoyh0OMnlUTxOmgsXE5GLRxixmHmNWegtK5NRwU3xvw8BDyCnX4SomLdo3PZMcGZpDHExSBSWq0ky4vlf25F9hVGHvDci6iG9HFplYLkrf+7m8cNnIC2Mtk6GSt5UszMWEyL+IZwx2f8/2qLFUXrjKSq23rCztqb5hFXpkpTnFmZ0wge+i9CeJ4apecj9TJZQfQ7pw9hJ9SxxwMrXjLYzzLNM5VhSjE21A+nWAbjqOLOw1JhZY6uY5a2GMN1ZuuNqykTSWR1PbhBb2mvmVG2LJf/YYmC8+7g4fyjH60HZSeUxrm+DC3ku0cy6mFPuO/Q/2AicqEdUEqXwbuK0TtVxlMRWTFj92cn6QwOCFt6BEIcRxkkue+cc0wYXBwffPO5W3YZy6gOkTzX9oMPBulKiDaEq55Jl/Tnhh8IvC3MUHduDDMZ0kPteDBHFVQ7Wbchm+VPtEL/eJaCbci73uxPLKgnUIPvw6dCjDgLv5IZA5aGnpDEzil6ssimLSYkVnPknkOZjQoQoD7kxJKmFH5GVGMBeOGIpJixEdOwWZDF14Hh1q0KuajtojSiElxxgiA6zFT7gXGzqm4OcpEPzFYo4OFehVTUcx5xH6oY2QYXHqvRBLnHIPiE4GK5+P9TtsDP8bM6LphmZim8c6YeYg/o7uYsFzH+X8wFcSvBP5DBTYGPh7zGPeyWZim/FtmkhzABuGuGLz3h0tqXhJnQUq34KNg3iPWVZp4+pgcb7SWHMAG0ysdDrX2+W5cSKlkRzvxsZw32OeNx0LOaDxJfZZcxB/R89dnGFZa4kokhq6MGJjqO8xmynIZvDS9nidJvKk8f3UCCGNO448rmOPd/KCOsjs/OkymjogZHA7jGYK0hm89M1nkjeH8Hf0FOKR88qPRXeb+dSO58cf7GO9P3ZB/c6IRPbYBekk6+rPPnFehKztwd5fshCnnHmgmn4fTw5glm/Kjmuu273Np04RXsyhOxqRt9VBPgMkTYyjDNnv6ObithgmVd3vux50NMf6gRxSgt10fMKa7I+2N/lxykrleC13U9uvFMt94rGqRTyYdXCxvYVuGlZ8j96HeKdnnh/jDkb99vx4ldPTUKrQwLtsyI0F+s2SY/QNMWSDsZDp/Y2BlfFTf9xP98d1rNsfToLH9XyfTw2D79RpOObGGLvEetPk+TDVXRm4/h4wNMaue1zqJmWtvfV+mufn/VeK5zzPvbe2kv6Tl9X10lddty+D2w5iT/3nqf889R/9p/+e+o/+03/676n/6D/9p//0n/7Tf/rvqf/ov6f+o//0n/7Tf/pP/+k//af/9J/+03/6T//pP/2n//Sf/tN/+k//6T/9p//0n/7Tf/pP/+k//af/9J/+03/6T//pP/2n//Sf/tN/+k//6T/9p//0n/7Tf/pP/+k//af/9J/+03/6T//pP/2n//Sf/tN/+k//6T/9p//0n/7Tf/pP/+k//af/9J/+03/6T//pP/2n//Sf/tN/+k//6T/9p//0n/7Tf/pP/+k//af/9J/++w4MBw==;" vertex="1" parent="1">
          <mxGeometry x="89.5" y="309.6" width="121" height="70.79" as="geometry" />
        </mxCell>
        <mxCell id="cJpC4bxOb8W68x44Jm_f-17" style="edgeStyle=orthogonalEdgeStyle;rounded=0;orthogonalLoop=1;jettySize=auto;html=1;exitX=1;exitY=0.5;exitDx=0;exitDy=0;entryX=0.5;entryY=0;entryDx=0;entryDy=0;entryPerimeter=0;" edge="1" parent="1" source="cJpC4bxOb8W68x44Jm_f-14" target="cJpC4bxOb8W68x44Jm_f-2">
          <mxGeometry relative="1" as="geometry" />
        </mxCell>
        <mxCell id="cJpC4bxOb8W68x44Jm_f-20" value="request fastApi" style="edgeLabel;html=1;align=center;verticalAlign=middle;resizable=0;points=[];" vertex="1" connectable="0" parent="cJpC4bxOb8W68x44Jm_f-17">
          <mxGeometry x="-0.2773" relative="1" as="geometry">
            <mxPoint x="14" y="-5" as="offset" />
          </mxGeometry>
        </mxCell>
        <mxCell id="cJpC4bxOb8W68x44Jm_f-22" style="edgeStyle=orthogonalEdgeStyle;rounded=0;orthogonalLoop=1;jettySize=auto;html=1;entryX=-0.006;entryY=0.603;entryDx=0;entryDy=0;entryPerimeter=0;exitX=0;exitY=0.474;exitDx=0;exitDy=0;exitPerimeter=0;" edge="1" parent="1" source="cJpC4bxOb8W68x44Jm_f-4" target="cJpC4bxOb8W68x44Jm_f-1">
          <mxGeometry relative="1" as="geometry">
            <mxPoint x="319.22000000000025" y="520.06" as="sourcePoint" />
            <mxPoint x="349.9500000000003" y="772.8500000000001" as="targetPoint" />
            <Array as="points">
              <mxPoint x="330" y="518" />
              <mxPoint x="330" y="780" />
            </Array>
          </mxGeometry>
        </mxCell>
        <mxCell id="cJpC4bxOb8W68x44Jm_f-23" value="&lt;div&gt;Retriever based on&lt;/div&gt;User and query details" style="edgeLabel;html=1;align=center;verticalAlign=middle;resizable=0;points=[];" vertex="1" connectable="0" parent="cJpC4bxOb8W68x44Jm_f-22">
          <mxGeometry x="0.3214" y="1" relative="1" as="geometry">
            <mxPoint x="2" y="14" as="offset" />
          </mxGeometry>
        </mxCell>
        <mxCell id="cJpC4bxOb8W68x44Jm_f-24" style="edgeStyle=orthogonalEdgeStyle;rounded=0;orthogonalLoop=1;jettySize=auto;html=1;entryX=1;entryY=0.583;entryDx=0;entryDy=0;entryPerimeter=0;" edge="1" parent="1" source="cJpC4bxOb8W68x44Jm_f-1" target="cJpC4bxOb8W68x44Jm_f-4">
          <mxGeometry relative="1" as="geometry">
            <Array as="points">
              <mxPoint x="520" y="775" />
              <mxPoint x="520" y="525" />
            </Array>
          </mxGeometry>
        </mxCell>
        <mxCell id="cJpC4bxOb8W68x44Jm_f-25" value="Return Relevant chunks&lt;div&gt;and chat history&lt;/div&gt;" style="edgeLabel;html=1;align=center;verticalAlign=middle;resizable=0;points=[];" vertex="1" connectable="0" parent="cJpC4bxOb8W68x44Jm_f-24">
          <mxGeometry x="-0.262" y="-2" relative="1" as="geometry">
            <mxPoint x="-2" y="10" as="offset" />
          </mxGeometry>
        </mxCell>
        <mxCell id="cJpC4bxOb8W68x44Jm_f-32" value="" style="endArrow=classic;startArrow=classic;html=1;rounded=0;entryX=0.5;entryY=1;entryDx=0;entryDy=0;entryPerimeter=0;" edge="1" parent="1" source="cJpC4bxOb8W68x44Jm_f-4" target="cJpC4bxOb8W68x44Jm_f-2">
          <mxGeometry width="50" height="50" relative="1" as="geometry">
            <mxPoint x="630" y="690" as="sourcePoint" />
            <mxPoint x="680" y="640" as="targetPoint" />
          </mxGeometry>
        </mxCell>
        <mxCell id="cJpC4bxOb8W68x44Jm_f-33" value="" style="group" vertex="1" connectable="0" parent="1">
          <mxGeometry x="314" y="910" width="250" height="171" as="geometry" />
        </mxCell>
        <mxCell id="cJpC4bxOb8W68x44Jm_f-27" value="" style="rounded=1;whiteSpace=wrap;html=1;" vertex="1" parent="cJpC4bxOb8W68x44Jm_f-33">
          <mxGeometry width="240" height="150" as="geometry" />
        </mxCell>
        <mxCell id="cJpC4bxOb8W68x44Jm_f-28" value="" style="image;sketch=0;aspect=fixed;html=1;points=[];align=center;fontSize=12;image=img/lib/mscae/Docker.svg;" vertex="1" parent="cJpC4bxOb8W68x44Jm_f-33">
          <mxGeometry x="200" y="130" width="50" height="41" as="geometry" />
        </mxCell>
        <mxCell id="cJpC4bxOb8W68x44Jm_f-30" value="A retriever engine&#xa;Capable of perform search&#xa;based on vectors similarity" style="shape=image;verticalLabelPosition=bottom;labelBackgroundColor=default;verticalAlign=top;aspect=fixed;imageAspect=0;image=data:image/png,iVBORw0KGgoAAAANSUhEUgAAAzgAAAJECAIAAABVeRbbAAAgAElEQVR4AezBCY8dV37m6d85EXGX3JPJXaI2SiqpNrlcbRvtnsYMeoAB5gPMZx1gBmigMW3DtaskkRLXTDIzmfty9xsR55z/qFDVdtsWxeQiZiTzfR5nZoiIiIhI83hEREREpJE8IiIiItJIHhERERFpJI+IiIiINJJHRERERBrJIyIiIiKN5BERERGRRvKIiIiISCN5RERERKSRPCIiIiLSSB4RERERaSSPiIiIiDSSR0REREQaySMiIiIijeQRERERkUbyiIiIiEgjeURERESkkTwiIiIi0kgeEREREWkkj4iIiIg0kkdEREREGskjIiIiIo3kEREREZFG8oiIiIhII3lEREREpJE8IiIiItJIHhERERFpJI+IiIiINJJHRERERBrJIyIiIiKN5BERERGRRvKIiIiISCN5RERERKSRPCIiIiLSSB4RERERaSSPiIiIiDSSR0REREQaySMiIiIijeQRERERkUbyiIiIiEgjeURERESkkTwiIiIi0kgeEREREWkkj4iIiIg0kkdEREREGskjIiIiIo3kEREREZFG8oiIiIhII3lEREREpJE8IiIiItJIHhERERFpJI+IiIiINJJHRERERBopR0ROmxlmRCNGQiQayUiJZCQjGikREzHxz5KREsZ3cw7v8A7ncA4P3uEczpM7nMM78ozM4x2ZJ8/wDueQZ7NEjMRAjKREiqSEJZJhiZRICTPMwDAjRYw/cZBBy2hDAY6/cB6X8RcZzoEDDx6XgQePy3AZeMhwGThE5HzIEZHTlowqMKkYTOmNGJXUgXHNtKYKTGpGJcMpk5o/M2NaM6lJxr/nIPe0clo5RUYro5XTymlltApmW3QKWjkLXWY7tAvm2ix06RTkGfJsITAZMewzGjCZUI6pJlQVdSBUVFOmE6qKGPhWXVOOiMa3HMwlrgeuBy5ECuPP3Cx+nm+5HDeDK3AZroOfwc3i2vgW2SJuFt/CzeLncBkicj7kiMhrYUZIlDWTirKmDExrqkBZM62Z1kwqhlP6E8YldWRSMa2pIpOaccWoYlLxZ8mYBqY1Znyn3NPKKHJaGUVGK6fIaGW0C2YKOgWtnPkOs21aBTNtFrrMFHQK2gWtgnZBK6PwtAvaLboFmeccsURKTCdUJaGmLilLqpK6IgSqKdMxowHjIZMJ1YRySl0RakJNWVJOqCtiwCDWTMck41vOWEqkkk5Jp6KV+DM3h58HBwV+BldAhu/gZ2EG18a38fP4OVyBn8XN4zu4Fq7At3FdfBva+BbkOA8OEXlT5IjID8CMZJhhRjTMCJFJxeGI3R4HAw7HHA45HHE4ZDBlGomJmIiJlEiGGclIRoKUiEYy/sJIRjKepk6EhA84h3M4cA7vcI7M4R3OkTm8xzu8J/e0c+baXJhlZZblOeY7zHW4MMfFeS7N023hHN7hHc7hHc7xhjDDDEuYYYlkhIqq4nCX3hHjIb1Djg/oHTLsMRoRKiwRIymSEilhCTPMMCMlLGGGGd8yI0X+mRlmkCBC4s9sSJrwJ57kwYHDecjAg8c5yCDDOchwbfxFshX8PNkK+WWyFbJlsiX8LL4FGTjw4HEOHCJyZuWIyA9gVNKfMJrSn3I0ojdmVDIqGUzojxlMGdUMS4ZThiXTmmCY8aqYYZCME3KQedo5c23m2sy1aRd0C+bazHVZ7LI0w8IMS10WZ1josjjDfJc3QYxUU8YjRn1GA0YDhn0mIyYjRgPGI6op4xHjAeMR0wnVlBR5xSIW+TeMp8vwO4RFfBc3j18im8fN4mfJ5vGL+Dn8HNkyfoFsBtfBFeAQkTMoR0ReWkrUiToQIlWgjuwN2OlxMGSvz8YhO32Ox4wq6kgykmFGAjOSgWGcJoOYGNdMaw5GeAcOB97hHK2MlVmuLXJ1kSuLXF3iyiKX5skzipx2Tisjz/Ae72i6lIiBUFNXhJrphNGA4wMO9zja43CXg12GPSYjkmEJA0uYYQkzzDh9kdSHIcmBBwceHM7jF/FXyS6SXaJ42/IrLlsiW8LPmiscBa6Fy3E5InJG5IjIy0mJac3BkO1j9gfs9tg84mhEb0IZmNQMS0YVZSAkzGgmA4wIGP/GxDEN9CasH9Jt0W0x02K2xaUFri3x9gWuLbE8x3ybIsc5Gq0qOd7ncI/9HfZ3ON5nNGA6ppxQTpmOKSfUNaGm0RIkjH/FINW4MXELN0t127lZfJdsieyiyy5SXCG/QnaJbBkROSNyROQ5mRGNcclwwrhiUNIbsdtj+5idPls9No4YlpSRN4MZ05ppzf6If+Y91xZ4a4n3Vri2zKV5VuZZnmGuQ7dNt6DI8J7TFwLVlHLCZMxkRP+Iw132d9jbYm+L3iHTCTHwhphiUyL/kxy/THaZ/ArVdfJrtK6RXcV18F3zs853cS3wiEgjOTNDRE7ADAMz6si04tE+D3Z5fMDGAds9BlOqSB0pI1UgGma82doZRU43p8iZbXF1gXcvcvMyb1/g8hKLXbotnMM7nOO1MsMMMywxGnCwy94Tth6zscbBLtMRdUVdEypCIEVeDwdLiQ9LPppyvaSVeB0c5LgWroXr4Dq4ZfIV8mvkN2h9QPEW2TKuhfPgwCEiTZIjIieQjFHJ0YidHvsDDgZsHfPkiL0BByOOp1SB86aMlJFhybfyjMMxe0M2DlmZY2mOS/NcXuDSPJfmWZqjyHhN6orpmEGP3iGHexzt0z+id8DxAQe7jAbEgBnnhUGN1diIP3M7pHnCE7JHVA8prpBfIb9CdpFsCT+Da4FDRJrBmRki8l0MUqIKVIFpzV6fRwfc3mR1lydHDEvGgWikRDLEO7wj83hH4bm+yLsrfHSVj67y3mVm2xQZrZw8wztevRQJgbpk2Odwj90nbK6yepeDHeqKFIkRSyQD41Q4WEp8WPLRlOslrcTpcJDhHGRQ4BfIrtH6hPbHFO+QXSRbxLVxOS4Dj4icqhwR+S7JCJH+mEcHrO7yaJ+9IUdjDgb0poxL6kg05J8lIxkh8a3SsdGjP2XjiK+ecG2JS/NcX+LmFS4v0G3hHc7xCpjxrRQZ9jnYYeMhW+sc7DDoMerTP2Y6JkbkXxgEDKihJFbYlNSjvodfIH+L4l1a71Jcx1/Ad/gTh4ickhwR+Z+YUSemJYMpxyO2jrmzxddb3NulP6GOGPJsyRiWDEu2+rQPWOhwZZ53Vzgc8t4lLi0w32GmTacg87wgM+qK8ZDxkNGQo3121lm9w5PH9A4INfJsBiWpJB0Q+JPsbYqbhB/Rep/8GtkKfp5sDtcCh4i8djkiAmYkIyaqmt6EJ0fc3+HBDo8PORjSmzIqCQlDno9BHehNmNbsDrizzVvLfHiF9y/x9grXFpnrkGd4h3OciBmWiIGq4viAzVUeP2RzjWGfyZDxkOmEGJEXkw6opoR1pgtklyk+oP0prffJL+MKyHAZIvIa5YgITAP9Mds9to/Z6bF1zPoBm8fsDSkDyZAXFo0YKAP9KbsDDoYcDHl8wNvL3Fjh7QtcXWJplpkWz2ZGqBn1Odxjf4fdTbYes73B7hOqkhSRl2QTbELahxy/SNgl7FOvU9wgv0Z+iWwRVyAir4szM0TOJQMzqsC4ZHfA5gG3n3B3m61j+lPKQBUJETMMeWVyTyujyJlvc32JDy/z47d5Z4XLi3QL2gW5xzn+FTMwqpLphGGf3Sc8vsejB+w9YdinKgkVKdFwDpYSH5Z8NOV6SSvRaA4yXBs3S3aB/Aatn9D+mNY7+AVcB9fCZYjIDyxH5LwyY1qzdcztDe7v8PiA7T4HAwYlVUR+ICEREtSMKoYlB0MeHXDjAu9d5OZV3r7A0gytnH/FEnXN1jpPHvHkEbtPONzl6IDxgBgwQ149g4AFbIINSMfEA+r7FDcobtJ6j+It3Bwi8gPLETlnDGJkXHE0ZLfPvR1+v8baPjsD6khMmCGvQYj0pwxLNns8OuTRPrsDPrrCOxe5OM98hyLHh4rxkP4xx/usP2D9AZuP6B1SVaRAMjDkh5WwKbEiHRHWqC+TPyHs0r5Jfhm/RDaL64BDRH4AOSLnjCUmlT3ed398zB/XWdvjYMSkpgoY8lolIxkhsdOnP2H9kK82+Nnb/OwGH11leY7WcOA2HnDvFve+ZNBn1KOcEmrMkNfHIGIRq7EJ8ZD6rk0vU3zsOj+n9SGttxCRH0aOyLmREjs9to7YPHKre9zb5sE+ByNiwpDTVEfqyLBkWFHVNuqX483jn7SfXB09zrdX2VzlySPqQArIaUrYBJuSei7tEHukY+p1wrsUH5BdxuU4j4i8Ojki54CBGVXg7ha/us/n62weMw2EhDRHMnoTu7NZH633RvHeUvyHperrmcmhTzVmSFMYlKSSdEx9G79M8QHz/xczXdwctMAhIq9IjsgbzWBS0Rtxd4evN3m4y+MD9oZMAjEhDeHAk2bT5Fra/7R+cDOsvR/W302P27HvYwBDmihBhfUIjxj931T3aL1H613ya/h5XA4OEXk5OSJvKDNCZFKx02dtn1/d5x/uM5gyqZFGcdC16UIaXUt7H9cP/qb8w4/q+5fifmE10nw2JT5hsk31FfVnxM9oT8mvky3iO+ARkZeQI/LGMUiJKnA45P4Otzf5cp3NY3oTQkKaw2GZpRbhg7D5cXjw0/qbm/WjS2FvIfUzi8hZYqQe1W3SEfVjWp/S/ojWu7guLgOHiLyQHJE3Toj0J2wd8WCXrze5s8W9PSY10igZKbdwKfXei09+VN/7tPrmw/DwStjNLXoScsYYNiZukA6JB8QjUg+bkF8nW8HnkCMizy9H5E1hRjLKmqMxa/t88Zgv19k8ojehCkhzOKxlYdYmy6n/aXjwt+Xv368fXY/b3TQuLDjk7DJsQnxC6hH3Cbt0fmLtT122hJ/HZeARkeeRI/KmSMa4ZG2Pu9t8/YS7O2weMywJEWmU3OKVdPB+WP8kPPi4fnCzenghHs3aGAw52wwiNsbGhAobkg5d2KL9Y4oPyJdxbUTkeeSInH0pUQX2h2we8uU6tza5v8vBiJBIhjRHRpqx8mI8+jTc/3l166fVN9fC1qxNMgtgyJskDbFV0jH1BnFAe0z7JvklfBcyRORkckTOvjJwMOQ3D/mn+2wcsTtgMKWOSKN4Uov6etz5rPz6r+svP6nurMTDjk083zLkTROxSDwgjZgMCRukv6P7GcW7uAwROZkckbOsChyNeHLE/W1+v8YX6wxKpgEzpDkcVli4kPofxcef1Pc+Ke9+GFavxJ3cgsOQN1mNBcIUm4AnjWkf0XqXbAnXBo+IfK8ckTPLjFHJvW1+t8pvHrLdp1+SEoY0imXEWZu8Fzf+j/F//Vl5a9mOO1bmFpBzwaAm7lD+I/UDqvs2+7/S+ZnLVnAeEfleOSJnU4hsHnHnCb99yJ0tNo8Z18SENIrDltPw7bj9o/DwJ/U3P67vXEr7Las9CTlfImmIJSqPy1wa0vmM/DJ+Fhwi8hQ5ImdNMsrA0ZCv1vnVff7wmK0+hjROTppN0xtx+7Pqq78rf/vj6s6sjTOLyDmVsCFh1aUjYg+XQyS/iuvickTku+SInCkhMiq5v81vHvL1E9YOOJpgSOM4bCGNf1p/84vq1l9VX70VNmds6i0h510g9am/oT+ks0rnr2ndpLgKDhH5d3JEzgiDGDke82CH363xT/fZOGJQkgxpmpx0NR7djI/+Q/nHn1e3btarXRsj8icJpsRN4iY2JFVQm/MuW8K1EZF/LUfkLDAjJPpjHuzwX2/z5QZbPcYVyZBGcVjLwmIa/1V965fl739c3b0Wt9s2ReTfC4+wKVTOauv8xGWXcTk4ROR/yBE5C6rI0ZDbG/xujT+us3nMtCYZ0iielBNvxs3Pqm9+Xn35o+ru5bTfTWNEvpMNiSVlGyudVbQ/oXgb10FE/occkWZLiWnNwZAHu/zDPX67ysGYacAMaQ6HeWzOJhfT0S+rL/63yT+8FTaX03FmEZHvYYHwkNQnlaQJePLL+BnwiAjkiDRbGXh8wK0Nfr/GN1vsDakTZkijeKybyvfjxn8uf/3z8tZ79dqcjXKrEXkGw6akXao/YgPiAd2/pf0JvgMekXMvR6SpzBiVbB3z+Rq/W+X2Fodj6oghDeIgI86n8bvxyS+rL/928tsbYWPWxp6EyAlZRXyCjUkDyHA5xTtkC+AROd9yRBrJjCqwccgfH/Pf7nBvh1FFHTGkWTxpNk1vxK3/pfz1f5j+4e24OWMTT0Lk+SRSn7DGxJHGzP0X3E18GzJEzrEckUYaTtk+5ncP+c1DHu5xNEEaKCPNp/GH4fEvqy/+qvzqnbAxm0YZCZEXEUh9who4/AxW0vqIbB48IudVjkjDpEQV2Tziy8f8030+36CMSAPlpNk0eSdu/aL+8u+nv74RNubSMCMh8uISqUd4yCRhJa6Du4GfgwyRcylHpGHGFU+O+N1D/vtdVg8Y10gzzaTpe/HJf57+6hfVF2+Hzdk08iREXopBJA0Ia0wz8Njf0v4EPwMekfMnR6QxYmJasXHI54/43SpfPmEakAbKiZ1Uf5jWP6tu/XX5+Qf16oxNMiIir0Yg9agfQMIVuDatd/Dz4BE5Z3JEGqMKbB7xhzX+39s82qcMmCEN1E7VBTv6+/I3/3Hy62the9YmjoTIq5SgT1hl4kgT5v93WjdxbXCInCc5Ig1gRhXZ6/PFI377kEf79CYY0jielJE+Tuu/LP/42fSrG/V6x0pPROSVs4gNqNcgJ1vEEu2PcB1EzpMckQaIif6YtX1+s8Yf1umXGNJEbeqFNPqr6tb/Ofp/VuLRjE3AEPmhBOyY8IAJkMgvka3gCkTOjRyR0xYSvTG3Nvj/7nBvm1GFGdJADm7Evf80/c3flH+4EvdaVjsMkR9WxPrUa7h5siU6P6f1AThEzocckVMVEoMJq3v8YY3frrHTJyakgVoW5mz8Yb32n6b/9F691rUJIq+HVdgOdYtxjmuRLePncC1EzoEckdOTjN6Yh7v8t6/5w2OOxkTDkGZx4EnLafDT+u4vqi+uh61ZGyHymqUDqi/xC/g27U/Jr4IHh8gbLUfklKREGbi3zW9X+Xydx4dMa5IhTZMRV2L/o7D219UXn1Z3llKvZTUir5mNiVOqWziPa+M6+AVcgcgbLUfklExr9gf8dpX/fpedPmWNGdI0GWk+TT6I67+svvisunUjbBRWIXI6jLCGTciWcR1aN8mWwCPy5soROSW7PW5tcm+LzSPKQDSkaRw2Y+X1uPOT6s5fVV+9FTZn09iREDkdho2I20w/xxX4OVwb3wWPyBsqR+S1K2sGU+5u8+sHrB8xDZghTeOwFuFSOvxxuPvT+ut3wuO5NHQkRE6XldT3cS2yi7g2xXVcGxwib6IckdfueMzXm/zmIb9epV+SDGkgh82m8btx8+/KP/yovjeXhp6EyOlLWI/6HuMurkW2QFZAhsibKEfkNUqJMrB5xK8fcPsJeyPMkAbypHkbfVbf/Zv685thdTkeZRYRaQTDatIR9T2mK/glOp+QLYNH5I2TI/IahUR/wtoe//iAJz3MkGbKCRdS7z+Vv/qPk18tp15hNSINYtiE+ITp78CTLeAXcB6RN06OyGthRhXY7fH7NX7zkOMJMSHNlJE+CFufVbfeqzeWUr+wGpEGsoq0S32f8jauS3ED30bkzZIj8lokY1Ty+IBfP+TzdSYV0kw5ccamH9aPfjH949Ww1bEpIg0VSYeENaZf4efJlvAZ5Ii8QXJEfnhmlDWPD/hyg/VDhiXRkAZy2EocfBDWflbf+km4s2w9RBouHVN9jivIL8IH5BcReYPkiPzAzKgC+wPub3N7k+0+0xozpGk8qbB4Je39rLr1cXX/WthxJEQaziaENdws06u4FvkSZOAQeSPkiPzAknE85t42tzZ4uEdvSjKkgQqLy6n/ftz4RXX7ethyGCJnRdxh/I/4eYp3cLP4NiJvBI/IDykZ05qdHrc2uL/L0YQQkWaatemH8dHH9b13wsZCGoAhclakPuEh5T3Ku6QeIm+KHJEfUozsD1jd5c42W33qiDSQx9pWXUkHP6u++VF5bzENCmpEzpKa1Kd+yPjX+A7ZIq4Aj8gZlyPyQyoDD3b4apPNY4ZTUkIaKLd4JR58VD38afXN++FR20qHIXKWGETCKjal9Tb5FbILuDYiZ1yOyA/DjFHJ5iG3N/lmi+MxIWFI42SkORu/H9Z/Wn99I2wupr5D5GxKx1jJ9DbZMu2fkF8Ej8hZliPywzBjt8ftTb7a4OEeVcSQxnHQsno59T8OD39a3V6ORw5D5KxK2JTyD7ic7ArZEq4Ah8iZ5RH5AcTIsOThHr9fY+uYaSAZ0kAOu5SOfxLufhhWL8X9tpWInG2JtEP9kOoBYRurETnLPCI/gDKwP+DuNl9scjhGmslhucUrcf9n5e336kfzNswIiJxtRhoSn1B9Y/U6NgVD5MzyiPwAjsbc2mR1j6MRZUSaqbCwnHo34ubH9cPLcT+ziMibIJGOKO+66qHFY6wGQ+RsyhF5pcwIif0+Xz3m8T7jGjOkmWZt+nFY+6S+fz1uzaUhIm8II40Jq1TXXPEebob8AjhEzqAckVcqJAYTNo74coMnfcyQZvKki+n478vf/XX5xWwaIfJGidiQ6h5+mWyebA7XQeQM8oi8UtOatX3ub7M3ZFwhzZRbvBiP3w0bH9SrV8NWYTUibxTDpsQtqjvU68QeFhA5gzwir05M9Mbc3uDeNtOANFaLcCNuf1Q/WEmHHas8CZE3TSQdEzepHhO2sRKRM8gj8oqkRH/C5iG3N3mwTxmQxmpZ/UFY/2n1zVI8diRE3kyR1Ke6T3mfNAZD5KzxiLwideLJEbc3ebDP/pCYkAZy0LFqJR29FzfeD4/m0giRN5hNCKtU94iHWAWGyJniEXkVzChr7m7x64fsDUiGNJMjXUzHH4XVa+HJfBrmBETeYFYRtwmPqNeJR1hC5EzxiLwKk4qtI1b3eHTAuEIay2OX0+GPq7vXw3bbKoch8iaL2IiwQ3mHehMiImeKR+SlmXE04u426wf0p4SINFNG6qbyrbj3aX3vctj1JETOg3RM+SXVKjbBEiJnh0fkpRnsD/hqnY0j6oghDdVJ9Y24dSOsXwn7szaGhMh5YAPCQ+o1wi42QeTs8Ii8nJSYVuz2ub/L3pBkSGPN2eTjsPp+vTZng5zgEDkfrCTuUD+mekg8RuTs8Ii8nCqyN2Crx8GIUU0ypLHmGf+kuvtR/aBrE0TOEYNE3GLyOWEHkbPDI/JyxiUPdljdZViSEtJMnnQx9t4JW++EJyvxILeAyHkT96juEDZJPSwgchZ4RF6CwXDK7U3u7jCpkcbKLd6IWzfruxfTftemnoTIeZOOCatUj6m3sRKRs8Aj8qLMKGuORqwfstMnRKSxCksfhsefVbcW47HDEDmPIjamesj0FmmAyFngEXlRMdEbs9Vjq8fRmJCQZsqJc0zejRsfV/fmbIjI+VURVilvEY8hgiHSbB6RF1UGVne5tU5vjDTZQhq9FbZW4uG8jTOLiJxbFok7hHXCDrGPJUSazSPyQmJiVLK2zzdbDKZIky2n/nvx0Uo6aFnlSYicX4b1ifvU28QjCIg0m0fk+ZlRBo5GPD7g0SGjCmkmh3nSpXT4o+rBhXiIiHwrTajXqbewCpFm84g8P4NJyX6fwyHDkpCQZspIXSuvxb1P6/sr8RAR+ZYNqO9RPyKNISHSYB6R52dGf8zGAUdjkiGN1bL6QupdSXtvxa25NEJEvmVjwir1BrFHKsEQaSqPyPMz42DEnW12ByRDGqtr5ZWweyEettLUExGRPwmkY+IBYY80AkOkqTwizyklxhV7A9YPOR5jhjTWvI1+FB6+FZ7kRETkLwyriftUq8RDLCHSVB6R5xQSxyP2euwOGJYkQxprOQ1+Ud36oFrLLSAi/yIR96juEPYgIdJUHpHnNKlY3ePRAeOKZEgzZaT5NF5Jx5fiwYINHIaI/AsjHRIeE4+wGhIijeQReU6Tkgc7PN6nDEhj5RaWU+9iPFhM/baVDkNE/oVhPeJj4gFpjEVEGskj8jwMysBOn70RdUQaa8bKm+Hxzfph1yYOEfkuFgjb1GukESKN5BE5MYOypj9hb8DxhGBIY7Wp34o7N8JGJ03BEJF/zwJhm+oRNkakkTwiJ2aJwyEbRxwNmVSYIc3ksLZVK3Z8MR22qBGR7xaIu9SbpDEijeQRObFk7A1YP2RYEhJmSAM5rG3VfBoux6PFOMitRkS+kwXiDmGDOMIiGCIN4xE5sZjYH7Cxz7hGGstjszZZSYdLqd+1qSMhIt8tYofEbeIRaYwlRBrGI3Ji0TgY8uSYaY00VmZpMQ0vx4PZNMqIDhF5GsNq0oCwQzyAgEjDeEROJibKmsMhuwOmAWksT1pMg6txZ84GjoSIPENJ3CbsYjUiDZMjcjJVYDDhYMDekJCQxspIF6z/dtxajANPQkS+n1WEXeIBFhBpmByRkxmX7PToj6ki0lgea1NdsP61uDdnQ2+GiHy/NCVsEHewGpGG8YiczGDKkyMGU6TJPLGTpkuptxIPZ9LYkRCRZ5gQNghbWAmGSJN4RE6mP2Ftn+Mp0lgO66T6cjpcisctqx2GiDyTRWxE7Fk8xsZgiDSGR+RkBhM2DhlMkcZy0LXyUjhYjMcZARE5kYSVpIGLh6QxJEQawyNyAmaMK/aHjCqkyTpUl9LBUjzOLCAiJ2WkMWGHOMASIo2RI/IsMTKp6Y05HDGtkcZyWMvqlXS8aIOMiIiclGET4iFpBIZIY3hEnqWKHI84GtKfUkWkydrUy6m3kAaZRUTk5GxKPMRGYIg0hkfkWepIf8KwJCTMkMZy0LHqUjpaSr3cIiJyUkYaEnaIA0iINEaOyLPUgeMRoxIzpMGsbdW8jZZSfzaNHIaInJwNiTukIRZxBg6RBvCIPEsZ2OlxNCIZ0lgeu5COV/+MlFwAACAASURBVOJ+y6YOQ0Seg2FTUp80xCosIdIMHpFnKQN7Q3oTkiGN5bHl1L8QDwurEZHnFrEJqU/sQY1IM3hEnqUKHI7oTzFDGstjC2m4mHq51YjIi4jEvsUDrESkGTwiz1IFDob0pyRDGsths2k8n4a5BUTkBVgijV0aYDUizZAj8nRmhMS44njMqMSQ5nLYLJOFOMwJiMiLSNiEOMRqMHCInDaPyNPFxHBKb8RwShkxQxrLwWIaLFuvsBoReRGJNCQdYzUizeARebpkTCvGJWUkGdJkDluw0XI6KqxGRF5EJA2Ix1iFSDN4RJ4uGVWkipiBIU3mzeZttJx6LasRkRcRsD7xgFQi0gwekadLieGU/oQQkSbLia1UdW3attITEZEXYEYakYYQEGkGj8jTxcRgQm9MnTCkuTLCDOOWVYXVDkNEXkTERqQhVmMJkQbwiDxdMiYV44qUkCabS5OL6bCdpojIS6mwMWmITcAQOW0ekaeLiUnNuCQlHNJcXSsX46CgQkRenGEBq7CJpRISIqfNI/J0yZjUjGuiYUhz5RY7Ns0tIiIvy0iVswozRE6bR+TpDOpAFUiGNFmLes6GmQVE5CVZIA1JI0iInDaPyNMlowqUgWRIk7WtmrNxYTUi8rICcUAaYQmR0+YRebqUGFeMSqIhTVYQummaERGRl2QRK6EEQ+S0eUSeLhmTilFJjEiTFRZmbJxbQERelmEVVoMhcto8Ik+XEuOKUUU0pMk6Vi+kQWE1IvKyEtRYDYbIafOIPJ1BSsSEGdJkHcqFNCysQkRekkXSFCvBEDltHpHvYciZ0LJqwQYtakTkZSVsjE3AEDltOSLfxYwqMqooI4aIyLliiDSDR+S7GMRIVRMTZkjDeSMjOQwReVkJIpYQaQCPyFMYGGBI8+XEdiozi4jIy0qkmlSbGSKnzSPyFCFR1oSENF9GbFuZWUREXlbEKqwGQ+S0eUS+ixl1YFITIoY0XWaxsOBJiMjLMggQwRA5bR6Rp0hGSpiBIQ3nILOEiLwaCcwhcvo8IiIiItJIHhERERFpJI+IiIiINJJHREReG4eIyMl5RETkNXCQG61EYThERE7CIyIir4czCiNLiIicjEfkmRwi8koZIiIn4BF5Cu/IM7zHISIiIqfAI/JdHOSeIiNziIicJw4cIs3gEflOjsxTZHiPiMh54nA5ZOAQOW0ekafIPHmGd4jIq+HAGw5pNo9r4QpEGsAj8nQOcIjIq+GhZeQJhzSYx7XwBc4hcto8It/FQeYpcjKHc4jIK+Aggwwc0mAeWrgCHCKnzSPyXZyjyJlp0cpxDhF5BRw4cEizOVyBK8Ahcto8Ik/hHVlGkVN4nENEXpaHwsgMZ0hjOY8rIEekATwiT+eg8BQZ3iEiL8VBZhRGbjiHNJfHtXEtcIicNo/I0zlHntHK8YjIS3OQQwYY0lw5bgY3Aw6R0+YReTrvaBd0C7xHRF6KAw+54cEhzeUy/Ay+i/OInDaPyNNlntkWc20yj4i8OAeZURi54RPSaBluBt8Fh8hp84g8nXd0CjoF3iEiL85By2glvOGQRnMe38a1wSNy2jwiT+cc3RYzLXKPQ0RelMNyo2U4Q5rO49u4Ahwip80j8nSZY6bFXJvMIyIvw+VGZnik8TLcDK6L84icNo/I03lPt8VMG+8xRORFOaOAluGQZstwBa6Db4ND5LR5RJ7OO2ZazLbIHA4ReVEeuoluIktIc3lcFzeDa0OOSAN4RJ4u88x1WOiSZ4jIi3PQNjoJb0hzedw8fgHfwnlwiJw2j8jTZZ65LvMz5B4cIvKCHLSNdsIjzeUy/ALZCq6NSDN4RJ4u88y0mGuTeUTkxXmjk+hGfEKaK8cvkC3jCkSawSPydN7RKei26BbkHhF5QQ46ia6RIQ3m8F38PK5ApBk8Ik/nHEVGt818l24L5xCRF+FhBmaMDGkwj+uSzZorEGkGj8j3co52zsosC228Q0SeWwYto5VoJRzSXM7jZ/GLzhXgEGkAj8iztHIuzLLQwTtE5LkVRjfRMrKEM6S5Mtwc2RKuhUgzeESepZVzYZb5Dg4ReU4OWsZsIk9I03myOfwiroVIM3hEnqXlWZljvoNziMhz6xhzkcKQRitwM/g5snlcjkgzeESepVWwPMdCF+8QkefjoG3MGbkhzeVws2SXyBZwLfCININH5FnaOZcXWJzBO0TkuXUS84FWQprMd8ku4udxOThEmsEj8iytgovzLM9S5HiHiDyfbmIpUiSkydwM+UX8HDhEGsMj8iy5Z6bNQpcLM3RyROQ5OJiBpZqWIc3l8fPk1/AL4BFpDI/IszhHnjHf5eoCc21E5KQ8FEY3MZvIE9Jkbob8CtkCeEQawyNyAg7mO1xfYq6NiJxUYSxEOgkHDmk038FfwM/iHCKN4RE5mbk215eYayMiJ9U2liLdiDRajl8kWyZbxHXAIdIYHpGTmetwbZn5DiJyUoWxGOkmHNJcro2/THaZbA7XAodIY3hETmauw/Ul5tqIyEm1jKVENyFN5trkV8gu4trgEGkSj8jJzLS5uMjiLJ0c7xGR7+PAQ8dYCnQC0mSuTXaV7BIUiDSMR+RkMs9Mi0vzXF+imyMi38dBkZgzlgIzEWdIY7k2xVsUV3AFIg3jETkZ7yhyLi3w9hLdAhH5Ppkxk5iNdBM50lQOMvws+VWyS7gckYbxiJxY5ri8wDsrzLQQke+TwXxiLuENaS6H7+IXyS+RLeFyRBrGI3JimefaEjevMNNCRL5PbiwnFmsyQxrL5fgr5Dfw87gCHCIN4xE5Me+4tMA7F1noUmQ4h4h8t8JYjixGMqTBcvKrFDfwXUQaySNyco5WznyHq4tcnCX3iMh3yIyOsRxZCGSGNJYryC6Tv43rItJIHpETc5B5ZlpcX+LyPK0MEfm3HLSNucRcYibiDGmoHDdHdpXiLfwMIo3kEXlO7YK3LnB1kSJDRP4tD3PGcqSVkOZyuBmyS+TXyK/iOog0kkfkOXUKbqxwfZkiQ0T+rcxYiKzUtCPSXA4/T3aFbBk/g8sQaSSPyHNqFVxbtqtLzLXJPSLyLxzksBBZCbQj0lwOv0jxFvkiOESayiPynDLPbNtdmOXyAnMdvENE/sJDO7FgLAZahjSXwy9TvE+2DB6RpvKIPCcHhefiHDcvc2kW7xCRv2gbC4n5QDeRGdJQHtclu0jxNtkSziPSVB6R5+c9lxb56dtcW8J7ROQvOomLgfmIN6SxXI5fIrtEfhU3Dw6RpvKIPD8HC11urHBxnk6Od4gIDmaMy4G5iEOay83T+pTWe/g5XIZIg3lEnp9zzLa5vMiFObotvEdEcDBjdrFmvsYb0lh+gdaPad3EtxFpNo/Ii2pl3LjAJ1dYbCNy3hXGxcjF2s1GcnBIQ7kubpH8KtkyZIg0m0fkRbUy3rnAJ9dYmsU7RM61lrESuFjTSWSGNJTHL5BdIr9k2SLkiDSbR+RF5TnXL/DxNS7N0ynwDpFzykHLuFizHMgNaSxXkN+gfZP8gnMdnEOk2TwiLyrzLM1wfZkbF7g4R54hch45yI0Z40JkMZAZ0lwF+Tu0PyVbxuXgEGk2j8iLcpB55rvcvMx7K7RzRM4jDzOJ5chipJvwhjSTa+EXab1P60f4WUTOAo/IS3COuTYfXeX9i3RyRP5/9uC0ua7rsPP1b609nXnAwQwQ4CxSpAZKsmN30lalXenKF+jq96nK9+s3qe7YrqTdbtmySUkWKVLiPADEQEwHw8E5++xhXQe3dVu6sRJRIqkN4P88x5F1NHPGEioZnsMgBWU7BOcIZvE6mBCRw8Ai8v2UQmZHmBtltEY5wBhEjhEDAYxkTCSUMqTIvElKb+JPYyOwiBwGFpHvx7c0yky3OTPOaA1rEDlGPCjndFLGEiKHFJk/Qelt/AkwiBwSFpHvxxgCj4kGl2aYaeJbRI4LA5Wc8ZR2RjnHc0gxmSr+SYKT+DPYOiKHh0Xk+zOMNnjjBLNtAotF5HgwUM+ZGdJKsA4pLNskvEh4Cq+JCRA5PCwi35uByGekxokxTo1SjRA5+gxEjlbGeEotwyDFZVtEbxKcxoRgEDk8LCIvgu/RKHNylPOTNMsYg8gR50E1YySnk1DJMA4pIg9TxZsgeo1gBuMhcqhYRF6QwGN+lDfnmGxQ9jEGkSPLQOSYThmL8R1SWKZMcIbwNbxRTBksIoeKReQF8SyjdU6Pc2qM8TqBReRoMhA5mhkzKaMJQY4UlikTnCE6j9fC+IgcNj4iL4ohCujUeH2GrR4b+wwzRI4gA42cqYTxhGaKhxSSwfh4LcIzhKexFUQOIYvIC2LAGuolzk9xbpJ6iGcROYI8GE+Zj2kmBA7jkCLysVMEFwlO4Y1iAkQOIYvICxUFzI5wepypJvUIkaPGg3LOeMb0kFKGFJTFVAhOUXqLYBZbAYvIIeQj8kJZSyVkqs3bc8QZ2wOcQ+ToqOSMpbRSKhmeQwoqwBshOE10CX8C4yNyOFlEXigD1jJW5+15zo7TLhN6iBwFBnxoZZwY0kzxHQYpJIOt458iPEMwha2CQeRwsoi8BM0KF2e4MM18h1qEyFHgQSlnNHMnYpoJUlgmwHYILxOexJQQOcx8RF6CwKNR4ewEz3bYi9ncR+TQixwTKROJaadEOVJQFm+W6AKl1wimMSEih5lF5OWwhhMd3jnJbJtahGcROawM+NDIODFkYkgpx3NIEfmYMsE5Sm8SnsIbwXiIHGYWkZfDGBplTnS4PMtrE1RDRA4rD5oZkwkzCe0EzyHFZCrYccKLRJed1wYPDCKHmY/ISxP6jNS4NMPegO4+g5QkwzlEDhMLJcdYylRCJ6GcY5CC8sYJzhGddf4JY0qIHH4+Ii9TKeC1KQYJj9bZHtDdJ3WIHBoGPEctYyplakiUY5BCMmDw56j8lOCEsRWMReTws4i8TNZQKzHX4c0TnOwQ+ogcJhbqjomMsYR6ip8jxWSb+OcJL1C65PxRjAcGkcPPR+QlM4ZOnSvzbOzxtMswJc0ROQQMBI6RlJmYdkLkMEjxGLDYUUpvUHqd4LQxHiJHhUXkJTOGUsBki0uzvHOCiTqeReQQCB2djKmUiYRahkWKyPjYFv48pXcI5zE+GESOCh+Rl8/3aFY4N8Fen40euzF7MblDpLg8qORMJUwPaadEOVJQZfwThOcJL+CNI3K0WEReCd9josmFGV6bYqZF6GMMIgVloOTo5JxIGE8IcqSIDAR4Y5TepXwFfwwTIXK0+Ii8EtZQiZhu8fY8/SHbfTZ6xCkiRWRhMuVkzHhCJcMihRTgjRO8RnSJ8BS2ivEQOVp8RF6haolLsyQZz3a4s8rSNiKFEzhKjrmE0wNqGTbHIMXj4zUJz1O+QngKr4XxEDlyfEReId+jVeHsBP/xAjiWthEpnEbOdMJEQjPFdxikeAy2hn+S6A2iN/AnMBEYRI4cH5FXyIBn6dR5Z57NXR6ssdlnL0akEAJHyTGVciamneDnGKR4DKaMN0l4ieh1whPYKhhEjiKLyCtXDplocmmGvzzHZB2Roig7Tgw5GTPfp55ikELysE38k5TeJjyNKYNF5IjyEXnlPIMXMDfKT3L6Q+KU9R79BJEfjIXQ0ck4OWRqSCXHIIUUYJuE71J+j/A0toXxETm6fER+IJMtWjV2+vSGfLpIP0HkB+M5ahkTCacGNDIMUkgGE+J1qPwHqj/F1jEhGESOLh+RH4gxRB4Xp8lykhyzzGaPJEPklTLgOZo5p1LmEkoO45CC8givUP4J0VlMHQIwiBxpPiI/HGuZH8P32eyxHzNM2BmQOUReEQMeVB1jKfMxkwOCHCkmU8a2iS5T/Q/4k9gIkWPAR+QHZaBd4Z2TpBlxwqNN9mKyHJGXzoDnqOfMJZyOGR9ScliHFI4BD/8k0buU38SfwJQQOR58RH5QxlCJmB+jP2SnT5LzZJP9IblD5OWyUHXMpMzHTMfUMjyHFJAp400SXqL8Y4LT2DoYRI4HH5EfmjVUAk6Nk+UkGWnGYpdBQu4QeVk8qORMppwdMD2kkmOR4rGYCG+a6B3K71K6iNcGg8ix4SNSAJ6lVeHMBMMU35I+YGWbfoJziLx4FkqO2ZSTMZMJtQzPYRxSNCbEmyN6g8qPXXTBeB1MgMhx4iNSAMbgW1oVLs3gWXoJvmVhkzgld4i8MAYM1HJGM07FnBhQy/ByDFIwBlPBmyR6g/KPiC4ZfxzjI3LM+IgUgzEEHs0q5ycJPKohvZiNHoMEkRfGQOCYTjk3YHJII8UHgxSPwZsgeofKXxBdxh/FhIgcPz4ihWEMgUe7SugzSBkkfLbI402SlMwh8r0YMFDLmcg4OWR2QDUjcEgBmQreNNEblN8juoA/jgkQOZZ8RArG92hUuDxLq4wxdPts98kSRL4v3zGacXmfiZhGhnVIEVlsi+gtyj+h/DZeB+Mjclz5iBSMMRholJjr8NOzhJZrD1noMkhxDpHnZsBAzTGdcHLIREw9w3NIAZkI7yTRJco/IbqI18YEiBxjPiKFFPg0q7w9T6NCb0icsbbLICV3iDwHAxZKjk7GuQEnBtQzPIcUjoEI2yG6RPkvKL+FPwkGkePNR6SojKEaMTfCzy9RL/HbeyzvMEhwDpFvy3NUHCdSTsVMDalmWKSQLP4s0RXKP6Z0GdsGg8ix5yNSVAYCj3aV12f4k0HKZ4ssbtFPyHJE/h0GLNQcUwknh5zoU8sJHFJApoI3R/gG5R9Reh1/CuMhIuAjUmzWUC9xcZpKSC3iDw9Y6rIXk+U4RL6BAd9RyZlJuTBgfEgtw0cKxoDBhHjTlP+K0hVK5/BGMB4icsBHpNiMwfdoVfE9lztTi/hskQdrrOwyTBH5MwwEjkbOTML8kMmYao7vkMLxMRXCS0SXKb9LeBqvgwkQkS/5iBwG1lCLzKUZOjWaFcoB2SLrPYYpDpGv8CBy1DMmU84NmBxSyfEcUiwW42FH8E5Q/imV9/BnsHWMh4h8hY/IIWEtpZDJFu+dohISelx/ysIWaY7I/2GgmjOWMjdkOmEkoZzhOQxSLCbANAmvUPkPRBcIZjFljI+IfJ2PyKFSCpgdwbP8iecRejzbYy8mzXDI8eY7qo6JlLmYuZjRBM9hkILxsVW8CfxTlP+C8l/gjWAjMIjIv+IjcthYy2idKydpVZhs8vFj7q2x3SfJkGPKgIGKY37I3JCZmHqG75DC8bB1/HmiNyn/hPA0fgcTgEFE/hwfkUMoChit41vKIdWIRpnrC2z2GabIsWMhcHQyJlPmYiYSmim+QwonwJskPEd4idLrRBexTYyPiHwzH5HDyVpaVUoBnTqNKnHC4w02evQT0hw5FgwYqOS0Mk4NmR/QyqhmWIcUi4+JsB3C1yn/mNIbBDOYCsYiIv8mH5HDyYBnqUT4Pm+doBbxxVNuPeXOKqt7yLHgQyVjJuXUkLGEVkLk8BxSNLaBP0t0hdJlwrP4k9gKWETk3+MjcpgZQ+Qz1Wa0TqdGvYzn4a+yPWCQkOU45CjyIXI0czop80NODyhleDkGKRZTwzYIzhJepPwu4Sm8NiYEg4h8Cz4ih581hAGnx2iUaZQZqfLZU5a22R/iHHLUWCg7phJOJMwOaaZUMozDIIXjjROco/IzSpfx2tgqJgCDiHw7PiJHgoFyxITHpVkqESM17q7wZJNnu+wnOIccBR6Uc1o54xmTQ8aHjCaEOVIsBuNjp/BPEZ6jdJbodfwZTAAGEXkePiJHSOAzO8JIjRMdZkf4+BE3nrKyzTAjdziHHFYGLJRyRlPmE04OaCdEDuuQYvEwJWyN4DUq71O6QDCHCTAeGETkOfmIHCEGfI9qxGST0KNVZarJF8vcXaO7z/4QOZQs+DCeMpEwlTCe0EyIHNYhhWIC7BjBGcJLRBcJTzlv1NgyIvJd+YgcOZ6lVqJWolNntMZIjVLIow1Wt+knxClyaFjwHWVcPTPzQ+ZiJmIqOVIsBgJsGTtKcJroDSp/QXgSUzYYROR78BE5ukoBMyNUI05NcHuJG0+4+4zlbVJHnuMcDikkYzAGayjnNFOmE3NiSDOhnhE6pEAMeJgIO0pwmtI7hGcJpvFHMREYROT78RE5ujxLo0wtYqJFo0SzzHiTB2usbLPRoxeT5kjhGIMfUinRLNMeMrLC5MBNxiZ0eA4pEIsJsWP4U/gnic4TXSaYxdYwHiLyIviIHHXWEhhmRxipcnaSJ+t8usDtJRa32IlJMvIchxSAMXg+UZlGi/FR5jqM96hCuGGCPUwMQ6QQPEwJ28C0CM8TXSA8TzCL18CUMBYReUF8RI4BayiHlEOqJVoVGhWmmnyxxP01VnbYi8ly5AdmDH5Avc3MSU6cZnqW8SbVffwzpA9JHpIukK8gRWBq+CcJzxGeITiBP4k/jtcACwYReXF8RI6TyKdTpxoxWmO0zmidh+usdOn22R2QZGQOeaWMwVhKFSo1Gi3GZzh9gfmzjE1RijCJc+fM8D7xJMk4yWPyHdw2eQ9S5BUzZWwT08CfIrxAdJHoNWwTG2E8sGAQkRfKR+Q4MQbfUI2YadMsc3aC5S73V7n1lFvLbO3TT5BXylqCiMlZ5s4yf5bJEzRHqDWIylgLkaGMLROcIH2L5AnxLYaf4x7iUuSVMtgRwteJLhKew5/GG8FrYAIwiMjL4SNy/BhDFBIGtGt06oxUGa0x3ebpJstdnvXYHZBk5A55OQzWEkY0WrQ6dCaYmmN6nqkTtEbxfKzFGP6FBYvXwjbwOy4YN14bf5rkEekS+TOyZ7g+8rJ4mAjbwnbwxglOEJ4hPE0wg6lhA7CIyMvkI3IsGTAGDM0ytSlOj/PTIXdXuP6YPzzi4Qa7fXKHvBQGPI96i9MXOX+Zs5eot4lKeB7W488wGA9TM6aCN0HpLdJlBjcYfEy+h+sjL4kJsE2CU0SXKL3rwpPGNjARxgOLiLx8PiLHmzH4Hr5H6HN6nGrIiVEWN1naYnGL5W02ewxS5AXwQ2oNWiOMTDA6wegEnQlGJ2mPE4ZYj3+HwXiYEtbHeJiQYJLSmwyfkD4iXSFfwyWQIN+TCTFt/NOEc/jzBOP4E/hTxmthQjCIyKviIyIHrGWswViD10+wscuDVW4+5fMlHm+wtU+cMszJcvIceQ7GYgyeTxBQbTAxzewp5s4xd4bRSTyf52YgwGvjtQlPk/eI7zD4hOEdkhJuh7yHiyGBHHkOFkKMj4mwLbxpSm9TfoPwPLaB8cEgIq+cj4h8nTE0ypyZpNPgjTnWd3myzt1VlrfZ2me3T5zhHM7hkD/LYMAYrEcQUaszMsbkCSZPMD5Nq0O1TrWO9fi+PGyF6Ax+m/RN0nWSVdKHDO+Sr+J6uAxycOCQP8OAAYsxmAbeFP40/hTBPMEs3iheG1sDHwwi8kPwEZGvMxAFRAGjddKcfszCKONNlrs822G1y1qPnT69IYME+TOCgFKZUpVKnWab9iijE0zNMXmCVoeoxItiLIR4HbwR58+afJd0jeEM/jjpEtkG2RZul7yHG0ACDvm/DCbENLFtbA1vlGCeYJpgCn8OfwwCjEVEflA+IvLNPEMlYm6UTp1hyvY+j5/xYI3H6yx2Wd8jzchy0pwsJ3McU8biWayH9fA8Gi1GxhmdYnya6XlaI5QqRGWiEn7AS2GMCfFa2Ar+BPkFsnWSJZLHJE/JnpGvk2/jEkhxKeSQc+wYMJgAfEyACTENgnmCM/jT+BMEU9g6NsSUMCEiUgA+IvLNjMEz1CJqEX8yVqddZqrN2UlWtlnbYWefzT2e7bHZYy8mcxw7xlIqU6tTbVBv0eowMkZ7lOYIzQ4jo5SrWI+XzXjgYUJsDUbIR/EnCGbJNsm6ZCskK2TrZFvkm7hd3D7HjsVE2An8SbxRvA5eB38CfwKvjdfANjABIlIkPiLyrUU+4y1G6pydZG/A9j7Pdlja4vE6i1ts7DFIiFPijCQlyUhzcsdRYyx+gO8ThPghpRKNNu0x2qOMTjI1S3OEcg3fx/PxfKzlVbOYKn6ENwoZLiF9RrJE+pR0hfQZ2Rr5Ji7GxbgYhrgEHEeNjylhIkyICTFlbB1/nvAU/gz+JP4ItgoBxgOL8RCRgvERkW/NGAKPwKMMlZBWlfEGJ0e5NMt2n26PjT2ebfO0y9ou63vsDYkTjhTr4fvU27Q7NDuMjDMxRWuUSo1SmXKVSo0wwvfB8AMyFkJMyL/IMSW8Edwpsn1cn/QZ6QrJMtkK2TOyZ7gupBwpBlPFn8UbxxvFH8Ubw5/ANvHrmBq2iokwPiJSYD4i8p34Hp6lFNCqMu1IMvZjuj1Wd1jeYm2X9T02e+z2iRMGCf2EQUqcMkjIHYeAMXg+YURYIowII8ISpTLlKs0WrQ7NDiNjjE1Ra+D5GIsxGIMxFIvFlrEl6OA7yMm2ydZJV0mfka2TrpNvkfdw+7g++QD65Hu4PoeAAYsJMRVMhCljKtgaJsK2CKbwxvBG8Dt4o3gjmBBjwIABg4gUm4+IfFfGYACDB74l8qmXmGzx+gxJxjBlfYe1XTZ2Wd1mZYf1Pdb3WNslTvkTx9c4xw/JGL7GYC3lGs0RRidodWiO0BmnNUqrQxjiB3g+vk8QYj2ModAMGP7E8C+8Nl6dYBaX4BJcTLbrsjWTLpOskK2RrZM+IVsFBzlf4/iBGf4vCwZTwjbxxvFGsaMEJwhnsSN4DWwZE2J8CDA+xgeDiBwePiLyIhiDZ/AsUcD/yzmaZSaa7A7Y2afbZ2/ATp+tfXoDekP6MftD4pT+kP0hg5RBQpyS5rwixmA9goCgRKlMqUypQhgRhFRqVGuUq1Tr1BpUalRqVBvU6pRrWMuhZnzwMSX+hcPleLHJR/GnCLZxu+R7ZFtk2+T7uAFuQL5Hvkvew8UwJN/F7fGKGEwAASbEVDA1bAlTwlSxNWwdW8PW8OqYGl4NbwSvja1hShgPDCJyaPmIyMthDLUS1YixJs7hHLkjXX/kkAAAIABJREFUzYhTtvfZ7LGxR3eP3QFbPbZ67PTZ6bMTEyfkjhycA4eDzOEczvEnzuH4//NDa8LQuAjn+CoDxmIMf2IMf2IM1mI8jMFagpByhUqDRovGCM0W1QaVKp0x2qMEEZ6HsRiDMRiDsRjDkWIwHqaMLeF1wIGDHOdwA7It8h2ybdI10mfkG+Q98j75BvkWLoMcHM6BAwc55OD4Fzku51syPv+HAQsWY8CCAR8TYarYErbhvBFjm9gG3gj+mPMnjNfAlDEWDBiwGAsGDCJyyPmIyEtjDMZg+b+cTymgHNCuMN0iTkkS4pRByjAlyUhS9mN2BwwSkowkY5jQHzJMSTKSjCQjzckdXzUVN8r7876LIeGrPJ8wIgjxAgIfz8cPiMpUqwQRQUgQEoT4IWFIGBFGBAF+QKlCVMJ6GMOxYMBgLP8fA4TYiHzE+UMTzpMPcANcChl5jOuTD8j3yQe4ISS4hDyGPmS4DDeAlG/FYMqYACyEmDImxIaYEibChtgqpgwWGxoTYUJMgClhysaWsSH4iMhRZJxziEiR7A/Z7jFIGKYkKfsp+zFxwjBlmJKkJDm546suJffeGN4MSQw5X+X5RCXCEkGI7+MHBAGVGrUGUQk/wA8wFvkOXOZcz+T75Pu4IW6IG5IPcPu4HDLcPnnCt2KwFUyEMZgIU3YmMjbCVjGhM5GxFUyEiBw/xjmHiBRJlpPm5Dm5wznynCwnd+QO58gdzuH4mqrr192uxYHjawzWw1qMwXhYgzF4Hp6PtRiDsch35HAZZLgccnC43JEbMhzgIAPHt+WB5U+MBQ8MxmIsWLAYDywicvwY5xwiIiIiUjwWERERESkki4iIiIgUkkVERERECskiIiIiIoVkEREREZFCsoiIiIhIIVlEREREpJAsIiIiIlJIFhEREREpJIuIiIiIFJJFRERERArJIiIiIiKFZBERERGRQrKIiIiISCFZRERERKSQLCIiIiJSSBYRERERKSSLiIiIiBSSRUREREQKySIiIiIihWQRERERkUKyiIiIiEghWURERESkkCwiIiIiUkgWERERESkki4iIiIgUkkVERERECskiIiIiIoVkEREREZFCsoiIiIhIIVlEREREpJAsIiIiIlJIFhEREREpJIuIiIiIFJJFRERERArJIiIiIiKFZBERERGRQrKIiIiISCFZRERERKSQLCIiIiJSSBYRERERKSSLiIiIiBSSRUREREQKySIiIiIihWQRERERkUKyiIiIiEghWURERESkkCwiIiIiUkgWERERESkki4iIiIgUkkVERERECskiIiIiIoVkEREREZFCsoiIiIhIIVlEREREpJAsIiIiIlJIFhEREREpJIuIiIiIFJJFRERERArJIiIiIiKFZBERERGRQrKIiIiISCFZRERERKSQLCIiIiJSSBYRERERKSSLiIiIiBSSRUREREQKySIiIiIihWQRERERkUKyiIiIiEghWURERESkkCwiIiIiUkgWERERESkki4iIiIgUkkVERERECskiIiIiIoVkEREREZFCsoiIiIhIIVlEREREpJAsIiIiIlJIFhEREREpJIuIiIiIFJJFRERERArJIiIiIiKFZBERERGRQrKIiIiISCFZRERERKSQLCIiIiJSSBYRERERKSSLiIiIiBSSRUREREQKySIiIiIihWQRERERkUKyiIiIiEghWURERESkkCwiIiIiUkgWERERESkki4iIiIgUko/IN3POpWmaJMlwOEzTNPtSkiR5njvn8gMcMMbYLxljPM/zfd/zPP9AGIZBEHieZ4zhh5OmqXOO78TzPGstIiIir4qPyNc55/I8d87leT4cDrvd7urq6tLS0tbW1t7e3u7ubrfb3dzcHAwGWZb1er3BYOCcA6y1lUqlWq1GX2q32yMjI41GY3R0dGpqanx8vNFoBEFgDlhrjTG8Qnme7+zs7O/vuwM8D8/zGo1GtVq11iIiIvJK+Ih8hXNuZ2dne3t7Y2Njc3Nza2trbW1tdXV1eXm52+3u7e3t7u5ub29vbW0NBoM8z/f39weDgXMOsNZWDkRRFIZhFEWtVmtkZKRWq42MjExNTU1MTIyOjrYPtA40m01eoSzL7h7o9XrD4ZDnUS6X33nnncuXL4dhiIiIyCvhI8eecy5N0+GBwWDw5MmT+/fvf/7553fu3Hny5MnW1la/3x8Oh2ma5nmeZVl6IM9z51ye5845DuR53u/34zi21hpjrLX+Ac/zfN+PoqhSqXQ6nfn5+TNnzpw9e/bcuXNnzpwJvuR5nrWWlylN048++ui///f/vrCwsLe3x/MYGRn5+7//+/Pnz4dhiIiIyCvhI8dbnudpmq6vrz948OD+/fsPHjxYXV1dXl5eWlpaXV3d3NwcDAZZlvHtZAf4c4wxnueVy+XFxcW7d++Oj4/Pzc2dPHlyfn5+bm5udnZ2ZGQkiiJrLS9NnufdbndxcfHRo0fb29s8j52dnW63m+c5IiIir4qPHFd5ng8Gg263u76+fu/evY8P3Lhxo9/vDwaDNE2zA845XgTnXJqmvV5vMBgsLy97ntdoNDqdzqVLly5fvnzp0qVTp06Nj4+32+1SqWSMQURE5NjzkeMqSZKFhYWPP/74ww8//Pzzz58+fbq2tra1tZUf4OXIDyRJAsRxvLOzs7W1dfv27Y8++ujChQtvv/32e++9Nz8/7/s+IiIix56PHDPOuTiOt7a2Hjx48Mknn/zhD3+4evXq4uLi/v5+nue8QumB/f39tbW1paWlhYWFpaWl9fX1t99++/z5881mMwgCYwwiIiLHlY8cJ1mWxXG8trZ2/fr1X/ziF9euXXv8+HG3243jOM9zfgjOuSRJtra2er3e0tLS9evXf/zjH/+X//JfLl682Ol0wjC01iIiInIs+cixkef5s2fPHj58+NFHH127du2Pf/zjkydPdnd3syzjB+WcSw4MBoPt7e04jgeDwY9+9KN33nnnzJkzExMTiIiIHEs+cjzEcby7u3vz5s0PPvjgn/7pn27durW3tzccDvM8pzCyLOv3+/fu3VtYWHj48OH6+vpf//VfR1FUq9V830dEROSY8ZHjYW1t7erVq//0T//0m9/85unTp91uN8sy5xwF45xLDty8ebPX6w0GgziOr1y5MjY2hoiIyDHjI0ddHMcbGxuffPLJL37xiw8++ODmzZt5nlN4m5ube3t7YRhmWeb7/uXLl0dGRnzfR0RE5NjwkSMtz/Otra0PP/zwl7/85S9+8Yvl5WXnHIdEmqafffbZ3t6eMSZN0x/96EetVssYg4iIyPHgI0dXkiRPnz795JNP/vEf//HDDz9cWloaDAYcHnme7+3tPX78+H/9r/9lrQ3D8OLFi2NjY9ZaREREjgEfOaLSNO12u59++ukvf/nLf/7nf3706FGaphxCvV7v+vXrQKVSiaKoVquVy2VrLSIiIkedjxxFzrlnz5798Y9//NWvfvWb3/xmeXk5SRIOpzzP4zi+d+/er371q0aj0Wq15ubmqtUqIiIiR52PHDl5ng+Hw4WFhQ8++OB3v/vdnTt3hsMhL4e11vM8a61zLv8SL1qe5xsbG9evX5+enp6YmKjVaqVSyVprjEFEROTo8pEjZzgcPnv27ObNmx988MHjx4/TNOVFMMZ4B+yXPM8LwzCKojAMnXPxgTRNsyxzzuV5nh3ID/C9DQaDjz/+uFqtzszMtFqtSqXieR4iIiJHl48cOd1u93e/+92vf/3ru3fvbm9vO+d4ESqVSrvdHh0d7XQ6rVarVquVSqVyuVwqlYIgAIbDYZIkg8Gg1+vtHtjc3Fw/0Ov1+N6SJHn69OmNA6Ojo6dOnSqXy4iIiBxdPnKEOOfiOF5YWPjFL37xm9/8ZmtrK01T5xzflTEmCIJSqVSpVGZmZk6dOnXmzJmTJ0/Ozs52Op16vV4ul8MwtNYCeZ475+I4Xl9fXzvw6NGj+/fv3717d3l5udfr9fv94XDonOM7yfN8MBisrKxcvXp1bGxsfHy8VCoZYxARETmifOQISZJkaWnp1q1bX3zxxfLy8nA4dM7xPQRB0Ol0Tp8+/cYbb1y8ePHMmTOjo6PtdrvZbJbL5SiKfN/3PI+vyLJscnKy1+vt7e299dZba2trT548uXv37vXr12/fvr2ysjIcDvmu8jzf2tr65JNPZmdn33333Var5XmeMQYREZGjyEeOiizLdnd3v/jii48++mhlZSWOY+cc34kxJgiCer0+NTX12muvvfXWW++9996ZM2emp6eDILAHzJf4Os/zqtVqpVIZHR3N83w4HHa73YcPH87MzExPT9++ffvRo0fdbjeOY+ccz6/f7z9+/PjOnTuPHj1qNpsjIyPGGERERI4iHzkSnHNxHK+trX388ce/+93v1tfXnXN8V9baarV6/vz5/3jgwoULnU6nXC5HUWSM4d9jreVLQRBEUdRoNObn5//qr/7q+vXr/+2//berV6+ur69nWcbzy/O81+s9fvz4448/7nQ6zWbTWouIiMhR5CNHgnNua2vrzp07n3/++cLCQr/f57uqVCoTExNXrlx578ClS5fGx8c9zzPG8PyMMcGBWq02Ojpaq9WGw2GpVPrtb3+7sbERxzHPyTmXZdny8vLVq1dPH/A8z1pLUWVZFsdxlmV5ng+HwyzLPM/zD5RKpSAIOELyPM+yLD6QpmmWZYC1NgiCMAyjKPJ931rLS+acyw6kaZrnuXNueADwfT+KoiAI/APWWo6NNE3jOE6SJD1gjCmVSkEQ+L7vHeBlyrIsjuMsy/I8Hw6HWZZ5nucfKJVKQRBwqOR5nmVZ+hVZlhljfN/3PM//CkS+Hx85EvI8X1tbu379+v3797e2tpIk4Tux1jYajUuXLv3X//pff/KTn4yPj0dRZIzhe7PWViqVM2fOtNvtRqOxtLQ0GAziOOb5OedWV1c/+uijH/3oR71er1wuW2spDOcc4JwDnHNxHG9tbcVxnCTJ9vb2cDgslUrlcrlSqbTb7Xq9DhhjAHOAl8Yd4DsxB/gGzjnAOZckyWAw6Ha7W1tbvV5vOBwCYRhWKpV2u91sNqvVahAExhheKOcc4JwD3IHBYNA/kKZpnufb29u7u7vOuXK53Ol0KgfK5XIQBMYYDhhjAGMMr4o7wPMzxgDGGP5NzjnAOQc45waDwebmZq/X6x8wxrTb7Xq9XqlUyuVyGIbGGMAc4HtzzgHOOcA5F8fx1tZWHMdpmm5vb8dxXDpQrVbb7Xa9XjfGAMYYwBhDkTjnAOcc4JwDkiTp9/uDwWB/f79/YDAYWGvL5XKlUil/hTkAGGM4YIxB5FvzkcMvz/N+v7+4uPjZZ5+trKxkWcZ3EgRBrVb727/927/5m7958803R0ZGwjA0xvDi+L7fbDbffvvtv/u7v/uHf/iH//E//keSJGma8pzSNN3d3b1///7NmzevXLnS6XT4oTnnkiTZ2dl59uzZ0tLS6urq2tpat9vd3t7e29sbDofOuTiO8zz3PM/3/SAIoiiq1WpjY2OdTmd0dPTUqVOzs7P1ej0IAmMML9RwOLx58+a9e/eSJMnznG/NWlur1c4cKJVKfF2WZf1+/9mzZ48ePVpcXFxeXl5aWtrZ2RkMBmmaZlkGWGvDMIyiaGRk5PTp028dqNfrfD/OOcA5t729vba29uzZs7UD29vbe3t7Ozs7vV4vSZI8z4E4jpMkcc75vl8ul33fD4KgUqnUarV2u91qtUZGRkZHRycnJ2dmZsIwNMYAxhhepqWlpWvXru3u7vI8fN8fHx+fOVCr1fhX3IE4jtfX1+/fv7+4uLi+vr61tbW9vb27uzscDtMDQKlUCoKgVCq12+1Op9Nut6enp+fn5ycmJlqtFmCM4Tk55/I8T5Jkc3Pz8ePHCwsLy8vL3QN7e3vD4dA5NxwOsyzzPM8/UK/XG41Gu92empqan5+fnJwcGRmp1WpBEBhj+IG4A0mS9Pv9paWllZWVtbW1zc3N7e3t3oF+vz8cDtMvZVlmjPG/olQqVSqVZrPZbrdbrVan0xk70G63oyjyPA8wxiDyb/KRwy9N0263++TJkzt37qyvr+d5zndSr9fn5+fff//9//yf/3Oj0QjDkBfNWlsul8+cOTM6Otrtdm/cuPHs2bOdnR2eU57n+/v7Dx8+/Pzzz0+fPt3pdPjh5HmeJMnu7u76+vri4uL9+/fv3Lnz8OHDJ0+erK6ubm5uxnGcZRl/TqVSmZ+fn5mZOXHixFtvvXXp0qWpqalOp9NsNsMw9DyPFyRN088+++xXv/rV/v5+kiR8O8aYIAjGx8d//vOfz8zMlEolvmIwGOzu7j59+vTzzz//9NNPb926df/+/UePHu3v7/PndDqdH//4x57nnTt3rl6v810559I03d/f39vb6/V6S0tLDx8+fPylZ8+edQ/s7+875/gG1tpSqdRoNCYPTE1Nzc3NnTlz5uLFi61Wq1wu1+v1SqXieZ4xhpdjeXn5H//xH5eXl51zfGvlcvnChQvvvfdes9ms1Wp8hXMuz/O9vb2dnZ21tbUHDx5cu3bt9u3bCwsLKysr3W633+/nec7XBUHQ6XQmJycnJiZee+21N95447XXXjt58mSr1SqXy57nGWP4FvI8T9N0f39/e3t7a2vr4cOHN27c+OKLL+7cubO6urq5uRnHcZZlfJ0xJoqiWq02NTV19uzZy5cvnzlz5sSJE9PT051Op1arhWHoeR6vUJ7nw+Fwf39/58DGxsadO3fu3bv35MmTpaWltbW1ra2tvb29wWCQ5znfLAiCSqUyNjY2OTk5MTExOzs7f2B6enpkZKTRaFSr1SiKgiAwxiDyDXzk8Nvf3793797du3fX19fjOHbO8ZyMMZ7nnTt37j/9p//02muvNRoN3/d5acIwbDably9f/tu//dt//ud/vnXrlnOO55Sm6fLy8oMHD3Z3d/mBOOeyLNvf319dXf3kk09+//vf3759e3V1dWdnp9fr7e/vDwaD4XCY5znfII7jxcXFzc3Ne/fuffLJJxMTE3Nzc++8885Pf/rT2dnZWq0WBIG1lu8ty7KlpaUbN250u93hcMi3ViqV5ubmLl++nKYpX8qyLEmSx48f37x589e//vXNmzeXl5e73e7e3t5wOOTlcAfSNI3jeHNz886dOzdu3Lh+/fry8vLW1lav19s/EMfxcDhMksQ5xzdzzsVx3O12B4PBysrKF198UalUms1mp9OZm5s7derUO++8c/78+WazWSqVPM8zB3ihut3ujRs3Hj58yPOoVCrW2rm5uTiO+Yo8z4fD4e7u7meffXbt2rXr16/fv39/a2trZ2en3+8PBoMkSfI851/Jsqzb7Q4Gg+Xl5QcPHnz44YenT5++fPny+++/f/bs2WazGYah53l8M+dclmX9fn9tbe2LL7745JNPbt68ubCwsLW1tbOzs7e3Fx/I85x/xTmXJMnu7m6SJJubm7dv365Wq+Pj4xcvXrxy5cpbb701PT1dr9c9zzPG8DI55/I8z7Ks1+stLy9/8cUXH3/88YMHD5aXl3d2dvb29voH4jgeDodZluV5zr8py7L9/f2VlZVut/vo0aPr169XKpVqtToyMnLq1KmLFy++/vrr8/Pzo6OjpVLJHkDkX/GRw29/f//OnTv379/f3d1N05TnVy6Xx8bGrly58vOf/3x+fj4MQ14ma22pVDp//vzPf/7zhw8fPnjwYDgcZlnG88iybGNjY3Fxsd/v8wNJ03RlZeXx48c3b9788MMPr1279vjx4729Pecc306WZbsHOFAqlSYnJ5eXlzc3N19//fUzZ87Mz883Gg2+tzzP9/b2VldXNzc3B4MB344xplQqlcvlXq+X5zlf2tzcXFhYuHr16h/+8Iff//73jx8/7vf7WZbxMqVpur+/v7y8vLi4+ODBg1u3bn322Wc3b97c3NxMksQ5x/NwzmUHBoMBX/I8LwzDqamp+fn5p0+fXrp06eTJk3Nzc+Pj49Vq1fd9YwwvzmAwWF1dXVpacs7xrdVqtY2NjV6vl2UZX8qybH9/f3Fx8bPPPrt27drVq1c///zzlZUVvoU8zwcHgNXVVc/znjx5srCwsLOz8/bbb58/f35ubq7T6Vhr+QZpmq6urj5+/PjWrVufHrh9+/bGxkae53wL2YE4jre3t58+fQrUarWFhYWVlZWNjY0rV66cPXu23W5HUcTLFMdxt9tdWlp69OjR/fv3P//8808//fTJkycbGxvOOZ5ffiBJkr29Pb6iUqnMzs4+ePDg/v37pw+cPXt2YmKiWq1aaxH5Oh855PI8393dvX379sOHD+M45jvpdDrvvffeT3/603feeadSqfBKTE5OBkHw61//+saNG2tra/1+n+eR5/nOzs76+nqv10vT1PM8Ywyv0GAw2NzcvHbt2m9/+9urV68+ePBga2ur3+875/iuhsPhysrK7u7u3bt3L1269JOf/OT9998/d+5cvV73PM8Yww8tTdM4jm/duvU//+f//N//+39/9tlnu7u7g8Egz3NemizLhsPhxsbGkydPPv74408++eTWrVvLy8s7Ozu9Xi9NU+ccL0Ke53EcLy0tbW5u3rt374MPPnjzzTfffffdt99++8SJE61Wq1wue55HkTjn8jzf3d198uTJb3/723/4h3+4e/fus2fPer0e30mWZZubm/1+f3Fx8dNPP/3Lv/zL999//4033qjX677v86/Ecby5uXnt2rXf/va3V69effToUbfb7fV6zjm+q36//+DBg263++TJk5WVlZ/97GcXL14cHx+PosgYwwvlnEvTdDAYrKys3L59+/e///3HH3/8+PHjjY2Nvb29OI6dc7xQg8FgYWFhY2Pjxo0bIyMj586d+5u/+Zt33313bm6uXq9HUYTIV/jIYeac6/f76+vrDx48WFpaSpKE72R8fPxnP/vZm2++2W63eVXK5XKn03nttdcuXLjQP8DzyPN8MBhsb29vbGzs7Ow0m03P83hV8jxfXFz84x//+Mtf/vL3v//9wsLCzs5OlmXOOb6HPM8HB7a3t/f29jY3N589e/aXB1qtVhAE/NC2t7cfPHjwm9/8P+zB6VNc2X0w4N85567dt3fopqHZBQIhtG8jzWg84/FMXEnZSTkf88flU/IhqcSupGKPPfNKGkmjHbQAEiDW7oam9/2u55y3qqtUZVdiWxcBAuk+z+3f/va3q6urhUIB9l+j0cjlcvfv33/y5MnS0tLq6moul9N1nVIKe4p3GB21Wq1UKlWr1Uwms7S0dObMmenp6fHxcU3T4DDhnLdarfX19T/84Q+3bt168uRJpVIxTRPegdVRr9fbHYwxAJiamorFYvCnGGOZTObp06d/+MMfHjx4sLm5Wa/XKaWcc3gHlNJms2maZrPZbLfbpVKpVqudPXt2cHBQkiTYO5xzx3Eqlcri4uLTp08fP368sLCwsbFRq9Usy4L9wRjTO8rlcj6fLxaLtVptbW3t0qVL09PTIyMjCCHweN4QwHOUMcZqtdr29nYul6vVaowxcEkQBJ/PNzAwcPbs2f7+fjhYhJCxsbHp6enXr18XCgVwiVLaarW2t7fz+bzf7yeEwIHQdb1UKj1+/Pi77767d+/e6uqqbduMMc457BFK6c7OTqvVyuVy1WpVUZSpqalkMkkIQQjB+8A5t217e3v7zp07d+/eff78uWVZsM8Mw6hWq8vLyy9evPj+++9nZ2crlUq73XYchzEG+4lzbhjG5uZmoVBYW1vLZDLlcplzPjQ0FIlEMMZwCDDG2u32ysrKjz/++O233z579qxWqzmOA3uBc14ul+fm5gRBwBj7/X6lgxACHYZhlEqlx48ff/fdd/fu3VtZWbFtmzHGOYe94DhOrVabm5urVCq2bVNK/X5/LBaTZRn2AmPMMIxcLre4uPjjjz8+fPhwbm6uXC7bts0Yg/3HOTdNM5fLVSqV7e3tQqFQrVZN00wmk8FgEGOMEALPR08Az1HGGCsUCul0utlsUkrBPVVVR0ZGJicn+/v7g8EgHCxCyMDAwNjYmKZp4B7n3DTNTCazvb3d398vyzIciEKhcO/evW+//fbmzZuFQsEwDNhrnHPHcRqNhmmaCCHTNH/5y19+/fXXqqoKggDvA6W01Wqtra19//33L1680HUd9l+xWHz8+PHNmzdv3bqVy+UqlYpt24wxOBCMMdM0bds2TbNer5dKpXq9/vnnn1+5ckVRFDgELMsqFAo//PDDb37zm/n5+UqlQimFvUMprdfrz58/55wnEglN0wYGBlRVhY5CoXDv3r1vv/325s2b+XzeMAzYU5xz2pHNZr/77jvHcXp6eiYnJxOJBEII3pllWfl8/tatW99///38/Hwmk6nVarZtwwHinDsdq6ur9Xp9fX19fn7+7//+78+dOydJEiEEPB89ATxHGaU0m82urKy0Wi3YFZ/PNz4+PjExEQqFRFGEg4UxjsVivb29oVBIkiTbtjnn4IZlWaVSqVwuU0ph/3HODcNYX1///vvvHz16lMlkKKWwbyilhmGk02nbtnt6elKp1LFjx2KxGLwPuq7ncrnnz58vLi4Wi0XYZ4Zh5PP5mZmZ3/3udw8fPpybm2MdcOAYY4ZhmKZJKXUcp91uN5vNqamp/v5+QghCCN4TzvnW1tbt27dv3br14sWLarVKKYW9Riktl8tLS0s//vhjKBQKh8OSJFFK6/X63Nzcd9999+jRo3Q6TSmFfWOaZiaTmZ2dHRgYIIREIhFRFDHGsFuMMcMw1tbWHj58+N13392/f39nZ0fXdcYYvCftdjuTyTSbzXK5rGka53xqaioSiYDnoyeA5yijlGaz2eXl5VarBbvi8/nGx8fHxsZkWYYDhxDSNK2rIxQKNRoNSim4gTFudzDGYP/Ztq3r+tLS0o0bNzY3Nx3HgX3GOW+1WplM5tGjR7FYzOfzRaNRhBAcLM7GL9QLAAAgAElEQVR5vV6fmZl5/PhxsVi0LAv2E2OsVqvNzs5+++23v/3tb3d2dhzHgfeHd5TL5cePH2cymbm5uX/6p3+KRqM+n08URXgfOOeU0rW1tX//939//PhxtVp1HAf2B+e8UqncuXMnFApNTU2FQiHTNFdXVx88ePCHP/xha2vLcRzYT7xjc3PzN7/5TTQanZqaCgQCkiTBblFKy+Xy48eP//Vf//XFixflctm2bc45vD+cc0pppVIxDOPXv/51q9WKxWKhUAhjDJ6PmwCeo4wxViqVtra2DMMAlxBCsizHYrHh4eFUKiVJErwPgiD09/f/6le/OnPmTKvVopSCG5qmjYyMTExMyLIM+69Wqz19+vTu3bvFYtGyLDgQnHPLsl6/fv3DDz8MDQ3F4/FwOCzLMhwUzrlpmoVC4cWLFy9fvmy325xz2DeWZW1tbc3Ozv7+97+/f/9+oVAwTRMOAUqpruu5XI5SevPmTVVVr1y50tPTA++DrusrKysvX75cXV2tVCqUUthPlmXl8/nFxcWnT5+qqooxvn///r1794rFomVZcCDa7XY2m52bm5udnZ2amkomk7BbtVrtzp07N27cWFpaqlQqtm1zzuEQYIwZhpFOp2dmZsbHxzHGg4ODiqKA5yMmgOfI4pw7jlOpVAqFgmVZ4BLG2O/3x+PxVCrV3d0tCAK8Dxjjnp6eX/ziF+1227Isxhi4QQhRFMXn88myDPvMcZx8Pv/DDz/cv39f13U4QIyxbDZr2/bp06cHBwcnJydlWYaDwhhrNptbW1uLi4sbGxuWZcG+cRynXq8vLCx8//33N27cWF1dtW0bDhNd17e3t+/evQsA3d3dgUBAVVWMMRysVqu1sLAwPz9fLBZN04R9RilttVqbm5szMzOJRMLn8z18+PDp06eGYcBBsW27Vqu9fPnyxx9/7OrqSiQSqAPc4JwbhpHNZm/evPnjjz/u7OyYpgmHCaW0UqksLi7evHkzGAxGIhFJkjDG4PlYCeA5shzH0XW91uE4DrgkCEIsFuvr69M0DSEE7w/GWFVVSZIYY+AeIQRjjBCC/eQ4Tj6fX15eXlxczGazjuPAweKct9vt2dnZ3o5QKAQHxXGcXC4nCEK1WmWMwb5hjFWr1WfPnt24cePOnTtbW1uO48DhQylNp9MPHz6Mx+O2bZ87dy4YDMIB4pzX6/XV1dWlpaV2uw0HgnPeaDRWV1efPn2qqurGxka9XqeUwgFijK2vr//444/nzp07fvy4LMsIIXDDtu35+flbt249e/Ysl8vZtg3vBiEE/wvnHN4B57xcLs/MzCSTyYGBAUmSgsEgxhg8HyUBPEeWYRiVSqXRaBiGAe4RQqLRaCqVCgQCGGN4f3CHIAhwiFmW9erVq1artbq62mg04H0wTXN5efn58+cXL17s6upSFAVjDPuMMdZoNF6/fl0oFPL5PKUU9gfn3DTNbDZ7v2NlZaXZbMKhxBir1+urq6u3b98OBAK9vb2SJMmyjBCC/ec4TrFYXFpa2uowTRMOBOe80WisrKwghGRZzmQypmlyzuEAcc6LxeLS0tLq6urJkycTiYSqqvDWHMdpNpvPnj27cePG2tpao9GA3UIIEUJEUZQkSVEUSZIAgDHmOI5t26ZpGoZBKYVd4Zy32+10Oj03Nzc+Pt7d3a1pGsYYPB8lATxHVqvVyuVyrVYLdoUQEo1Gk8mk3+9HCIHnLzIM4+HDh8+fP69Wq/DnIYQAACEEHbwD9ojjODs7OysdPT09yWRSkiTYT5xz27Yrlcrc3JwgCK1WizEG+4NSWiqVXr16dffu3cXFRcMwYLcwxqRDEASMMXoDANgblFLHcVgH7Eqr1Zqbm+vq6hofH1dVNZlMCoIA+8+yrOXl5Y2NDdM0LctyHAf+FEIIADDGCCEA4H8E3k2r1VpbW8vlchjjer3OOYf/BSEEAOgNAOCcM8Y457AXKKWNRmNxcfHVq1d+v19VVXhr7XY7m83OzMzcv3+/0WiAexhjQogoioqiqKoaCARCoVB3d3cwGOScO46j63qj0SiXy/l8vtVq2bbtOA6lFNyzLGt1dfXx48cTExN9fX2CIIDnoySA58jSdb1UKum6DruCMdY0LRqNKooCnr+GUloul+EvQggJgiCKoiAICCHOua7rtm3DHmGM6bq+s7OzuLg4MjLS1dUlSRLsM8aY2QH7zDTNpaWlJ0+erKysVCoVSinsCiFEUZREIpFMJhOJRDgcVjtEUaSUttvter1eqVSKxWI2my2VSoZhUErBPUpptVp9+fLlrVu3gsFgJBLx+XwYY9hnjLFGowF/HiFEkiSlA2PsOI6u6+1223Eczjm8A6ej1WrBn4EQIoSIoigIgizLqqoyxmzbbjQauq7DXmCMGYaxtrb2+vXryclJcGNnZ+fJkydLS0ulUgncwxirqtrd3T02NjY0NJRMJgOBgM/nC4VCqqoCgOM4lmUZhlGtVnd2dtbX11+/fp3JZIrFIrhHKd3Z2VlaWtra2mo2m6IoEkLA8/ERwHNkGYZRrVZN04RdwRj7/f5wOCzLMkIIPO4hhERRlCRJ/SOKosiyjDFmjNXr9VarZXboHbZtc85htzjn1Wp1cXFxenp6YmIC3jfUIQiCKIqyLIuiKAgCxhghBACcc/qG4ziapsmyTAhBCMGfsm27XC7PzMw8fvy4VCpRSjnn4BLGWBTFUCiUSqUmJyenpqaOHTuWTCaDwWAoFJJl2bbtWq2Wz+czmcz6+vr8/Pzr16+3t7er1appmowxcIkxlslk7ty5MzAwMDQ01NvbqygKvA8YY1EUVVUNvBEMBjVNEwTBNM1qtVqpVOr1eqPRaLfbhmHAnkIIEUIURQmFQpqm+f1+n8+naVowGKSUGoZRKBQqlUr7Ddu2GWOwW7ZtZ7PZjY0NwzDAja2trfv372ezWXBPFMVgMNjX1zc1NfXpp5+ePn16eHhYURTcgRCCDt5hGEa1Wp2bm7t37979+/cppc1m07ZtcINS2mg0crlcNpstl8uBQIAQAp6PjwCeI8swjEqlYhgG7ArGOBAIdHV1qaqKEAKPe4SQSCSSSqXGOwYGBoLBoCzLhBCEEOfcNM1Go5HNZtfW1hYXF5eWlgqFAqUUdotzXqvVVlZWtre3bduG9w1jrChKIBBIJBL9/f2JRCIYDKqqKooiQshxnEaj0Ww26/V6pVIBgHg87vP5MMbwRzjnlUplZWVldnZ2fn6+0WhwzsE9QRC6urrOnTv305/+dHJysre3NxwO+/1+qUMQBEppLBbr6ekZGRk5ffr0pUuXXr169eDBg9nZ2Y2NDcMwwCXOebvdzmQyz58/Hx4e9vl8PT098D5IkpRIJI4fP3727Nnh4eFkMil1YIwdx2m325VKZXV1dXZ2dmFhYWVlBfYUQigQCIyOjl69evXYsWPRaFTTNEVRZFnmnDuO0263i8Xi4uLi8+fPFxYWCoWCaZqcc9gVSmmxWMzn85ZlgRuVSmV5eblcLoNLGONwOHzmzJlr165dvnx5dHS0q6srGAwSQuD/omlaKBTSNK23t7erq0vTtNnZ2Xw+Dy4xxlqt1ubmZjqdTiaTsiyD5+MjgOfIsiyr0WjYtg3uIYREUdQ0LRgMSpKEEAKPGwihSCSSTCYnOyY6BgcHNU0TBAHe4Jy32+10Or2ysjIyMtLb2/vq1avNzc1ms2nbNuccXOKcG4aR72g2m5FIRBAEeB8QQrFYLB6P9/X1JTsGBweTyWQoFFJVVZIkhJDjOPV6vdFo1Ov1UqlkmmYsFhsYGJBlGf4IYyyTyTx58mRpaalQKHDOwSWEkCzL3d3dFy9e/LKjv79fVVWMMQAghKBD6FBVNRaLMcZGR0cHBwdDoZAsywihTCbTarU45+CG4zj1ev3ly5epVOrYsWPd3d0YY4QQHBSMcTAYTKVSZ86cuXDhwsWLF4eGhuLxOEIIABBCnHPHcZrN5traWjKZjMfj4XA4nU6XSiXGGOcc3gFCyOfzRaPRiYmJixcvfv7552NjY5FIRFVVQRAQQgDAO2q12sLCQl9fX1dX1/z8fCaTqVarjuOAe5TSRqNRrVZbrZZt24IgIITgL3Icp91u5/P5bDbbaDTADUJIJBKZmJj4/PPPv/zyy5MnT2qaBgAIIfgzSEdvb28sFsMYI4TK5XKr1dJ1nTEGbpimub29vbW1ZVkW5xwhBJ6PjACeI8txHMMwbNsG9wghiqKoqqooCiEEPG5gjCVJmpyc/Oyzz65fvz4xMeHz+fx+v6IohBCEEPwRv98/PDycSCSmpqauXLny8OHD//qv/1pcXCyXy5RScI9S2m63S6VSoVDo6urSNA0hBAcIIUQIUVV1enr6ypUrly9fHhoa8vv9qqrKsiwIAu4AAM654ziUUsdxbNtmjImi6OuANzjnlNLl5eUffvghl8txzsE9QkhXV9fp06f/8R//8fLly4lEQlEUQgj8XxBCAEAIUVV1cHBQVdVAIKAoyo0bN9bX1y3LApcsy1pZWenq6rp+/frw8LCqqgghOBAIIVVVx8bGPvvss2+++WZycjIUCimKIggC/BGMcSgUOn78eG9v78mTJxcWFv7jP/7j3r177XbbcRzYLYQQxri3t/fs2bM///nPL126FI/HNU0TBIEQghCCPxIKhaanp1Op1MmTJ2/cuPHDDz+8ePGiVqtxzsElzrllWc1ms1ar6bru9/sJIfAXtdvtdDqdyWSq1aplWQghzjm8HUmSjh8//vnnn//sZz+bmJjw+XwIIXgLCCFJkiYnJwFgeXm5Uqmk02nTNMEN27ZLHY7jgOejJIDnyHIcxzAMSim4hBAihMiyLEkSIQQhBB43IpHIsWPHfvKTn3z11VeTk5OJRAL+PEKIryMcDsdiMUVRKKU+n+/+/futVotSCi5xzh3HqdVq+Xx+cHDQ7/cjhOCgYIwFQRgbGztz5szFixfPnj07NjbW1dUlCAJCCNxzHKfRaKyvr8/NzVUqFXBPkqRgMHjx4sWvvvrq/Pnz/f39giAghOCvIYT4fL7e3t7z589blpXP55vNZj6fdxwH3KCU1mq1bDabTqdLpVIikZBlGQ5EIBAYGRn57LPPfvazn505cyYej8P/BSEkCEKgw+/3x2Kx7e3tWq22uLhYqVRgtwRB8Pv9p06d+tu//dtLly4NDw+Loogxhv+LIAjhcDgQCGiahhDinJfLZcuydF3nnINLjDHDMOr1ervdVlWVEAJ/kWEY29vb9XpdVVWfz2cYhuM4jDF4C4qiTE9PX716dXh4OBgMghsY42AwmEqlxsfHV1ZWdnZ2TNMEN2zbLnXYtg2ej5IAniPLcRzDMBzHAfcIIYqiSJKEEALPWyOESJI0NDT0044LFy4oigJvhxASCATGx8dVVXUcZ2NjI5vNNptNcI9S2mg0SqWSruucczhAqqrG4/HPPvvsH/7hH0ZHR5PJpCRJhBCEEOyKrutbW1vpdHp7e9s0TXBP07Th4eHr169//fXXPT09giAghOCtiaKYSqXOnz+/sbFRKpVqtZrjOOAG59xxnHq9vrq6mk6nI5GILMuw/zDGiUTiwoULn3/++cWLF0OhELyFQCAwODh45cqVer1eq9WazabjOJxzcE9V1f7+/kuXLn355ZfRaFSSJIQQ/EUY43A4fObMGcuylpaWGo3G1taW4zjgEufctu16vd5utyORCPw1jDHLskKh0PT0dLFYbDQahmFQSjnnlFLGGOecMcY72Bucc4RQIpE4derU9PR0IBCAXVEUZXh4uL+//8WLF+CS4zi1Wq1arTqOA56PkgCeI4tSahgGpRTckyQpEAioqooxBs9bU1V1eHj46tWr33zzzcTEhN/vRwjB20EIEUICgcDw8PDp06cXFxcdx2k2m+Ae51zX9VqtZlkW5xwOUF9f39/8zd988cUXZ86cCQQCqqrCuymVSk+ePFlfX7csizEG7qVSqU8//fTUqVN9fX2SJCGEwA2EkCiKiUTis88+q9Vqi4uL7Xabcw5ucM4bjcbc3Nzw8PDY2FggEIB9hjFWFGVgYODatWuTk5PBYFAQBHgLGGNFUaamptrt9srKSqVSKZVKtm2De/F4/JNPPjl58mR3d7coiggh+GsQQoIghEKhkZGRn/zkJ7quFwoFx3HAPdu2G41Gq9VijMFfEwwGT5w40dXVdeXKFV3XLctyOkzTbLVa7XbbNE3rDcMwWq2Wruu2bSuK0tfXd+LEia6uLkmSYFckSUqlUj09PaIogkuMMcMwdF3nnIPnoySA58hyHEfXddu2wSWEECFEURRJkhBC4HlrmqadPn366tWr09PT4XAYIQQuiaIoCMKxY8euXbuWTqdXVlbAPcZYu91uNBqWZXHO4UBIkhQOh6enp7/++utTp051d3fDXqhUKs+fP89ms5xzcAljLIri0NDQp59+Ojo6qigKQgh2xe/3nzhxIpPJ9PX1NZvNVqsFLrVarVevXk1MTLRaLcYYxhj2kyiK0Wh0ZGRkamqqp6eHEAJvDWPc09MzPj5+7NixtbW1er1u2za4gTEWBKGvr+/TTz8dGxsTRRFjDG8HIUQI6e7uvnTp0urq6u3bt3VdB/copYZh2LbNOYe/RlXVgYGB/v5+3gEdjuPout5qtZrNpmEY5huGYdTr9Xa7bVmWqqrd3d3Dw8OKosBuiaIYDoeDwSAhBNxzHIdSyhgDz0dJAM+RZdu2YRiUUtgVhBB4XAoGg5cuXTp//rzf70cIwa4ghPr6+q5evXr79m3YFc65ruv1et00TTgogUDgzJkzn3766cmTJ+PxOEII9kKj0VhbWyuVSpxzcEkUxWAwODIycv78+Z6eHoQQ7JYgCMFgMJVKTU1NNRqN5eVlcMkwjEwmk06nG42G4ziiKCKEYN+oqjoyMjI+Pp5IJHw+H8YY3MAY+/3+vr6+7u7ujY0NcIkQEggEBgYGLly4kEqlMMbgks/nGxwc7OnpEQQBdotzDm8HdcCfEgRBkiRN07q6ujjnrINzTjtYB8ZYFEVN0+DdoA7weNwTwHOUUUo55+DZfxhjVVXj8fjg4GBPTw8hBN6B3+/v6enp6+uLx+O1Ws00TXCDc84YcxyHcw77DyGEMQ6FQidPnpyeno7FYrIswzujlJqmWSqVMplMrVYD90Kh0KlTpyYnJ2OxmCzL8A4QQoIgxOPxCxcu5HK55eVlcIkxput6rVYrlUqtVisUCiGEYN/4/f7jx4+PjY1pmkYIAfdkWY7H49FoVBAEcEkQhGg0mkgkIpGIqqrgniiKoVAoHA5rmtZoNGzbhgOHECIdsM8cx6nVao1GgzEGHo9LGDxHFkKIEIIQgl3hnIPnrWGMw+FwMpns6ury+/2EEHgHhBCfz5dMJgcGBlRVhcMNISTLciwWO378+OjoqCzLsBcopfV6vVAo5HK5RqPBOQeXYrHY1atXT5w4IYoi7IVoNHrx4sWRkRGEEOxKu93O5XK1Wo0xBvvJ5/ONjY2NjIwoigLuIYQkSYpEIqFQiBACLomiGIvFotGoIAiwKxhjSZI0TYtEIqqqwoeLUtput7e2tvL5vOM44PG4hMFzZMmyHAwGZVkGlzjnlFLTNG3b5pyD5y0QQrq6ulKplKZpGGN4NwghjHEkEkkkErIsw+FGCAmHw6lUqq+vLxwOE0JgL9i2XeywbZtzDu75/f7h4eFkMkkIgb2gadro6Ghvb6+iKIIggHvVanVlZaVQKFBKYT8JghCJREKhECEEdoUQoqqqLMsIIXBJEIRgMBgIBDDGsFsIIUVRIpGIoijwweEdlNJisfjq1as7d+7Mzc21223weFwSwHNkCYLg9/sFQQD3GGOmadq2zTkHz1sghITD4Z6eHkVRYC9gjAOBQDQaFUURDjdCSDQaHRgY6O7u9vl8GGPYC7ZtFwqFUqnkOA64hBAihGia1tfXF41GMcawF5SORCIRjUYrlYrjOOAG57zRaGxubpbLZcYY7CdBEILBYCAQIITAriCEhA6EELhECNE0ze/3I4TgHYii6PP5RFGEI45z7jgOpZQxZtu2ZVm2bRuG0Ww2NzY2nj9/fu/evdevX5umCR6PSwJ4jiyEEOwWpdSyLNu2OefgeQsIIZ/PFwwGRVGEPSJJkizLGGM43Agh0Wi0r69P0zSEEOwRy7KKxWKpVKKUgkuEEE3TIh1+vx8hBHsnHA6Pjo4uLS21221wyTTNWq2m6zrnHPYTISQQCGiaRgiBA4cxljoQQvCh45wzxvifAgD+R2zbbjQauq632+1KpVIqlYrFYiaTWV9f397e3tnZyeVyzWaTUgoej0sCeI4sjLEoioQQcI9Sapqmbducc/C8BYSQoig+n08QBNgjGGNCCEIIDjdCSDgc7unp8fv9GGPYI7ZtF4vFUqlEKQWXMMZ+vz8cDvv9flEUEUKwdzRN6+3tzWaz4J5hGOVyudVqcc5hP2GMxQ54HxBChBCMMUIIPmiUUsuy6vV6q9UyDMM0TcuyHMexLMt8wzAMXddbrZZhGLqu12q1Ssf29nY2m63X67qug8ezWwJ4jixBEBRFEQQBXOKcU0pN07RtmzHGOUcIgecvQggRQiRJwhjDRwZj7Pf7w+GwoigIIdgjtm2Xy+VqtUopBZcIIYFAIBgMCoIAe83n88ViMVmWwSXOua7rpVKp1WoxxsBzpHDOGWO2bVuW5XTYtm0YRqPR2Nrayufz9Y5ms2kYRrvdrr/RaDTa7TallHVQSp0Oy7JM06SUgsfzDgTwHFmCIKiqSggB9yilhmHoum5ZFmOMEAKevwZ3IITg4yMIgiiKGGPYO4yxdgdjDFwSBCEcDkejUVEUYa9pmpZMJn0+H7jnOE6r1bIsCzxHDWNM1/Wtra1sNlvuyOfzlUqlVqtVq9Vms6nrumEYlmXZtm1ZlmEYuq4bHbZtg8ezPwTwHFmiKPr9flEUwT3GmG3buq63223HcTDGCCHweA4QY8zs4JyDS4SQQCAQDAYFQYC95vP5urq6FEUB9xzHMU3Ttm3OOXgOPc65aZrNZrNarVYqlVKptLq6ura2ls/nc7nc1tZWtVptNpuUUsYY55wxxjkHAM45Y4y/AR7PvhHAc2QpihIOh2VZhl1hjLXb7Xq9blmWJEng8RwsxpjVwTkHlzDGsiwrioIxhr0miqLf7xdFEdyjlJqmads25xw8hx6ltFQqLS0tPXjwYH5+Pp1Ol8vlVqtlmqZhGO1227Ztx3HA43l/BPAcWT6fLx6P+3w+2BVKab1ez+fzg4ODfr8fIQQezwHinJsdnHNwCSEkiqIsyxhj2GuCIKiqSggB9zjnlFKngzGGMQbP4cMYMwxjZ2dnZWVleXn51atXz58/X11dLRaLpmlyzgGAcw4AnHPweN4rATxHlqZpPT09mqbBrlBKS6VSNpudnJzs6uoCj+dgMcZM07Qsi3MOLiGEpA6MMew1QRB8Ph8hBHaFc27btmmalFKMMXgOH0pptVp9/Pjxf/7nf87MzGSzWdM0KaW8Azyew0QAz5Glqmo0GlUUBXaFUlqv1wuFgq7rnHPweA4W74BdwRhLkiTLMsYYIQT7ACEEu8I5t23bMAzGGHgOGcZYuVxeXV29efPmgwcP5ubmtre3W60W5xw8nkNJAM+RJUlSMBhUVVUQBEop5xzcoJRWq9VcLtdqtTjn4PEcHQgh0oEQgsOHdXDOwXOYUErb7fbKysrt27f/7d/+bX5+3jRNxhjsP4wx7wCPxyUBPEeWIAg+ny8cDodCoUajYVkWuOE4Tj6fX19fr1arlFJRFOE9YYxRShljsCv4DYQQeI4UhBDsCmPM6mCMcc4RQrDXOOewKwghVVUDgYAoiuA5NDjnlUplZWXlN7/5zbfffru+vm5ZFucc9g3qwBgTQmRZppTqus4YA4/HDQE8RxbGWJKkaDSaSCSsDnCDMVar1ba3twuFQr1eF0WREAIHjnPeaDTW1tYqlYpt25xzcEMUxWAw2N3d3dvbK4oieI4OhBAhBGMM7nHObdu2LIsxBnuNMeY4DuccdgUhJIqioiiEEPAcDowxy7I2Njbu3Llz+/btmZkZ2E8IIUKIqqpaRzAYjEQipVJpcXGx3W6Dx+OGAJ6jDGOcSCQGBgaKxWKj0QA3OOeO49Tr9bW1tXQ6HQwGCSFw4BzHyWazv/71r+fm5trtNqUU3AgEAuPj41euXIlGo6IogufowBjLsqwoCkIIXGKMmaZpGAZjDPaa4zitVstxHHAPvQGew8QwjGKxODMz89vf/nZlZQXeGUIIAAghgiCgDkIIfkOSJEVRuru7+zpSqVQ8Hn/27NnW1la73QaPxw0BPEcZISSRSAwODr58+RLc45w3Go25ubmhoaHR0VFFUeBgcc51Xd/e3p6dnX306JFpmowxcKO7uzsYDOq6zhgDz5FCCNE0ze/3Y4zBJcZYu91utVqUUthrhmFUq1XLssA9jLEoioIgIITAc2jU6/Xnz58/efLk5cuX5XIZ3hnGWBCEcDgcjUZFUZRlORgMaprm8/mCb0Sj0VgsFo1Gw+GwKIrFYlGSJPB4XBLAc5RhjHt6eoaGhnw+H+xKs9mcn58fGBi4evWqqqqyLMMB4pxXq9XtjkKhwDkHl0KhkKZpoVCIEAKeI4UQomma3+/HGINLlNJGo1Gr1RzHgb3WbreLxaJhGOCeKIqapsmyjBACzyHAOaeU5vP5e/fuPXv2rFKpWJYF7mGMBUHw+Xx+v9/n86mq6vf7E4lEb2+vLMuapsVisUgkEgqFYrFYNBoNhUKyLAsdjLFyuSwIAkIIPB6XBPAcZYSQVCo1Pj7u9/thVwzD2NzcXFpaWl1d9fv9PT09cIAYY4VCIZPJNBoNx3HAPYxxrIMQAp4jBWMsd2CMwSXHcarVarlctiwL9lqz2dze3m632+CeqqpdXV2apiGEwHMIMMba7fbW1taTJ0+Wl5dN0+Scg3uCIEQikdHR0QWjZ7YAACAASURBVBMnThw7dqynpycSiQQCAb/fTwgRRVFVVVmWJUlSOiRJwhhDh2VZgiAghMDjcU8Az1GGMQ6Hw8lksru7W9O0drvNGAM3KKXNZnNzc/PRo0fBYLCnpwcOEKX09evXc3NzjUYDdkWW5WQyGY/HBUEAz5EiCEIwGNQ0DWMMLlFKa7VauVzWdZ1SKggC7J1Go5HNZlutFriEEJIkKRgMKoqCEALPIWBZ1tbW1tLS0ubmZrVaZYyBS6Io9vb29vf3j46OTnSMjIzE4/FgMCgIAkIIAFAHAKAOAEAIgcezFwTwHGUIIVmWI5HIwMBAIpHIZDKmaYJLnPOdnZ1bt26lUqlLly4BAEII9h/n3LbtFy9ePHz4sFqtgnsIIUVRent7k8mkIAjgOVJEUezq6orFYoQQcIlS2mw2a7Vaq9WyLIsQghCCPdJoNDKZTKvVAvcEQVAURRRFhBB4DgFd1xcXF1+8eFGr1Rhj4BJCyOfzXb58+ac//enFixd7e3sVRZFlWRAEQghCCDyefSaA54hDCAUCgZMnT25sbBSLRdM0wb1arfbq1avZ2dmTJ08ODg7GYjHYf9lsdmFh4eXLl7lczjRNcIkQEolE+vv7I5GIJEngOWpEUezqIISAS4wx0zRrtVqhUKjX67IsE0Lgndm2bRhGoVDIZrPtdhvc8/l8PT09oVAIYwyeQ8CyrK2trY2NDV3XwSWE0PDw8KlTp7766qtr164NDAxomgYez8HC4Dn6NE2bmpoaHx9XVRUhBO7pup7JZGZnZ//f//t/6XTacRzOOewbzjmldHl5+Xe/+93y8nKz2XQcB1wSBKG3t3d0dFTTNPAcQZIkdXd3x2IxQRDAJc65bdv1ej2TyZRKJcYY7AXLsorF4s7OTj6f13UdXEIIBQKBVCoVDocxxuA5BGzbzufz29vbhmFwzuGtYYwVRTl58uQvfvGL69evHz9+3O/3w24xxjjn4PG4J4Dn6JNleWBgIJVKaZpWKpUcx+Gcgxu849WrV47jxOPxnp6eSCQiyzLsD9u2G43G3Nzct99+u7W1xTkH9wRBSCaTx44dCwQC4DmCRFHs6iCEwK40m83Xr1+PjY2Njo6KogjvrNVqbW5uFotFxhjsiqqq8Xg8GAwihMBzCDiOU6lUisWiZVnght/vT6VS58+fv3btWjKZJITAbjHGrA7GGHg8LmHwHH2SJHV1dfX396dSqWAwiBCCXdnZ2ZmZmbl79+7jx4+3trZ0XWeMwZ5ijFmWlcvlnjx58ujRo4WFhWq1Cu4RQnw+39DQ0MTERCgUAs8RJAhCKBSKRqPhcFhRFHCv0WgsLCysr6+bpsk5h3dWrVafPXuWTqfBPYSQJEnRaLSvry8cDmOMwfNecc4dxzEMo16vt1otSim4oWna8PDw+Pj46OhoIBCAd8AYazQarVaLMQYej0sYPEcfQkhRlMHBwQsXLqRSKUII7JZlWTdu3PiXf/mXBw8eZLNZXdcZY7BHGGOmaZZKpZmZmX/+53++f/8+7ApCSFGUnp6e48ePT05OBoNB8BxBCCFZlmOx2MjISCwWQwiBS/V6fX5+fmlpqVKpmKYJ74BzTinN5XK3b99eXFwE90RRDIfDyWRyYGAgHA5jjMHzXnHOTdNsNBqWZXHOwSW/3z84OBiNRhFC8G4sy8rn86VSyXEc8HhcEsBz9CGERFHs6+u7ePHi8vLy6uoqpZQxBu5RSjc3Nx3HwRiXSqWzZ8+OjY1Fo1FCCLwbSmm9Xt/c3Hz27Nnt27fv37+fy+Vgt7q6uqanp8fGxiKRiCiK4DmCUEc4HB4fH89kMtvb25xzcMOyrGKx+Pr162fPnmGMBwYGYLcMw8jlci9fvlxcXCwUCuCeJEmJRCKZTIZCIUmSwHMIMMZs26aUcs7BJUVR4vG4pmnwzkzTTKfT2WzWtm3weFwSwPNBQAh1dXWdPHlyfHz8xYsXtm0bhgG7YllWNpv9/e9/n81mC4WCYRjj4+OBQEBRFEmSEELgBufctm3TNOv1+sbGxuPHj3//+98/e/asUChYlgXuIYQEQejr67ty5crQ0JAgCOA5ysLh8IkTJ169ejU3N8c74K1RShljq6urN27c0DStq6tLlmVCCLjEGKvX68+fP5+Zmcnn84ZhgHuKogwMDPT19UmSBJ6jjxAiy7IoivAOOOeO49Tr9devX6fTadM0weNxSQDPBwEhpChKPB4/d+5cJpO5devW1tYW7Arn3LKscrk8Pz/fbDaXl5dPnjx56tSp48ePDw0NCYIAbjiOs7Ozs7q6+uzZs7m5ucXFxdevXxeLRdu2OefgHiFE07ShoaGzZ8+mUilCCHiOsmg0evr06SdPniiKous6pRTc4JxnMpkffvihu7s7FosNDw+HQiFwg3Numub29vaDBw+ePHlSr9cZY+Ce3+8/fvz46OioLMvgOfosy6pUKq1WC94BY6xUKq2srCwsLGxsbFiWBR6PSwJ4PhQYY03TpqenS6XS2tpatVo1DIMxBrtCKS0Wi7VabW1tbXl5OZPJbG9vT01NBQIBtUOSJFEUBUEghMAbjDFKqWmalmUZhtFut6vV6tra2vz8/KNHj5aXlwuFgmVZjDHYLVVVBwcHjx8/PjQ0FAqFEELgOcr8fv/IyMjo6Gh/f382m63X6+BStVpdXFy8f/9+OByWJEkURUVRMMbwFhhj7XY7nU7PzMw8fvx4ZWXFsixwCSEky3J3d/fx48eHh4cVRQHP4YAQIoSgDnBJ1/Xt7e16vc45h12hlLbb7eXl5QcPHiwvL5fLZc45eDwuCeD5gEiSNDg4ePbs2dnZ2WKxmMlkDMOA3eKc27Zdr9eXlpZ2dnYeP37c19eXeiMWiwU7VFVFCAEA59y27VarVSwWC4VCPp9fX19fW1vb2dkpFou1Wq3VapmmyTmH3cIYRyKRS5cunT592u/3I4TAc8QJguDz+cbGxi5fvnz79u16vQ4ucc5N03z69CnnPBQKiaKYTCZVVcUYI4Tgz+CcU0oNw8hms7du3fqf//mfhYWFVqvFGAOXBEGIx+NjHT09PaIogucQQAgJgiBJkiAICCFwqd1u53K5arXqOA5CCGMMbnDO2+329vb27du3f/e73+3s7HDOweNxTwDPBwRjrGna0NDQp59+Wu+wbZtSCrvFObdtu9aRz+dXV1fjb4TDYb/fr2maLMsIIQDgnNu2ret6taNSqWSz2e3t7VarZVkWvDNBEKLR6MTExJUrV06cOKGqKniOPoSQJEnHjh27evXq69evNzc3HcfhnIMblNJ8Pv/8+fNQKFQoFKampkZHRxOJhKqqhBD4Xyiluq5vbW2tr6/Pz8/fvn17dna2UCg4jsM5B5ckSRoZGTl79mxvb6+qquA5HBBCgiAoHYIgIIQ45/DW2u325ubmq1evXr58OTg4GIlE4K3Ztt1qtZaWlu7fv3/79u1Xr161Wi3weHZFAM8HJxwOX7t2rdFobG5uWpZVr9cZY/DOLMuqVqvNZnNzc1MURUIIfgPe4JwzxmiH4zh2B2MM3hlCSFXVY8eOXbly5dy5cwMDA6IogueDgBBKpVLnzp374YcfXr58Wa/XbdsGl2zb3tnZ+fbbb5eWls6dO3flypVTp051d3f7fD5CCOrgHZTSdrtdLBZnZmYePXo0Ozu7sbFRq9Vs2+acg0uCIIRCoampqQsXLkSjUfAcJoQQRVH8fr/P52s0Go7jwFtrt9vpdPrRo0eRSOT69euTk5OKogiCgDGGP4Nz7jiObduVSiWdTt+8efO///u/X79+3Wg0GGPg8eyKAJ4PjizLvb29Fy9eLBaLADA7O2tZFrwz1uE4Dhw4hJAkSbFY7PTp01euXOnt7ZVlGTwfCoSQ3+9PJpMnTpxYXV1dWFioVqvgEufcsqxyuew4TqPRWF1dvXv37sDAQDweD4fDiqJgjB3H0XW91WrlcrlMJrO+vr65uZnL5ZrNJmOMcw4uIYQikcjExMSpU6eOHTumaRp4DhOEkCiK4XA4EomUy2XHceCtMcYMw1hYWLBtu9lslsvliYmJRCKhKArGGP4XzrlpmtVqNZ1Oz8/PP3jw4NmzZ4uLi41Gg1IKHs9uCeD54BBCVFUdHR394osvyuVysVjc2trSdR2OJoyxKIq9vb2nT5++fPny1NRUMBgEz4eFEKJp2vT09NbWVqFQaLVajuNwzsElznm9Xm+1Wuvr67Ozs729vT09PbFYzOfzEUIsy2q327VabbtD13XTNFkHuIcxliQplUpduHBhcnKyu7tbkiTwHDKiKHZ3dyeTyUwmo+s6uME539nZaTQalmWVSqVcLjcyMhKJRBRFEToAgFLKGHMcp91u1+v1nZ2d5eXlp0+f3r9/P5/PO47DGAOP5x0I4PkQYYzD4fDExMT169dbrdZ3332XTqfhaCKERCKR8+fP/+pXv7pw4UJ3d7coiuD54KiqOj09Xa1WFxcXy+VyrVZzHAfc45w7bxiGkc1mRVEUBAEAOOeUUtu2TdM0DIMxxjmH3SKEhEKh8fHxTz/9dGRkRBRFhBB4DhlJklKp1NDQ0Pz8fK1W45yDG5TSVqu1sLCQyWTu3r2bSqX6+/uj0WgwGAyFQowx0zQNw6jVaplMJpfLVSqVer1eq9Wq1aplWeDxvDMBPB8oURSj0ejp06cNw2g0GoSQra0ty7LgSBEEIRaLXb58+csvv7xw4UJfX5+iKAgh8HxwBEHo7u4+efLk9evXTdN8/vx5vV5njMFuUUpbHbA//H7/9PT0xYsXjx8/Ho1GMcbgOXxkWR4cHBwfH79z506hUHAch3MObjDGah1bW1vpdHp5eTkUCmma5vf7GWO2bZum2Ww28/l8pVLRdZ1SCh7P3hHA8+ESRXF4eFiSJNM0AeDGjRvVapVSCkcBQghj7PP5hoaG/u7v/u769et9fX2KoiCEwPMhQggpijIyMvLzn/+81WrlcjnDMEzT5JzD4UMIicVin3322dWrV3t6ehRFQQiB5/BRFGV4eHhycjIej2cymWazCbtFKa1UKvV6HWOMEMIYc84BgHfQDvgzEEIYY4QQ6wCP560J4PlwIYREUezu7r527RrGmHP+9OnT1dVVzjkcerIsh0KhTz755PPPP79w4UIymZQkCSEEng8Xxtjn8/X391+7dq1er3/33Xerq6uO48AhIwjC+Pj4lStXLl26NDo6qqoqQgg8hxLGWFXVRCJx4sSJYrG4tLRk2zbsFusAlwghmqbF4/Gurq7t7e10Ok0pBY/n7Qjg+dD5/f7JyUlRFCmlhBDTNKvVqq7rjDHOORw+GGNBELq7u8fHx3/+85//7Gc/SyQSPp8PPB8BQRCi0ei5c+copfl8vtFolEol27Y553A4KIoSjUYvXLjw1VdfTU9Px+Nx8BxiCCFRFLu6us6fP7+zs5NOpymljDE4QIqiDA0NjY+Px+PxmZmZbDZLKQWP5+0I4Pk49PT0fPHFF/F4/Pjx47dv315YWKjX65ZlMcbg0EAIYYz9fn93d/e1a9e++eab06dPx+NxSZLA89HAGEcikampqV/+8pehUOjGjRs7OzvtdhsAOOfwnqAOQsjIyMilS5e++eabTz75JBqNgucoiMVin3zySaFQePXqVTqdbjabnHM4EISQRCLxy1/+sq+vb319HTwelwTwfBw0TRsZGQkGg4lEQpblQCCwsrKytbXVaDQopXA4iKIYjUZHRkamp6c///zz69evR6NRVVXB8zHBGKuq2tfX98knn8iyLAjCkydPXr58aZqm4zjwPiCEMMbhcHhgYODy5cs/+clPLly4MDg4CJ4jwufzjYyMnD9/fn19/e7du4uLi5RSxhjsM0JIMpk8ffr0tWvXfD7fzs4OeDwuCeD5aGCMw+Hw8ePHFUUZGhq6d+/ezMzMyspKrVZzHIcxxjmH9wFjLAiCLMuxWGxqaurq1atffPHF8PBwJBIRRRE8HyVZlnt7e2VZTqVS8XjcNM18Pl+r1SzLYozBASKEyLIcDAYnJia+/PLLy5cvnzx5MhKJgOfowBhLkjQ1NYUx5pzXarVyuazrOmMM9o0kSaFQ6OLFi19//fXQ0FCz2cQYg8fjkgCej4kkSYIgHDt2LBgMRqPRZDL55MmT+fn5XC7XbDY553DgEEKSJCUSidHR0enp6VOnTp08eXJycjIQCIDnI4YxVlU1kUiEQiHTNAVBmJ2dXVhY2NraajabcFDw/28Pzn7jKs/HgT/Pe9bZV49nPOOJ7Xgmjpc4wQFCcL4hjUXCpkCgYlEFFFAvWoF60T+A2173BlVIlVraIBapaktBJCSEAFlQtrpxYmPHdhx7PLYnnv3MmZlznp90JEuOgpM4hJD+eD8fxhwORywW6+3tvd/S2toaDAYFQQDufwdagsHghg0bcrmcKIqHDx+emJjQNM00TfhhhMPh3t7enTt39vf3h0KhSqUCHLd6InA/MYwxu90ei8W8Xm8oFAqHw6FQaHh4eHp6Op/Pl0qlSqVSr9fhhyfLsqqqXq+3sbExkUj09fVt3ry5ra3N5/PZbDbgOABRFB0OR1dXl9/vD4fDwWBwcHDw8uXLhUJB07R6vU5E8MNQVdXhcPh8vmg02tXVtW3btk2bNkUiEbvdLggCcP+DJEnyer1btmxxu92GYSiKMjMzk81mdV0nIrgdEFGSJIfD4ff777nnnh07djzwwAPt7e2CIADH3RIRuJ8expgsy16vN5FIBIPB3t7esbGxwcHB8+fPDw8PT09PZ7NZ+OF5PJ54PH7vvff29vYmEol4PB4MBp1OpyiKiAgcB4AWn89nt9udTue6desGBwdPnTp19uzZ8fHxXC5HRPADYIyFQqFEIrF58+bu7u61a9fG43G/368oCmMMuP9NiChJUjAY7OnpMU2zubn56NGjg4OD09PThmHA7SCKotvtXr9+/fbt2zdv3tzZ2dnY2KiqqmEYwHG3RATup4ox5nK5HA5HU1NT1NLe3r5+/frJyclUKpXNZnOWQqGg6zoRwffDGFNV1e12ezwen88XCASampqam5s3btzY0dHR2NjocDhwCXDcMqIoCoIQj8cDgUAwGIxEImvWrPn222+npqbS6XQ2my0Wi7qu1+t1uFWIyBiz2+0ej8fv9weDwUQi0dnZuWHDhra2tmAwqCgKYwwRgfsfJ0mS3+/fuHGjy+Xy+/1r1qz59ttvp6enM5lMPp+vVquGYcAqSZLkcrm8Xm9jY2Nra+vGjRu3bt3a1tYWCAQkSQKO+x5E4H7CEFGwhEIhr9fb09NTrVbn5uampqbOnTs3NDR04cKF0dHRTCZjGAZ8P4Ig+P3+RCLR0dHR29vb19fX0NDgcrkURZFlWRAExhhw3AoQURRFt9udSCTWrFmzdevWVCp17ty5o0ePDg0NTUxMZDKZYrEItwoRFUUJhULr16/fZEkkErFYTFEUSZIEQUBE4P6/gIiSJAUCAbfbvW7duoGBgZGRkc8///zEiRMjIyOLi4umaRIR3DREVFV1zZo13d3dfX199913X3t7u8vlkiRJEATguO9HBI4DEATBZiEiu93u9XpDoVBHR0c6nU6lUplMJp/P53K5fD6vLdF13TAMIoKrMcZsNpssy5IkqarqcDjcFo/H09DQELZEo9Hm5mabzSZJEtxBsiz39/f7fL7FxcVKpQKroShKIpHo7Ox0Op1wO0iSlEwmH3vssXXr1i0uLsJqiKIYDAbXrl0biUQYY3ATVFV96KGH3G53pVKp1WqwGqqqrlu3bu3atXa7HRHhx4OIskVVVZvN5nQ6Gxsbt2zZsrCwkE6nFxYWcrlcPp8vFArlclnX9Wq1qut6pVIxDAMsgiBIkqSqqt1ut9lsdovH4wlYGhoawuFwLBaLRqPBYNDpdMIPKZlM/uY3v8lkMrB6kUiktbUVbhUiqqoaj8d37doVjUYLhQKshsvlamtrSyaTiqLA95BMJl944YUdO3bk83lYDcZYQ0NDT09POByWJAlWT7DIsmyz2VRVtdvt3d3ds7Oz6XR6bm4uk8lks9l8Pq/rumEYRFSv13VdBwBJkmw2m6IokiQ5HA6Px9PY2BiJRJotsVisubnZ5/MJggDLMMYaGxu3bdvW2Ni4a9cuwzDg5giCoKpqMpn0+/3A/SQhEQHHrcA0TV3Xs9lsKpWanp5OpVJXLNlstlgs6rpumiZcTZZlr9frdDptNpvH4wkGg5FIpKmpKRwOezweWZYRETjutjJNc3Z2dmZJKpXKZDL5fF7TtHw+n8vl6vU6WCRJUlXV6/X6/X6fJRAINDc3t7a2RqNRl8vFGAPup6pWq83MzIyNjV28ePHSpUupVKpYLOq6bpqmruv5fB4AHA6H1+t1uVw2m62hoSEajXZ1da1du9bj8SiKAhx3uyERAcetgIgMw6hWq5qmlctlTdN0Xa9aarWaYRhEBFcTBEGWZUmSBEGQJElVVZvNZrfbbTabJEmMMUQEjrutiEizlC2apum6XqvV6vV6rVarVqtEBBbGmCAIkiQpFlmWVVW12+1Op9PhcIiiiIjA/VSZplkulwuFQtGiaVq9XjcMg4hM06zVakQkLREEwWaz2e12r9frdDplWRYEATjudkMiAo7jOI7jOO7uw4DjOI7jOI67KzHgOI7jOI7j7koMOI7jOI7juLsSA47jOI7jOO6uxIDjOI7jOI67KzHgOI7jOI7j7koMOI7jOI7jbh8iAgAigh8VEcHqkQVuGi0DPwAGHMdxHMdxtw8i6rp+4cKFer0OyxARWMgC34WI4HYgonK5fPz4cVg9wzCGhobK5TLcBNM0a5Z6vV4ul3VdhyWapo2OjsL3w4DjOI7jOO57IyJYous6Ip47d840TQAgIgBARNM0AQARDcPI5XJfffXV5cuXwUJEAPBfC3xviJjP5/fv3w+rhIizs7OCIJw5c8YwDLiR2dnZ3//+93/84x+Hh4c/+eSTo0ePwpLR0dFSqXTkyBH4HkTgOI7jOO7HQ0SICN+FiBCRiMCCiESEiGAhIlgGEWEFRISIcA0iQkRYJSJCRLgGIs7Pz4+NjS0sLBDR3NxctVoFgNnZ2XK5HIvFenp63nrrLU3T6vW6IAh2u93v9zc0NIAFEQ3D+OKLLzo7O+F2QERRFGH1YrHY+Ph4IBA4fvz41q1b4UYCgcCvf/1rAJienm5tbSUiRASA7u7uVColCEKtVpMkiYgAABFhNUTgOI7jOO6OIyLDMMbHx6empmRZjkajsix7vV6HwwHLZDKZkZGRxcVFr9cbjUYlSWpoaJAkCQAQUdO0qampSqUCAIjodDrtdrskSR6PRxAEsBCRpmlXrlyZmprq6+uTZRmWIOLExMTo6OjAwABcFxHNzc2dP38+nU4LghCNRtesWaOqqs/nQ0RY4na7e3t7R0dHA4EAY0yxTE5O9vT0BAIBIqpUKq+88kowGBQEAa5GRNlstlAoJJNJuBoRISIsQ0QAgIiwMsZYNBqFW9LS0nLhwoXBwUGfz7d+/Xq4aZcuXfryyy8XFhYYY2Cp1WqHDh0Ci2EY3d3dAwMDcNNE4DiO4zjuDiIiRKxUKu+8804qlero6PD7/cPDwy0tLdPT08lk0uv1EhEAnDt37oMPPgiHw+vWrTMMY2hoqLW1dWJiYtOmTTabDQAMw/jmm28WFxe9Xi8AmKYpSdKGDRvS6XQwGGxoaABLvV6/ePFiMBg8fvz4tm3bYJlisTgzMwPXVS6X33///enp6Y0bN/b09CiKks1mT548GQ6H3W53OBz2eDxgURQlm81KknTp0qUtW7YQ0eTk5OnTp/v7+30+n6ZpAOBwOARBgO+SzWafeuqpxsbGWq0GlmKx6PV6C4XCxMSEw+HweDzpdBospmkuLi7+3//9HwAUCgXDMGAZxli9Xu/u7s5ms7CMIAiZTCYQCLhcLrAQESLC1RCxra3t8uXLXq8XrkuSpPvuu4+IwGIYxlNPPYWIjDEiAgBBEADAMAwAME1TEARYDRE4juM4jruDENEwjAMHDszPz7/yyiuxWAwsc3NzjLGDBw/u3bsXETVNO3z48IYNG5566ilEBEsqlRodHf3444/37t0LS+6zgIWIJiYm6vX62bNnH3zwQZvNBpbTp0/v2bNndnZ2cXHR5/PBTcvlcm+99VZjY+Mbb7zhcDgAABGJqK+vL51OLywsnD17tq+vz+FwgMXr9ebz+ZGRkYWFBZ/P989//rO3t9fv98ONlEqld955p7W1lTH23nvvybKMiKZpvvHGG9VqdXFxEQBsNtv7778/MDAAAEQkiiJYvv7669OnT9vtdliSTCabm5v/8Y9/+Hw+WGKz2Xbu3Hnw4MH+/v6Ojg5YMjs7axgGIsLVurq6iCiVSimKQkRTU1PVavXee+9FRFhiGMapU6emp6e7uro0TbNZwDI5OdnS0kJE58+fP3fu3NNPP80Yg1USgeM4juO4OyubzZ47d27btm2xWAyWhEKhhYWFmZmZ6enpaDSqaVooFOrr60NEWBKJRFRVZYwRESLCNRCxtbU1k8nUarVDhw49+uijYNE0ze12Nzc3Hz9+fPfu3XATiKher//pT3+KRqPPP/88Y4yIFhYWAMBmszksHo9HVdUDBw7s2bOHiBARAGKx2OTkpGEYMzMzbW1tP/vZz2DJli1bJEmCJUQEAIgIAAcOHAgGg7/4xS/K5TIAvP7666qqgkVV1e3btxNRoVAAgP7+frjGPffc8/DDD8My6XTaZrO98cYbsEytVoOrIeKnn36az+cZY/Bdenp6YrHYsWPHRkZGnn/+eUSEZUzTLJfLmzZt8vl8IyMjgiCYpnn+/Hm3233lyhUiamlpGRkZiUQiuVzu8OHDTz75JKyGCBzHcRzH3VnpdLpSqWzatAmuFggEwuGwaZoAgIgbNmyo1WpwtYGBAbiRQCBQLBYvX75crVYlSQKLLMsul8vv94+Pj7e2tsJ1EREinj17G9BgHQAAC+pJREFUtl6vP/PMM4IgaJr29ttv67re1dXV3t5eKBS++OKL3/72t6FQKJVKlctlm802PDy8uLjIGHM6nQBw4MABr9c7ODgIANVqtbe39/z589lsNhKJNDQ0DA0NIWI+n3/iiSdmZ2fPnDnz8ssvM8bgjnvxxRdhZUR09uzZ4eHh3bt3J5NJuIYsy/F4HAAEQSAi0zSPHDny8MMP+/3+fD6v6/rQ0NCzzz6r6/ro6Ciskggcx3Ecx91BpmleuXLF6/U6nU64WmNj4zPPPAMWRVF0XVcUZXZ21u12q6rKGCMiRISb4HA4FEWZnp5uaWmBJcFgsFwuDw0NrVmzhjEG12Wa5rFjxx544AFVVU3T3Ldvn8fjeeGFFwRBKBQKn3zySWdnJwA4nU7TNNPpdGtrq81mq9friKiqKmNscnLy/vvvB4soioyxXC63a9cun89XKpVGRkaee+45wzAURXG73S+99FJLSwsRAcC9994rCAIRISL8qIhoeHj473//+xYL3AgRISIRMcZ8Pp+u66dOnTJNMxaLZbNZQRBglUTgOI7jOO4OMgzDNE232w3XZbfbnU7n0aNHnU5nY2Oj3++3LXE4HHAjsiwzxnK5HCwjiqLb7Y7H46dOndq8eTOsDBErlcri4mIymQSATCZz6dKl119/XRRFAGCMZTKZzs5OsJRKJcYYEcXjcVhSLBbb29s7OzthiaZpABAKhRwOR7VaFUWxqakJLA0NDePj49PT0w6HIxgMzs/PHz16VBAE0zRzudzjjz8O1+X3+2VZhmWIiDHW0dEBt4qIAGB0dPTdd9/dvHnz7t274bvIsrx161YiQkRYBhHdbnepVBocHEwmk7IsAwAiwiqJwHEcx3HcHUREiqIIggA30tbWtmbNmosXL46NjQ0NDbnd7u7ubkSs1+tdXV2wMiJCxEqlYpomXC0YDJbL5fPnz2uaZrPZYGWGYdhsNo/HAwDFYjFgAQAimpub83q9sVgMAIrFoqZpjY2NAJDL5ebm5hhjkiQpiiLL8tjYGAAQka7rbW1tsAJE9Pv9xWLR4XAoijIxMdHZ2el0OkulktvthhtRFKVWq42Pj8MSRVFqtZrb7R4fH4cljDG73Q43gYgAYHh4+N133924ceNjjz0GK6jVal999dXIyEhvb2+5XLbb7bCM2+1ubW0tFotwq0TgOI7jOO4OEgTB7XZXKhX4LkSEiLBEEISEBQCKxeLk5KQkSefOnWtsbAwGg7ACRKzValeuXHE4HHANn8/X0tJy7NixHTt2wAqICBGj0WixWPT7/TabrbW1FZakUqmenh4AIKJPP/20p6dHVVUAKFsEQSgUCuFweG5urlAoFItFInK5XABQr9dhBZFIJJVKJRKJYrEIAJ2dnYg4NjbW3t4ONzIyMjIzMxMKhWBJPB4PBAJHjhyZnZ2FJZIkrV27VtM0uC4iAoCTJ0/+61//uu+++x555BFEhBUQkWEY/f39Ho/n4sWLsERVVQAYHBz0+/0XLlyAWyUCx3Ecx3F3kCAIqqra7fZarSZJEiwhIsMwTp8+3draGggEEJGIEBGWOJ3Orq6uTCbDGBseHg4Gg/BdiAgRU6mUpmlNTU1wDafT6XK5RFEsFouwAkSUZbmrq2tsbMzv95umGYvF0um0w+EYHBx0u93xeLxQKBw5cmRycvJXv/oVWCKRSDgcnp2dXVxcdDqdHR0dyWRyZmamvb0dAEqlUr1elyQJvsvs7Oz+/fsTiQQsqVQqH3zwwe9+9ztJkuC6RFHctm3bpk2bYJl0Oq0oynPPPQfLlEqloaEhp9MJ34WIAMA0zc8+++zrr78eGBjo7++H6yIiURSbmpoAgDEGFqfT6XK5Zmdn9+/f/9prr7lcrvn5ebglDDiO4ziOu4OIyG63d3d3nz9/HpZBxEwm89FHHxUKBdM0x8fHv/jiC7iGoiiZTKZWq8EKEFHX9cOHD7e0tLhcLrgGIgaDwUgkMj8/DysTRdHj8QiCUCqVmpqaSqXSX//617fffttut+u6vm/fvj/84Q/FYvHVV191Op1gISIA+Pjjj1OpFAAcP358dnY2YyGicrksiqKiKPBdEFEURVgGEYlIEAS4kSeffHLTpk1wExwOxwsvvBCLxeAaRISImqb95S9/OXHixN69e/v7++G6iMg0TUSEq/X19VWr1ffee6+9vT0cDhuGcfnyZbglInAcx3EcdwchotPpdDgcuq5XKhVVVQGAiOr1+kcffRQMBltaWhCRiMLh8NzcXENDAyISEVguXbqUSqV27twJlkgk4vP5AICIAAARa7Xa/v375+fnf/nLX8IKZFl2uVzZbDaXy8EKEDEQCFy5ciWVSkUikQctYCGivr4+RIRliAgApix79uwBgFqtFo1GiejIkSN79uxJpVKhUAhWgIiMMbgGYwx+eEQEAKlU6s9//rOqqq+99lo4HIabUCwWFUWBq2UymZMnT2qa9thjjzHGHA6HqqpwS0TgOI7jOO7OcjgcAKDr+szMjN/vl2U5n89//PHHMzMzL730EiICQFNT09GjR6vVar1edzqdgiDouv7f//73888/TyQSa9euBUs0GrXb7VeuXCGiWq02Nzf35Zdfzs/PP/roo/F4HFYWCoU0TTMMA1bmdDqbm5u/+eabQqEQi8WcTqeiKIhYrVYnJiYikYjb7YYliGgYxocfftjb2xsIBIrFIgAoiiLLcqFQKJVKx44da29vh5sgiiIiwvdARHATiAgstVptbGyMiDZu3Lh9+3ZVVeHmTExMBINBuFq1Wk0kEgMDAx6PBwAefvhhIpqbm4PVE4HjOI7juDsumUwODw9/9tlnpVJJ0zRd12Ox2MsvvxyLxcCiqurWrVsPHTr0+eefm6ap63q5XHa5XA899NCDDz6IiAAwMzOzb98+WMbhcMTj8T179kSjUbAg4sTERKVSgashImPs4MGDbW1tsLJgMDgwMHDixIkPP/xQ0zQiKpfL9Xo9FArt2rXL7XbDEiI6dOgQEe3atYuIYElzc/Ozzz6bSqVmZ2d//vOfgwUR4WqiKMbjcSICgCeeeAIAarUaWgCAiBARAPr7+4kIABARbgcimpqa+uCDDwzD2L59e2tra7FYlGWZMQZLiAgAEBGWEBEA1Gq1U6dOPf3000SEiKalXq+nUql4PD5tAYvb7UZEWD0ROI7jOI77Mayz5HI5TdNcLpfD4YCrKYqye/fuXbt2LS4u6rput9s9Hg8sk0wm33zzTbiRDRa4Rjwef/PNN+FGJEl60FIqlYrFImPM7XYrigJXGx0d/frrr1988UVVVQEgn88zxsBSqVT+9re/bdmyxefzAQAiAoBpmrCEiOr1uiRJFyz/+c9/Wltb+/v7GWNEdPTo0XK5DADFYnFhYeHgwYMAwBjL5XIbN25saWmBayAiY8w0TVgZES0sLBw6dGhoaKi9vf2JJ56w2WyHDh2amJhoamry+/2qqkqSJAgCW4IWxhgiGobx73//2+l0JpNJ0zQB4PLly+vXrxdFsaurC64myzJjzDRNWCUROI7jOI778XgssDJE9Pv9cBdwWGAFiUTi1VdfjUajtVrtnXfeuXTpUkdHBwBUKpV9+/bFYrGdO3fCknQ6bRgGLEHE0dHRycnJUqnU0tLywAMPhEKhdDoNAPV63efzuVwuxhgAJBIJWBIMBt1uN6xgcHCwVqvByhDR6XSKovjMM890d3eDZdeuXaOjo2fOnEmlUgCgKIosy5JFtAwNDe3YseP+++/XNA0A9u7dyxgrFApvv/12sVh8/PHHRVG855574BpnzpwxDANWCYkIOI7jOI7jbp9vvvnG7XYnEgnGGABomibLsiAIsCSdTs/Pz3d3d8PKLl26dPLkyUceeURVVVi9UqlUrVZ9Ph/cqmKxmM1my+Wypmm6rlctuq739/e7XC5Ypl6vnzhxIplMBoNBWEEqlcpkMt3d3bAaSETAcRzHcRzH3X0YcBzHcRzHcXclBhzHcRzHcdxdiQHHcRzHcRx3V2LAcRzHcRzH3ZUYcBzHcRzHcXclBhzHcRzHcdxdiQHHcRzHcRx3V2LAcRzHcRzH3ZX+H12ohI2MUq8zAAAAAElFTkSuQmCC;" vertex="1" parent="cJpC4bxOb8W68x44Jm_f-33">
          <mxGeometry x="71" y="20" width="86" height="60.53" as="geometry" />
        </mxCell>
        <mxCell id="cJpC4bxOb8W68x44Jm_f-34" value="" style="endArrow=classic;startArrow=classic;html=1;rounded=0;exitX=0.463;exitY=1.037;exitDx=0;exitDy=0;exitPerimeter=0;" edge="1" parent="1" source="cJpC4bxOb8W68x44Jm_f-1" target="cJpC4bxOb8W68x44Jm_f-27">
          <mxGeometry width="50" height="50" relative="1" as="geometry">
            <mxPoint x="630" y="690" as="sourcePoint" />
            <mxPoint x="680" y="640" as="targetPoint" />
          </mxGeometry>
        </mxCell>
        <mxCell id="cJpC4bxOb8W68x44Jm_f-35" value="Retrieve documents similar to query" style="edgeLabel;html=1;align=center;verticalAlign=middle;resizable=0;points=[];" vertex="1" connectable="0" parent="cJpC4bxOb8W68x44Jm_f-34">
          <mxGeometry x="-0.1168" y="2" relative="1" as="geometry">
            <mxPoint as="offset" />
          </mxGeometry>
        </mxCell>
        <mxCell id="cJpC4bxOb8W68x44Jm_f-42" style="edgeStyle=orthogonalEdgeStyle;rounded=0;orthogonalLoop=1;jettySize=auto;html=1;exitX=0.5;exitY=0;exitDx=0;exitDy=0;" edge="1" parent="1" source="cJpC4bxOb8W68x44Jm_f-40" target="cJpC4bxOb8W68x44Jm_f-14">
          <mxGeometry relative="1" as="geometry" />
        </mxCell>
        <mxCell id="cJpC4bxOb8W68x44Jm_f-46" value="Show answer" style="edgeLabel;html=1;align=center;verticalAlign=middle;resizable=0;points=[];" vertex="1" connectable="0" parent="cJpC4bxOb8W68x44Jm_f-42">
          <mxGeometry x="0.2234" y="1" relative="1" as="geometry">
            <mxPoint as="offset" />
          </mxGeometry>
        </mxCell>
        <mxCell id="cJpC4bxOb8W68x44Jm_f-40" value="Answer" style="ellipse;whiteSpace=wrap;html=1;fillColor=#e1d5e7;strokeColor=#9673a6;" vertex="1" parent="1">
          <mxGeometry x="110" y="522.5" width="80" height="45" as="geometry" />
        </mxCell>
        <mxCell id="cJpC4bxOb8W68x44Jm_f-43" style="edgeStyle=orthogonalEdgeStyle;rounded=0;orthogonalLoop=1;jettySize=auto;html=1;exitX=0.5;exitY=1;exitDx=0;exitDy=0;entryX=-0.006;entryY=0.957;entryDx=0;entryDy=0;entryPerimeter=0;" edge="1" parent="1" source="cJpC4bxOb8W68x44Jm_f-40" target="cJpC4bxOb8W68x44Jm_f-1">
          <mxGeometry relative="1" as="geometry" />
        </mxCell>
        <mxCell id="cJpC4bxOb8W68x44Jm_f-44" value="Update chat&lt;div&gt;history&lt;/div&gt;" style="edgeLabel;html=1;align=center;verticalAlign=middle;resizable=0;points=[];" vertex="1" connectable="0" parent="cJpC4bxOb8W68x44Jm_f-43">
          <mxGeometry x="-0.2555" y="1" relative="1" as="geometry">
            <mxPoint x="-1" y="-62" as="offset" />
          </mxGeometry>
        </mxCell>
        <mxCell id="cJpC4bxOb8W68x44Jm_f-55" style="edgeStyle=orthogonalEdgeStyle;rounded=0;orthogonalLoop=1;jettySize=auto;html=1;exitX=0.5;exitY=1;exitDx=0;exitDy=0;entryX=0.5;entryY=0;entryDx=0;entryDy=0;" edge="1" parent="1" source="cJpC4bxOb8W68x44Jm_f-47" target="cJpC4bxOb8W68x44Jm_f-51">
          <mxGeometry relative="1" as="geometry" />
        </mxCell>
        <mxCell id="cJpC4bxOb8W68x44Jm_f-47" value="Upload document" style="strokeColor=#dddddd;shadow=1;strokeWidth=1;rounded=1;absoluteArcSize=1;arcSize=2;fontStyle=0" vertex="1" parent="1">
          <mxGeometry x="-326.25" y="510" width="130" height="30" as="geometry" />
        </mxCell>
        <mxCell id="cJpC4bxOb8W68x44Jm_f-51" value="" style="rounded=1;whiteSpace=wrap;html=1;" vertex="1" parent="1">
          <mxGeometry x="-380" y="590" width="240" height="150" as="geometry" />
        </mxCell>
        <mxCell id="cJpC4bxOb8W68x44Jm_f-52" value="" style="image;sketch=0;aspect=fixed;html=1;points=[];align=center;fontSize=12;image=img/lib/mscae/Docker.svg;" vertex="1" parent="1">
          <mxGeometry x="-180" y="720" width="50" height="41" as="geometry" />
        </mxCell>
        <mxCell id="cJpC4bxOb8W68x44Jm_f-54" value="Context based&#xa;parser/chunker of text" style="shape=image;verticalLabelPosition=bottom;labelBackgroundColor=default;verticalAlign=top;aspect=fixed;imageAspect=0;image=data:image/png,iVBORw0KGgoAAAANSUhEUgAAAMgAAADICAIAAAAiOjnJAAArYklEQVR4nOy9eXwUVbr/f05V9d7pJftGOkknISubCVwQBy8KosJreDkiowzKjM6AzkWcxbneGb1e5947M8wdX16d34yOywVnXAbR36hgAJVBUdQRCJAAISRN9o3s6b27lu8r9SSHSnenE5Zm6a7PH7xIddWpU6fe55znPM9TVYwgCEiWrEst6kpXQFZ0SgZLVkQkgyUrIpLBkhURyWDJiohksGRFRDJYsiIiGSxZEZEMlqyISAZLVkQkgyUrIpLBkhURyWDJiohksGRFRDJYsiIiGSxZEZEMlqyIKArBkjNirwZFG1gCQv1uN/yfl7Our5yiDSwfy35/5573jp+Ea5PZulKKNrB4QWgdtq/8cN+uU6cRxhTGMltXRNEGFkIoW6tBKuVtH+6rrK0buUKZrSuhKARryM8iis5Rq27f83eZrSulKASLxgjxHI9xukYts3WlFIVgifjgXp53Ypwhs3WFFIVgYfFfNcZDPO8aY2sXsCWvEy+XohAsAIcfmRPxgCBw1Ahbt324b4QtjCnZg3pZFIVg4bH/8AgpEOriBZqi0tUqwtaVrV6MKArBkopHiEGohecVFJUhslVZW4flCTHyinKwsDjxMQg18zyiqEzRB1Hf0xs5Q15+ew8oysECAVudPN+HUJJGfffuvcCWEAEKMMaCbMbFCFjAFkaIQ6gHoXaXq+CNt3fV1uERCoRLMnQBol0O53988vlZux0jxPL8paj4tapYAQvEiea8C2OpLX9JpkU4vsvpfOrgkY279/a6XAxFcTHMVmyBBea8QxAUY+vES+s7xRijeNP2to7vffBhr8tFxzBbMQcWWPTNPE+L68RL75dn2Yo4/Y72zvt27gG2YnMFGotgIXFCbOV5f2RiPqdYtixOX9nRda/I1qWo77WnGAULfKdnBcERwNalcHHpEKph2VK9bldH130793hYNgYnxBgFC9hSIjQkCB6MMyGeKOYG4ov2RfEIqRA6zrJlel1lR9cbJ2ppioq1RWLsgkUWiX2CIFBUilp120f79trO4EsR8/EhpMK4huNmxul+d/hYDC4SYxosMie287yGpuMVipt3/32frXGErYsbtDBCrOiVPcZyQ15vDC4SYwssASFa/I90UIJ4YhPPG2haS+HFuz/eZ2tEol/+4s9IISQomB3tnevGFokxwlYMgUWJDBkwTsKYHc+WMMZWAsPoKGrxro8b+wcu3tgSxJOe5YUZcboPxhaJMcJWrIAlIKTDWMdxBTptklIRPxaflu7AINTB8YiiTAr6zt17GwcG8QWMWxjzEmqBrZN+NlmrOdzbN//Nd14+Wu3lOP4ShZKuWsUKWDxC2RTldHt/WFr856WL+x3OLDHpLwAChJEfoUEBNdvtuW++s+9MI7A1RbxGdvP7EymKG5tzR7djPCwIZylKi4Tvf3Lg2+9+0O92UxhH8dAVK2ChEWtaQDTlZtlZ6WmvLFpgszstGOuCpsWRpSLGHMZqCi/etRfYmnRahLVkrtl0d2b6KaermKZ9YrGkZL9YbDU7sk7c0d55f7Sb8zEEFkYjaz1aJOB75XO2LFpgczjTMAo2uXiEhgUhXcFoRtgateXDswW/GpTK55YsvjM766TDUUbTrFiUtFhaXCfOitO939753ag2uWIIrACtK5+95RsL6u1OM0apVCBbGKEzHJ88ZstPiS0xIpSo1Ty/7KZVlqwah3MWQ/PjLTkstvhRlpsRp9sp+uWjla0YBQtu5Lry2Vu/seC0w2VAIcYthRirNjCMlp4qW2A2JWo0f1x202rLtKN250xGamuNpoUpEKr2c+CXvzdKY9UxCha5kfeVz956w/zTDpcJo7jxbEHMp5PjdAwtZSt8/jEMP4kazf8nsnXM7kzEmBm/D4+QCp+LJ67buafX6bokHv+rRzEKliAIJJfhvvLZW26YX293JoseB07CFoeQEuMejjcxjI6mFu8eteWnztYqyzSeZb0CCmCLFZ98PM6yZaKL6/u7PnT5fNE0aMUoWDDwELbA3oJ1ogqP3HUiYKuD5xMZsOXPj60/LrspSa0uZGhvUFv7xZJrWG6mXvduU2t9X/9FxpGuKsUqWGMax5a4TszEOF58IIKIG7O30hTMqA/CNuqDCKOR2VZk62fls085HCU07R+zsaQlqxDq5nmkVIi/Rc9sGOtgBY9bDSNWEdLgEPHEMxyfOrJOPOeDCD/GUCNsCXcVFayyZJ1wOPMoih/vgBjdTXyvF8ZR9XCPDBYKZuu0w5WAJownjtpbu6YUq6YorGGYP95y0705lgavN5sKbPBzY1jAaHaNSwZrVFK2tt4w3+n3m0LFqhUItUvWiY39A5M+pCoglKjV/Mei601xcU1+f6oYTIx6yWCdEzX2rOl95bMfL59NeX2J4p9SakbmRIz7OJ6iqEQFc+eevU2Dk8WqRctJp1SUazWI45koMqTCSAZrnCC6xwvCI/PKn55f0etw5WAchzEXGKvGXoR6EWodtue+8Q7JDQyNlzD6Dx9dk114yWCFEAxdsE5scDhTMEoOFU9kEPJjLM0NvPgUrqiRDFY4EVveFCqeKIix6oTziSfGjmSwQou86mjdWMzHgFBC0LhFIdTK8frziSfGiGSwECzrgsMpATGf03ZnPEbaIHtLiVE3x+kZWuqDwONdrDEoGSzweId+NUiAf6ve7kwTc6qC44lnOd7MMCqaWrxn7whbIq2X/VKuIsU6WLBQc/r9Qz7fVNiy2Z1ZGKvHz4mQdNrG8VaFAnHcfQe+6ne7cVRnHk+qmAdLvPcHzjTNeetvHXZ7yDz0gHjiGYfTgjG4T4l40V1lF3hE0ykIcxx3mS/kalOsgwViBeFMc9u9O/e0D9tD5nNK2Xp23nWnhoanUZR5vCElPrSIES9QeNIIdfRLBguNPgphjNvb07d6525gK8yc+NCCeU/Pu65maDidohShXJ4cEqIpnHxhksESJSDEchV67YGevrt37m4btofcC9hiMH74hgVPz51zYmgYBq1YH51CSQYLNDLCtLFcikZ9emj4+m3//2et7SEfJwS2KEF45IYFn935zUSaNokOCFkBksE6JwahbkHopig9xmv37O1wOEKu7CjRN4EEYaFl2vM339g37JhOU6qYN6oCJIN1TjA6KRA6yXEuv3/1jt0T2fJk6Fpgmfa7eXNODdmzKWwYGbpi3rYakwxWoEbfSMMwB3r6vr1zErYwQptEe+vkkD2Twmost+eo5IYIrQFBKNZpP5+MLSQ+fvPwGFtmSnzc+grU96qTDFZoYXFCnKHXfd7Td9fO3Z12R0i2MEYczwNbv5s75+shO6IoLC8TZbDCiEGo2u+fo9d9cbb3h3v2Dnq8IdmCjYw4Jz5TMRsNDutlrmSwzinUso7BuEp8pvRvbR0bKvcMTcwWLwgj49bC+b+aX/6p042pWIcr1sECe8gvvtfKNPYIDZb8xCBUw3LT9dptzW0/mJitUf8WQj++4fraO5Yb1WpxY+w2b+xeOYgSB6q50zJvy8467nCWiO8eIgK2aITqOL4wTvdWc9v6yj2DHk/I12vD58RUNFWYlMiIjMaybyvWwYJ3D6Xqda/cevOtGWknnM6ZDM0GPDohsnWK40vi9Nua2x6s/GjQ42FCsQX5fdH0CoYLVqyDNTqL8XyqTvd/ty65NT3tmMM1k6GDozQ0Qic4bpZB/9eWc2wFM4THRsEYlwwWgmfhOZ5P1QNbqccczqQgOLDI1lGWuy7uHFtXqL7XgGSwRgUru2Sd9q1v3vbCousVSDCNf2SZzIlVLJuq0+zt7F74xttHu7qj/v3HF6aYAktAYQ0giC5rGGb9rBlPzC3vc7sL6dE5UTp80Qj18EIPQ3M8d++uj+1eH4VxrH0qZ1LFFFgjUtCTXDK8fmhNceGy9LRap3MGE8iW1Jzvdns2VH44kS0fy4ohsCDSMuT1TfoaD4qidApmi2jLVztcsxiGDfUyGBohWsn8taWV2PKx/PREgGIFLCx+iUmvUW+sOdkyODTpu6gEhIgtf1R8tzYXdAgWP2cyJy6O2PJR+f7jC1OsgEWLn4/TUxTyep86dGTS73vB4zpjbKXVOJ1FdKAPAj5nUsWys0fWia0bKj+ayC8fg4pCsGg8MunxSJAOS4L4CuQunrcolf93uuFAc+vot0zClCPxQYC9VSB+yyTYlj/CsmV6/bbm1vUTx3xiTdEGloBQi8+PENJizAvjPmgDj5U287yBohZWfghsTfjuIVGEra23LV2Wnnba5SqkKW68vQX+rRqOK4zTbRNjPjJbUQiWVqHYVFaE3B4DwiYK+wRByha8ewhRFBIEka2Wqbz/mOf5FJ0W2DrldJWO90FIF4ljbH04Pp4Yi16uaAMLIfS9iuuev35end2RgbGZonxi0gGRgJBDECwKBRLQwsqPpsIWNcbWlttG7K3jTidZJ0oFbJXFjcyJYeKJMaJoA4sXRkyr9f9U8fyCuSfsjnSMTRTlD3r3UDPH5SoZCo1na+JiR2M+Y/HEow7nRPHEGo6bbYiTxhNj85VG0QYWrOakbCVjbBz/ngXx3UP4DMvlKBRIylZYAuigeGIxTQcMR3jMlp8jrhMfFNeJ584aS4o2sEjUTxDQhn+qOHjXynyTEft8KRgrJEY3GPJNLGuiaSPGCz/48P6PP2kbHg4PwPh44kIfheMFIWQ88QjLpui0H3d2X//G9qPdZ8emWkGyV5QrCsEai/qNTIvlmRk7V638Vfnsboczk8JxGLPCKFu8mD/lEIQhjK0Kxf8dr938+Vf82JcHw5YM8cSyz1d/y6xUFE0QT+zlhV4xnnhP5Uduv1+vVntEtGLkUYvoBAtEXuPxoDgtNtidojk/7tXZ8BShUxAQTakomhV/mnRIEZeKQopO+9M5s046z9lbIeOJA27PL/b8/WBTk9fnReJCNULXe1UpmsGSsrVBZOuk3ZFOYQUOzEUny8KpDycUNWLMrSmeDrmBYeKJrFLxTFPz4h17DjtdaobpGr9KjVZF/zWKCaIjbI2a88OOBIz9IV4RI3VLTUk0RWkVChJPLJ0gnjgkCNkqlVWvo8Xz0hd/SdeCoh8sMrqQpaLL5zOMf0etROdtAJF44nGnczpNBccTsfjlsE6xAkKMmO4xAhZxFmBxTlyQkhyPkEH0QVzk9Z+LVd+25Jb0tDqnO19kKwBPCiFPtH2FaRLFCljSz/U+Ob+iyeFMQMgozk0X2QT0mO/05VsWl8Sb613u6eIzZFTQ18tjSjEEFrHlKzIznl8w94zDmSa+o9YvOusvRhBPzDQYdi6/pdRsqnO5Sxgaio01nohiCyzynRxYJJ6yOzKp0ZjPxRYrOiCyzaYdy5eVmY0nnO4yheLikb12FXNgEYEhf3zYkYax9lJ83hSWCNlm03siWzVOV4mCuXhkr1HFIlgYIekisdbuMIxMWvji33UM9lbOGFsnnCP2VmymN8QiWAGLxOcXzK2xOxHCNKYuxbg1ytb7y5eVmo11Lrc5Jl/6HqNgAVvgVdrwTxWHVq28Jd6kpKnRp+MvggQ8tvy0mIyf3bnyv+ddR/G8WUyDjim8mCtdgSupUV+7IFyXmV655i4Py9Jjj0hcpABQg0r583nlCKFf/ONwmU5T42cVY18HjnrF7ohFBE9VUAhpGebS+jBhWnxwRqloy7vLFIw/NiLQMlijEtkazT69tKIpyqhWja0T3UVirDoW5kQZrFFhHMHXD8E6sdRsrHW582mKjdBpribJYEVcEE/MEX2nJWZjvctD4olRPHTJYF0OQcwn22zauWKUrUKahlzWS+CZvSolg3WZBM+QZZtMO8U58ZTLXaqI5niiDNblEzU2br0v2vLHxXhitL4UUAbrsooaH/OpcbpKGNp3pWsVCclgXW5RQfHEjMneBXctKgov6SoXHh9PLDMbj7rciKajzIyXwboCksYT969a+dt55WMvvYkesnBsvlng6hEvCBTGHXZ7nFKpVyqjJhNCBuvKC9i60rW4xJKnwisvcM1HWf+WRyxZEZE8YsmKiGSwZEVEMliyIiIZLFkRUUznvF/94kN9a/Oa8HVFfFXI83xwQ1wTTXPVShCEq78BZXfD1ShARxAEm802NDTEMAxs4Xk+NzfXaDRe/WxFECxBEOx2+/vvv69SqeBPmqZdLldqaurixYtpmr76WydygjmOokLbuDzPUxTl9/s3btz4pz/9SfrT4cOH58yZAztcrspeiCJoYwmC4HA41q5dm56ejhBiWVan0zU2Nj7wwAM33nhjzIJFejLLskqlMvzOBoMBITRjxgybzabT6fx+P01fG68EjCz1wE1fX19vb+/Zs2c1Gg1CSKvVxiBPILA43W73I4888thjj3nEr0oHW+hEQKHX63U6nUNDQyzLXiumy+UYTuPi4qDnKcQX9scyVRRFeb3ezZs3//73v29ubua44K9bjBPDjEwpZrPZYrHk5ORcQ33ycrgbSCe7VnpbJARUcRy3efPmX/7ylwih+Pj48JQIgtDV1YUQ+uqrr8hGlr02nko8P7CADEEQrojlSDwXk/ZaMW1OuHiXD7lesuXCyiS29nPPPffkk0/Onz//yy+/hHkwpOAUDMP85Cc/uf/++xUKBVw7z/M5OTlTH/WFoI/mXUybBJQWvqhzYPE8Tw7DGEvREQQBLoyIbLkkhEFp0hoHn50SRf4EuAMuTFor+An2vIB6Sk8hPYsgCDB/ESM6YDoLWSs4+4svvvjjH/84KytrWPy2CjmW4zjS8tIzUhRVWloasrkmhYPjOCgn4MKD6z/FppC2asBPwdvHgRVcA9ib4zhaFNkOZcEWjuNClntewhhPdJ3Ss0vhll6VtGKkHCmL51tPaZ/heR5MZqiktDLQaME1D3njX3vttfXr1+fl5TU1NU2fPh0GJFjNgOkZ/vCA5pq0/lLuAVxoDWn9p9LZAnbz+/3QBzDGCoWCNFE4sIaGhux2OyV+Bs1sNmu1Wmg7qEdXV5fNZuvq6mpra3O5XHl5eYWFhXl5edA0F+lWcTqdg4ODQAzHcVqtNj4+nlCFEGppaamqqjp16pRCoZg2bVpmZmZhYSHsA6cmPb6urq6xsbG1tbWnpycpKSk1NdViseTn50+9nnBSr9d78uTJpqam+vr69vZ2lmUpikpKSiopKcnPz8/NzdXr9bBzT08PDA9Qfnx8vFarJXDAf95+++21a9cWFBT09fWxLOvz+RBCw8PDTU1NBoPB5/ORO5SUlKRSqYiDtK+vz+v1wgXCFrPZDNcSUqTbDwwMNDQ0NDc319XVnT17lmVZjUZjNpvz8/NzcnKsVmt8fDzpqGFKg1OfOXOmsbER/nU6nYIg6HS67Oxsq9Wam5trtVoJbecO5kUJgvD2228jhObOnZuWlvbGG28IY2ptbX3mmWfKysqCT7x27dpPPvkEdoNCpOI4rqOjAyGUIAr8MQihTZs2AfjQkziOO3DgAEKooKBgwYIFCKH169fb7XYopLOz83e/+x0wJNVNN9309ttve71eQRBgRBEE4c9//nPIBlq7du0XX3xBaiVMINIUAwMDTz75ZBj4Vq1a9e677w4NDQ0PD6tUqry8vNLS0lmzZiGEDh06RKoEpdXV1SGErFZramqqdK5UKpVWq7WgoCBfFLSwzWYjh/t8vn/7t39DCM2fPz83N7eoqCgtLe3IkSMTXQXZuH///mXLloWp/9KlS8PcOGlp3d3djz/+eJiiEEJvvvlmcFHnwHrzzTfJrnPnzh0eHhYE4a233iIbExMT8/Lypk+fXlhYaLVayfZnnnnG5/MFV3HqYO3fvz+grnB79u3bR4b07OzswsLC6dOn5+fnJyUlwcYf/ehHg4ODcCcIVTk5OQUFBYWFhQUFBXl5eaTMV155JUxTko1fffXVwoUL4RAYmIuLi0tKSoqLi4uKiqQXvmTJkkOHDgEiZOPXX38dANbatWtTU1PT0tKkls1EU399fb0UrIcffjhgrjx8+HBIsMiWHTt2wJ46nS6g/jDJ6HQ62GHHjh0TdTbYwvP8ypUrYeesrCxoVWgHaF6LxQK/vv7663CxpKhzYG3fvh0hNHPmTGi7Xbt2vfbaa3BYbm5uRkaG0WgkgzBN08nJydnZ2dOmTUMI/eY3vwm+Z1MH6/PPPwd0cnJy5s2bhxB69tlnP/roIziX1WpNT09Xq9Xk1EajMSsrCyyVRx991OPxvPrqqwghi8WSnJys0+nIfKdQKJKSkvLz87OyshBCW7duDdk7SbXfeecdwnFSUlKA9QOjPVx4RkYGNDfwl56eDoY2dAm4QEEQ4NKSk5OlViyMWAqFIjMzMysra5qogoIChFBDQ4MUrMceewwhVFFRkZGRYbVaU1JSQo5Y8KfH4/ntb3+LEDKZTBaLJT4+HtxgUtE0HR8fb7FYjEYj3DgY9aUFktb44x//qFQq8/LyMjIylEqlTqfLEmWxWKZNm6ZSqZRKZUZGBswnAf32HFjbtm0DhsA5DvUwj6moqGj69OlWq7WoqAiagHQLWADv3r1bOiudF1ifffYZXDN0JulUHR8fn5mZWVxcDJ1Peqdpms7MzISZDrakpKTAntNFSZs1KysLxozDhw9PNPi//vrrgBRAA1KpVFartVRUUVERGSxVKhUUSDobVObgwYPAhCAIR44cQQjl5+dnZ2fDECV1l2CMc3Jypk+fDrNhyKnwpz/9KUKoqKgIborRaKyqqgrgAP7v9/sfffRRsCikRlhaWlpxcXFpaWlJSQnUkNw4GEF++ctfSm8H+c+nn35Keg70Denh0I0TExMh7gT/OXDgADmckfZFstR3uVwKhUKpVIJ9x7KsVqtNTU3VarUul6uhocFkMg0ODoLdPTAwoNFoNmzYUFlZWVRURCzu85V07UnTtFqtBjLa2tpuvPHG+Pj4M2fO6HQ6lmUdDgcYzm1tbRqN5r333qNpOi4uzm63FxcXJyQksCxrs9n0er3f7/f5fCzLtrS0ZGZmGo3GDRs2/P3vf9fpdNJvjNvt9k2bNm3dujU9PR1MdYwxdAa4wSaTCWPs9XoHBgZSUlJcLhdFUZ2dnQzDuN1uMKul/YGmaY7jduzYsXTpUoVC4Xa7e3p63G63QqHwer1KpdLv96vVanCmE9s/NTU1ZNPBrzRNBxvasBxpbm5+6KGHDhw4kJSUVF9fDzcbY6xWqzs7O5OTk5VKJcuybW1tycnJXq+XpumBgYGmpiaLxfJf//VfR48eff7555OTk8lSt729/Yc//KHBYBgcHIS1iNvtvummm+bOnZucnMyybHd398GDB7dv3240GjmOM5lMfr//oYce+uCDDzIyMkbKISMWmFNWq5Ws0qHjLly48NChQx6Ph3QRu92+YsWK7Oxs4iWDufbpp5+WDobnO2IplUqI/MDZoX888MADTU1NZKgnU17AwAa21JtvvklGI5fL9fLLLyOE0tPTyQAM9vXx48dhN3Lt//M//0NGa7i1MFP8y7/8yxdffNHd3e3xeLxer91ur6ur27JlC+my0hsPVgGMWGQqhLO0t7fDqWF0h6YrLS1tb2+faN0jHbGKi4shMmYymaQjFgxsQ0NDy5cvJxWgKCouLg4q9uqrr9psNqfT6fV6XS5Xc3Pzu+++CwOt2Tz6mnC4Kf/+7/8OpUHJu3fvhvNSFAWX+dprrwWP8X/5y19g8IahESH03nvvwU+hwUIIwZifnp7e3NwcPPtWVlYihMDKIe111113DQ0NkQu+YLBgoYAQWrBgQW9vr/RKWJZ98MEHyb2BpoEhfcWKFS6XK8Dm2LBhA9kZ7iVCiCyIoJ6tra3wq1arJWaQTqd79dVXYUYLVm1t7Q033AA3OyRYUpNAEISOjo5IgAX/fvzxx9APiVUeFxeXm5tbU1MTsvKtra333HNPUlKSTqczGAxZWVmQfnL69GlSGVgJzZgxQ6lUpqSkIIT2798PTeoXBQPN6dOntVptWVlZSUnJokWLEEJbtmyBs0zo1AF7c+vWrVlZWQQ+4roFREj/hpZtb2+fNKo6RQHWTzzxREJCAsdxZAikafr2228n+STgUHE6nQihjRs3qlQq4iZmWValUi1duhSyA6BXwZ5nz56VBmpgZZeSkkJyB6xW6+LFi++9916IpQRIEITCwkIYt8AjNZFIbyS+9YAAC0w941bpUxOEdyD4uHfvXoSQXq+Hq4NZ6d1334VeFFz/zMzMp59+WqVSOZ3O4eHhlpYWKPMf//gHuZWwzgW4oen+9re/9fb2qlQqRhRszM3N7ezs3L9//xdffPH+++8PDg7eddddUFroWKHFYjlx4sT8+fMrKiqCo0IURcF9raurS0lJ6e7uhshod3e30+k0m81TbJ2JZDaba2trEUJz5syROn5gOIHxqa+vT61Wezwek8nU3t6en58PrAesvGB26+zsNJlMXlEIoYGBAZJ4yPM8mNhg9wiCkJmZabPZnnjiiYkcqoC41Wp955131q1b5/V6wcYKeftJiwVskf55AfE7crqzZ8/CtEUQt1gs2dnZsBQIjupC5VNTU5csWdLU1MTzvN/vN5vNHR0dZ86cYVkW7FpoN5/PhzFuaWlJSUl55plnPv3004cffrioqMhisWi12ri4OJqmySQToNBgxcfHNzc3r1ixwmQyhdyBpumFCxd+/vnnsADx+/2wVAaz+oIF7WswGAYGBlasWEFsI6mgSn19fRqNxuPxwCEVFRUBKSXQ9MSzCu0FIwTUFqAZHBwE9yyBIz4+vq2tbd68eRO56QkHixYtUigUarUaeL0i6ujoOHLkSFpaWn9/P4y7x44dg1kpZP1JqOr3v/+9y+UiLQbdjKxCcnNzy8vLDx06lJCQMDg42N3dnZycXFVVtW7dOth/+fLlixYtgqhGQUEBGPjSUFJosKCJJ6IKuiCYQcGenovPuAKXVXZ2dsjCQ0QPRFuQOLqCdw5TPY7juru7yZ9xcXHwZ3JycpirgHuTkJCQn5/f1NQkLeEyCwYqjUYDge3ExMTu7m4AayLBdelEBf8KLZaQkPCv//qvq1atSk5O7uvrg6HRaDROmzbN6/U2NDTsFAWHfP/733/00Ufz8/NhBoDGCW1jgakUJiYVJl/74gXUa7XaMG6LAGLUanXI1fikx7pcLjAyyCUDJZMmDYPCR+4iKrhYu90OLQbWCNwUsioMowDDCwxZYr0hhL75zW/++te/ttlss2bNAj/I0NDQ8ePH6+vr4+LisrKyZs2aNWPGDKvV+tJLLxUUFGzbtg0iqnB4uHysqzxd/5IIPDQht0/l8Cv+lB8Zv883iTLMzQU4FArFT37yk8OHD0MQmaZpq9XKcRw4L1pbW6FDqlSq4uLi5ubmb3/721u2bFm3bh3EraMfnfDSarXgA4PR0ev1ksSKqRw+NDQUJl9PqkvOH5AEtjPLslKzIWRXCT42jAhbr7zyyl//+te7776b4zibzdbU1NTT0wNx5NTU1Pj4eEgDyczMzM7O/u53vwtLbBmsEaMeHCugoaEhcAv39PSEaX0Y7YeHh5ubm0nWXngFl3ZJJgSYssGnD2sahNC+ffvC1wRj7HK5BsdrYGCA5D3DPhzHxcXFrV69euvWrU1NTQcOHHjttdd+9rOfgU+hq6urv78fYhJ1dXVgc+/atQsuLXbBgms3GAwQ9iY3HqyWY8eOgZco5LGw/csvvxweHnY6nZM2I/FRwb9w/6qrqy8+gT0tLW3GjBmdnZ3g5eno6JgxYwZx+QbTTJJ1169fX1hYmJ6ebjab586dazabf/SjHxGfBUzxxGxVKpUWi2XBggVr1qzZvHnz1q1bbTbb9u3brVYrxHwQQrAs3bdvH8Adu+9uACuVYZjrrrsOfBAKhYJl2aamJqvV+tZbb915551gFEtTTwEphULR2dn5+OOPg+di0plFo9FMmzaturoaxpWBgQGr1Wqz2Xp6eiwWC5jPo1+3o6bU24lRlZycvGzZsurqavBYgjexurq6oaEhLy8Pagv1J151hmE6OzvBXw+TJhw7f/58QMTj8dTW1kLOLXQJhUJRUFCgVquhhhqNJleU1WoFXyN0SIqi9u3b53Q6ExISYnfEIqzcfPPNN9xwQ1dXl8FggCnAZrNVVlauWbPms88+gwmCGOkej6exsXHz5s233norZCJM5VyQb0m8MxC5h4j49u3bOzs7XS6XU9QUxzC4wRzHMQzzne98Jzs7u729HSajnp4ek8m0ZMmSxx9/3GazEVcfxtjn87W1tT3//PO33XYby7L9/f0qlSo3N7ejo6O8vBxCGlD4U089VVFRsXLlyptvvnn58uWzZs06evQoWTASX2BaWlpJSQn4CCFlITMzE64xdkcscm/i4+NfeeWVgoICt9sN6RvQU/fu3fvGG28ghO6+++7CwkLICNi2bVtbWxsEAMCDPxWpVKolS5b84Q9/8Pl8CoXC7/fDxHH27FkSA4mPj+/v7//000+/8Y1vTJFXyKEoKyt74YUXli1bZjablUqlz+cbGhoym83/Laq0tPT22283Go0ul2u/KIjZ9/b2QujM4/H09/dXVlZmZmZC0Eyj0axdu/a9996DsIpa1IIFC1588cWlS5empaUxDONwOGpqan7961+fOHECvBuJiYnt7e1r1qwBmzUWwQrIbxEEIT8//5133vnWt74FK2en0+l2uxmGsVgszc3N0txauBkqlcpms4EPeXBwMIw1Rgzh8vJyvV7f0NCQk5PT2NgIy662trasrCzIqAH3fZinokMK5s1bbrnlV7/61c9//vPi4mKIhjU2Nqanp3Mcd1wU2d9oNBoMhoaGBpigU1NTa2pqnn32WTA0SXJ9eXk5RFENBkNXV5dGo1EoFD/4wQ8QQqtXr1ar1TU1NVVVVaQ/kPL/+Z//GZp03FNWIZ9EC6+QsdUAgQ0xaVHERzcVkTKneIi0niFre8cddzz99NMnT57Mzc21WCyCIAwPD7e2tppMpuTk5JQxJSYmOhwOGLRyc3PdbrdSqQSqJmoEuFsZGRkvvfQS3M7s7GyotiAILS0tGGOz2Qxx95BeCShZ+nweEZmeNm3atHbt2pMnT5aUlIBLvaOjY3h4ODExMSUlJTU1NSUlJSkpieM4MO31en1eXl5NTc2GDRvuv/9+8sQYFGuxWLZu3UpyEdxuN03TkASxbdu2V199taqqKiUlhVA1b968Y8eOrV69+vrrr4cKByb6KZXKuLi4qTwLD31FKSpkOIUITEK73Q6TccgAFvR+pVLp8Xjg7OFtWKPRCKkHcOpJDV6NRqPT6cBLHrAzCZBt3LiRYZhNmzZB2md9fT3P85DPGKA0UVVVVQkJCQ6HA9w5YAJPRAbGeNWqVWfOnPnFL34B8XWXy9Xb2wvdaaJOBVVVKBQajUav14O1F7wPz/Narfa5555LSEj43//935ycHJVK1dfX5xYVXGxiYqJer6+pqdm4ceN//ud/6nQ6kp5J8iZWrVpVXV39+uuvl5SUnDhxwuPxQBKUwWCAVFASyCouLobMiCeffFKv18PhgVMhwzAQHgl/n8g1Mwyj0+mCn4yT/qlUKgVB0Ov10hybYEFKhk6nm8rZlUolPJcXnNYdUnBvYOeQL4IDf+DDDz9ssVhWrlxZX18/c+ZMWMG53W5YP6pUKoPBQNP0sWPHOjs7EUIvvfTSHXfcUVZWVltbGzKyCYJ7T9P0o48+mpaW9r3vfQ/mEYZhTCaTQqHAGINHKmTjMAyj1WrBOg5Tvslk+s1vflNaWvrAAw8YjcZZs2ZxHDcwMOD1eqH+SqXSZDLRNF1fX9/b2/vyyy/fc889Go1GGjwe/YyU+BDeU089VVVV9cknnxQWFmo0GkizAbPdbDZDOhfP89XV1ddff/0LL7xQVFR0LvJNcowgG1CqF198MSC/j/zpdrvnzp0bfIUnTpyQJvq1t7cH73PfffcFJPqFdOg99NBDsBs5O/wnZJmPPPIISdsCwbGNjY3BOz/22GNh0uvgMbpbbrkl5C0k+sMf/tDS0tLc3Byw/auvvgrIIA0u//Tp03/605++853vBBf78ccfS3PewayRChIJQz7+RbILpc9WTaTt27cHHBWytIaGhjvvvDN8UWvWrIF8TMLSyAhNRpf+/v7BwUHy2iqO40iSfLAg3RZ8PORZSpiSyeOa0L5tbW3SbCSO49RqdVpamrRrDg8P9/X1kS2wG5iWwT3Y5/O1t7dPujPUwev1wtBCdhYEwWg0TpQ0Rp7htNvtBw4cOHny5Ndff33s2DG73Z6ampqbm1tRUTFz5szS0lLy0q/W1laynuc4Ljk5Wa/XT/Q0szSVxel09vf3Sy0nnucTExOJ1wMeq/R4PHBT4KLgMaSJ7jF5fLelpeXYsWO1tbVffvllbW2t0+lMS0vLysqaN29eSUlJaWkpJByHf4IXfnU6nSdOnDh58mR1dfXBgwd7enpYlk1MTCwrK5s9e3ZBQcH8+fN1Ol3A46/R/KrIC3ux22hm7Vhzu1wuGH5G7AZxSiJ7TnRXwp83oPwL0KTlS6dU8I2RtyIQKENmHwVLeo2QkUySIKS2dXBT4PDvGJr0Aibdfyq7TQT3RGc/r6qGXEmF3DP4qDBrNPLrxZQfUsHpiudb+FTqP/UuF37/iX6N5hHrkij4NUBXri4XoktY//OiXAZLVkQUu7FCWRGVDJasiEgGS1ZEJIMlKyKSwZIVEclgyYqIZLBkRUQyWLIiIhksWRGRDJasiEgGS1ZEJIMlKyKSwZIVEclgyYqIZLBkRUQyWLIiIhksWRGRDJasiEgGS1ZEJIMlKyKSwZIVEclgyYqIZLBkRUQyWLIiIhksWRGRDJasiEgGS1ZEJIMlKyKSwZIVEclgyYqIZLBkRUQyWLIiov8XAAD//zEQDZ5nrqw2AAAAAElFTkSuQmCC;" vertex="1" parent="1">
          <mxGeometry x="-300" y="605" width="80" height="80" as="geometry" />
        </mxCell>
        <mxCell id="cJpC4bxOb8W68x44Jm_f-56" value="" style="rounded=1;whiteSpace=wrap;html=1;strokeColor=none;" vertex="1" parent="1">
          <mxGeometry x="-335" y="825" width="150" height="50" as="geometry" />
        </mxCell>
        <mxCell id="cJpC4bxOb8W68x44Jm_f-57" value="" style="verticalLabelPosition=bottom;html=1;verticalAlign=top;align=center;strokeColor=none;fillColor=#ffa346;shape=mxgraph.azure.file;pointerEvents=1;" vertex="1" parent="1">
          <mxGeometry x="-327" y="832.5" width="33.25" height="35" as="geometry" />
        </mxCell>
        <mxCell id="cJpC4bxOb8W68x44Jm_f-58" value="" style="verticalLabelPosition=bottom;html=1;verticalAlign=top;align=center;strokeColor=none;fillColor=#ffa346;shape=mxgraph.azure.file;pointerEvents=1;" vertex="1" parent="1">
          <mxGeometry x="-278.13" y="832.5" width="33.25" height="35" as="geometry" />
        </mxCell>
        <mxCell id="cJpC4bxOb8W68x44Jm_f-59" value="" style="verticalLabelPosition=bottom;html=1;verticalAlign=top;align=center;strokeColor=none;fillColor=#ffa346;shape=mxgraph.azure.file;pointerEvents=1;" vertex="1" parent="1">
          <mxGeometry x="-232.5" y="832.5" width="33.25" height="35" as="geometry" />
        </mxCell>
        <mxCell id="cJpC4bxOb8W68x44Jm_f-60" value="" style="shape=image;html=1;verticalAlign=bottom;verticalLabelPosition=top;labelBackgroundColor=none;imageAspect=0;aspect=fixed;image=https://cdn0.iconfinder.com/data/icons/google-material-design-3-0/48/ic_call_split_48px-128.png;rotation=180;labelPosition=center;align=center;horizontal=1;textDirection=vertical-lr;" vertex="1" parent="1">
          <mxGeometry x="-285" y="743" width="58" height="58" as="geometry" />
        </mxCell>
        <mxCell id="cJpC4bxOb8W68x44Jm_f-62" style="edgeStyle=orthogonalEdgeStyle;rounded=0;orthogonalLoop=1;jettySize=auto;html=1;exitX=0.5;exitY=1;exitDx=0;exitDy=0;entryX=0;entryY=0.5;entryDx=0;entryDy=0;" edge="1" parent="1" source="cJpC4bxOb8W68x44Jm_f-61" target="cJpC4bxOb8W68x44Jm_f-27">
          <mxGeometry relative="1" as="geometry" />
        </mxCell>
        <mxCell id="cJpC4bxOb8W68x44Jm_f-63" value="Vectorize" style="edgeLabel;html=1;align=center;verticalAlign=middle;resizable=0;points=[];" vertex="1" connectable="0" parent="cJpC4bxOb8W68x44Jm_f-62">
          <mxGeometry x="0.5164" y="-2" relative="1" as="geometry">
            <mxPoint as="offset" />
          </mxGeometry>
        </mxCell>
        <mxCell id="cJpC4bxOb8W68x44Jm_f-61" value="Chunked text" style="text;html=1;align=center;verticalAlign=middle;whiteSpace=wrap;rounded=0;" vertex="1" parent="1">
          <mxGeometry x="-293.75" y="867.5" width="60" height="30" as="geometry" />
        </mxCell>
        <mxCell id="cJpC4bxOb8W68x44Jm_f-64" style="edgeStyle=orthogonalEdgeStyle;rounded=0;orthogonalLoop=1;jettySize=auto;html=1;exitX=1;exitY=0.5;exitDx=0;exitDy=0;entryX=1;entryY=0.743;entryDx=0;entryDy=0;entryPerimeter=0;" edge="1" parent="1" source="cJpC4bxOb8W68x44Jm_f-27" target="cJpC4bxOb8W68x44Jm_f-1">
          <mxGeometry relative="1" as="geometry">
            <Array as="points">
              <mxPoint x="630" y="985" />
              <mxPoint x="630" y="787" />
            </Array>
          </mxGeometry>
        </mxCell>
        <mxCell id="cJpC4bxOb8W68x44Jm_f-66" value="Store chunks&amp;nbsp;&lt;div&gt;in cosmos db&lt;/div&gt;" style="edgeLabel;html=1;align=center;verticalAlign=middle;resizable=0;points=[];" vertex="1" connectable="0" parent="cJpC4bxOb8W68x44Jm_f-64">
          <mxGeometry x="-0.0049" y="-3" relative="1" as="geometry">
            <mxPoint as="offset" />
          </mxGeometry>
        </mxCell>
      </root>
    </mxGraphModel>
  </diagram>
</mxfile>
